<svg xmlns="http://www.w3.org/2000/svg" viewBox="0 0 1920 1080" width="1920" height="1080">
  <path fill="#272727" d="M1142.2 459.2C1142.0 458.9 1139.6 458.5 1140.6 457.5C1141.5 456.5 1144.5 456.3 1147.9 453.0C1151.3 449.7 1158.4 440.3 1161.0 437.8C1163.6 435.2 1162.9 437.1 1163.2 437.8C1163.6 438.5 1164.4 440.3 1163.4 441.8C1162.3 443.2 1158.0 444.7 1157.1 446.2C1156.2 447.8 1160.5 448.9 1158.0 451.1C1155.5 453.2 1144.9 457.8 1142.2 459.2C1139.6 460.5 1142.5 459.4 1142.2 459.2Z M1066.5 499.6C1058.2 499.2 1025.8 497.7 1017.0 496.8C1008.2 495.9 1014.4 495.7 1013.9 494.2C1013.3 492.8 1013.3 490.1 1013.7 488.2C1014.0 486.4 1014.8 484.3 1015.9 483.0C1017.0 481.7 1011.3 480.7 1020.0 480.4C1028.7 480.1 1059.7 480.6 1068.0 481.2C1076.3 481.7 1070.1 480.7 1069.8 483.8C1069.6 486.8 1067.1 497.0 1066.5 499.6C1065.9 502.3 1074.8 500.1 1066.5 499.6Z M602.2 1039.7C599.1 1039.4 589.0 1039.9 583.5 1038.1C578.0 1036.4 573.1 1032.3 569.0 1029.0C564.9 1025.7 573.1 1020.1 558.8 1018.4C544.4 1016.7 497.8 1016.6 483.0 1018.9C468.2 1021.2 474.0 1028.9 469.8 1032.0C465.5 1035.1 466.0 1036.4 457.5 1037.4C449.0 1038.4 427.4 1039.1 418.5 1038.2C409.6 1037.2 409.2 1035.8 404.2 1031.6C399.3 1027.5 392.4 1019.3 389.0 1013.2C385.7 1007.2 384.8 1001.8 384.4 995.2C384.0 988.8 385.6 979.5 386.8 974.2C388.0 969.0 389.1 967.2 391.5 963.5C393.9 959.8 396.8 955.6 401.2 952.1C405.8 948.6 410.0 944.3 418.5 942.6C427.0 940.8 444.0 940.9 452.2 941.7C460.5 942.4 462.1 947.4 468.0 947.2C473.9 946.9 479.5 941.4 487.5 940.2C495.5 939.0 510.9 940.3 516.0 939.9C521.1 939.4 517.5 942.6 517.8 937.5C518.2 932.4 517.5 914.2 517.9 909.0C518.4 903.8 482.4 906.9 520.5 906.4C558.6 906.0 707.6 906.8 746.2 906.4C784.9 906.0 750.2 906.2 752.2 903.9C754.3 901.6 757.5 900.3 758.6 892.5C759.6 884.7 759.0 865.1 758.6 857.2C758.2 849.4 757.5 849.0 756.2 845.2C754.8 841.5 752.8 837.7 750.4 834.8C748.0 831.8 744.3 829.4 741.8 827.8C739.2 826.3 738.9 825.8 735.0 825.4C731.1 825.0 721.7 825.9 718.5 825.3C715.3 824.8 674.3 876.6 715.9 822.0C757.6 767.4 925.8 552.0 968.6 498.0C1011.4 444.0 970.9 495.2 972.8 497.8C974.6 500.4 992.6 493.8 979.8 513.8C967.1 533.7 910.1 599.8 896.2 617.7C882.4 635.6 877.6 620.6 897.0 621.1C916.4 621.7 979.7 638.7 1012.5 621.1C1045.3 603.6 1077.7 533.7 1093.7 516.0C1109.7 498.3 1105.4 515.4 1108.5 514.7C1111.6 513.9 1112.7 513.7 1112.6 511.5C1112.5 509.3 1108.4 504.9 1108.2 501.8C1107.9 498.6 1109.6 494.8 1111.1 492.8C1112.7 490.7 1115.6 489.7 1117.5 489.4C1119.4 489.1 1121.3 489.6 1122.8 490.9C1124.2 492.2 1125.9 494.3 1126.1 497.2C1126.3 500.2 1160.7 459.6 1123.8 508.5C1086.9 557.4 940.7 743.2 904.7 790.5C868.6 837.8 894.4 791.9 907.5 792.4C920.6 792.9 970.6 768.8 983.4 793.5C996.2 818.2 984.7 913.1 984.3 940.5C984.0 967.9 983.4 951.9 981.2 957.8C978.9 963.6 974.0 971.6 970.9 975.8C967.7 979.9 966.4 980.2 962.2 982.7C958.1 985.1 959.5 988.9 945.8 990.3C932.0 991.8 891.6 994.9 879.8 991.6C867.9 988.3 877.4 976.8 874.7 970.5C872.0 964.2 868.0 958.3 863.6 954.0C859.2 949.7 853.7 946.5 848.2 944.8C842.8 943.2 835.5 943.4 831.0 943.9C826.5 944.4 824.9 945.4 821.2 947.8C817.6 950.2 812.4 954.5 809.2 958.2C806.1 962.0 804.0 966.2 802.3 970.5C800.6 974.8 799.5 978.6 799.1 984.0C798.7 989.4 798.8 997.1 799.9 1002.8C801.1 1008.4 803.5 1013.3 806.1 1017.8C808.6 1022.2 811.1 1025.8 815.2 1029.4C819.4 1032.9 831.2 1037.2 831.0 1038.9C830.8 1040.5 818.6 1039.6 813.8 1039.1C808.9 1038.6 805.7 1037.6 801.8 1035.9C797.8 1034.2 794.0 1032.0 790.2 1029.0C786.5 1026.0 790.5 1020.0 779.2 1018.2C768.0 1016.4 735.2 1016.3 723.0 1018.2C710.8 1020.0 712.0 1027.2 705.8 1029.2C699.5 1031.2 691.2 1030.3 685.5 1030.1C679.8 1029.8 676.1 1029.9 671.2 1027.7C666.4 1025.5 657.8 1021.9 656.1 1017.0C654.4 1012.1 660.3 1003.4 661.1 998.2C661.9 993.1 661.7 990.9 661.1 986.2C660.4 981.6 658.9 975.0 657.2 970.5C655.4 966.0 654.5 963.3 650.6 959.2C646.7 955.2 638.7 949.0 633.8 946.3C628.8 943.6 624.4 943.6 621.0 943.2C617.6 942.8 616.9 942.9 613.5 943.9C610.1 944.9 604.6 946.8 600.8 949.3C596.9 951.8 593.0 955.7 590.2 959.0C587.5 962.3 585.9 964.1 584.1 969.0C582.3 973.9 580.0 983.0 579.4 988.5C578.8 994.0 579.2 997.1 580.3 1002.0C581.5 1006.9 584.0 1013.4 586.3 1017.8C588.6 1022.1 590.1 1024.5 594.0 1027.9C597.9 1031.2 608.2 1036.0 609.6 1038.0C610.9 1040.0 603.5 1039.4 602.2 1039.7C601.0 1039.9 605.4 1039.9 602.2 1039.7Z M1233.0 699.1C1231.9 698.2 1238.0 697.5 1226.2 693.6C1214.5 689.7 1175.9 679.1 1162.5 675.6C1149.1 672.1 1150.0 672.7 1146.0 672.4C1142.0 672.1 1140.5 674.0 1138.5 673.6C1136.5 673.1 1129.1 698.0 1133.9 669.8C1138.6 641.5 1135.1 531.4 1166.9 504.0C1198.7 476.6 1296.9 505.2 1324.5 505.1C1352.1 505.0 1330.8 497.7 1332.8 503.4C1334.7 509.1 1335.4 524.7 1336.1 539.2C1336.8 553.8 1335.7 569.9 1336.9 591.0C1338.2 612.1 1342.8 649.5 1343.6 666.0C1344.4 682.5 1343.6 685.4 1341.9 690.0C1340.2 694.6 1335.5 693.9 1333.5 693.6C1331.5 693.3 1334.1 689.1 1329.8 688.2C1325.4 687.3 1321.1 687.2 1307.2 688.2C1293.4 689.2 1258.9 692.3 1246.5 694.2C1234.1 696.0 1235.2 698.3 1233.0 699.1C1230.8 699.9 1234.1 700.0 1233.0 699.1Z M751.8 810.0C758.3 807.1 769.0 795.4 790.5 792.4C812.0 789.4 847.0 816.2 880.7 792.0C914.5 767.8 974.0 672.5 993.0 647.5C1012.0 622.5 995.1 643.2 994.8 642.0C994.6 640.8 1010.6 640.4 991.5 640.1C972.4 639.9 920.2 613.5 880.3 640.5C840.4 667.5 774.1 774.4 752.2 802.2C730.4 830.1 749.2 806.5 749.1 807.8C749.1 809.0 751.4 809.6 751.8 810.0C752.2 810.4 745.4 812.9 751.8 810.0Z M1371.0 895.6C1367.2 891.2 1350.1 871.8 1348.5 869.5C1346.9 867.3 1357.8 877.7 1361.6 882.0C1365.3 886.3 1369.4 893.3 1371.0 895.6C1372.6 897.8 1374.8 899.9 1371.0 895.6Z M1446.0 990.9C1445.9 990.6 1443.6 991.4 1445.2 989.1C1446.9 986.7 1447.8 985.6 1456.1 976.5C1464.5 967.4 1488.9 940.7 1495.5 934.4C1502.1 928.0 1497.2 936.4 1495.5 938.5C1493.8 940.5 1488.4 943.2 1485.3 946.5C1482.3 949.8 1483.7 951.1 1477.1 958.5C1470.5 965.9 1451.2 985.5 1446.0 990.9C1440.8 996.3 1446.1 991.2 1446.0 990.9Z M1389.8 975.8C1389.5 975.6 1387.5 979.1 1388.0 974.2C1388.4 969.4 1392.2 952.7 1392.3 946.5C1392.5 940.3 1388.5 936.7 1389.0 937.0C1389.5 937.4 1395.2 942.3 1395.4 948.8C1395.5 955.2 1390.7 971.3 1389.8 975.8C1388.8 980.3 1390.0 976.1 1389.8 975.8Z M624.8 1005.2C622.8 1004.8 615.5 1004.5 612.8 1002.9C610.0 1001.4 608.9 998.8 608.1 996.0C607.3 993.2 606.6 989.5 608.1 986.2C609.6 983.0 614.0 977.7 617.2 976.3C620.5 974.9 625.1 976.3 627.8 977.8C630.4 979.3 632.4 982.1 633.2 985.5C633.9 988.9 633.8 995.0 632.4 998.2C631.0 1001.5 626.0 1004.0 624.8 1005.2C623.5 1006.3 626.8 1005.5 624.8 1005.2Z M841.5 1005.2C840.0 1004.9 834.8 1005.4 832.2 1003.5C829.7 1001.6 826.9 997.2 826.2 993.8C825.4 990.2 826.1 985.4 827.8 982.5C829.5 979.6 833.3 976.9 836.2 976.2C839.2 975.4 842.9 976.2 845.5 978.0C848.1 979.8 851.0 983.4 851.6 987.0C852.2 990.6 850.9 996.7 849.2 999.8C847.5 1002.8 842.8 1004.3 841.5 1005.2C840.2 1006.1 843.0 1005.4 841.5 1005.2Z"/>
  <path fill="#f7b08b" d="M1220.2 176.4C1219.0 176.4 1215.6 177.3 1212.8 176.4C1209.9 175.6 1206.1 172.0 1203.0 171.4C1199.9 170.8 1195.5 173.1 1194.0 172.6C1192.5 172.2 1195.2 169.9 1194.3 168.8C1193.4 167.6 1190.7 166.1 1188.8 165.8C1186.8 165.6 1183.6 165.9 1182.8 167.0C1181.9 168.2 1185.7 172.2 1183.5 172.6C1181.3 173.0 1171.5 174.9 1169.7 169.5C1167.9 164.1 1170.4 145.5 1172.9 140.2C1175.3 135.0 1182.1 138.9 1184.2 138.1C1186.4 137.4 1187.7 137.3 1186.0 135.8C1184.4 134.2 1175.9 131.8 1174.2 129.0C1172.5 126.2 1174.6 122.3 1175.8 119.2C1177.0 116.2 1177.0 111.7 1181.2 110.9C1185.5 110.0 1193.2 113.7 1201.5 114.3C1209.8 114.9 1225.4 114.0 1230.8 114.4C1236.1 114.9 1233.1 109.6 1233.9 117.0C1234.7 124.4 1235.9 150.5 1235.4 159.0C1235.0 167.5 1233.6 165.1 1231.1 168.0C1228.6 170.9 1222.1 175.0 1220.2 176.4C1218.4 177.8 1221.5 176.4 1220.2 176.4Z M1217.4 139.5C1217.6 139.1 1219.4 138.3 1218.8 137.2C1218.3 136.2 1217.0 133.7 1214.2 133.3C1211.5 133.0 1203.9 134.2 1202.1 135.0C1200.4 135.8 1201.2 137.4 1203.8 138.1C1206.3 138.9 1215.1 139.3 1217.4 139.5C1219.7 139.7 1217.2 139.9 1217.4 139.5Z M1180.7 154.5C1181.1 153.1 1183.4 148.1 1183.1 146.2C1182.8 144.4 1180.2 143.7 1179.0 143.7C1177.8 143.7 1176.4 145.1 1175.9 146.2C1175.3 147.4 1175.3 149.4 1175.7 150.8C1176.0 152.1 1177.2 153.9 1178.0 154.5C1178.9 155.1 1180.3 154.5 1180.7 154.5C1181.2 154.5 1180.3 155.9 1180.7 154.5Z M1209.2 155.2C1209.7 154.1 1212.5 150.3 1212.3 148.5C1212.2 146.7 1209.6 144.2 1208.2 144.5C1206.9 144.7 1204.0 148.2 1204.2 150.0C1204.3 151.8 1208.3 154.4 1209.2 155.2C1210.0 156.1 1208.6 156.4 1209.2 155.2Z M1223.2 249.9C1221.2 249.9 1214.6 251.0 1211.2 249.9C1207.9 248.8 1205.2 246.5 1203.0 243.3C1200.8 240.0 1198.8 234.4 1198.2 230.2C1197.6 226.1 1195.8 221.3 1199.1 218.2C1202.4 215.2 1214.0 212.8 1218.0 211.9C1222.0 211.0 1220.8 213.7 1223.2 212.7C1225.7 211.8 1229.2 210.7 1232.6 206.2C1236.0 201.8 1241.1 194.9 1243.7 186.0C1246.2 177.1 1246.5 159.3 1247.8 153.0C1249.2 146.7 1250.1 149.3 1251.8 148.3C1253.4 147.3 1255.9 146.6 1257.8 146.8C1259.6 147.1 1261.4 148.6 1262.6 150.0C1263.8 151.4 1264.5 153.4 1264.8 155.2C1265.2 157.1 1265.8 157.9 1264.7 161.2C1263.6 164.6 1258.3 165.6 1258.1 175.5C1258.0 185.4 1265.4 210.2 1263.9 220.5C1262.4 230.8 1255.8 232.1 1249.0 237.0C1242.2 241.9 1227.5 247.8 1223.2 249.9C1219.0 252.1 1225.2 249.9 1223.2 249.9Z M1018.5 517.7C1017.6 517.4 1014.9 517.8 1013.2 516.3C1011.6 514.9 1010.6 509.7 1008.8 509.2C1006.9 508.7 1006.5 512.8 1002.0 513.3C997.5 513.9 986.7 515.7 981.8 512.6C976.8 509.5 974.1 499.3 972.4 495.0C970.7 490.7 971.1 489.8 971.7 486.8C972.2 483.8 973.4 480.4 975.6 477.0C977.7 473.6 980.3 469.5 984.5 466.5C988.7 463.5 996.1 460.4 1000.5 458.8C1004.9 457.3 1005.5 456.6 1011.0 457.2C1016.5 457.7 1016.8 471.8 1033.5 462.1C1050.2 452.4 1093.0 427.1 1111.1 399.0C1129.2 370.9 1135.5 307.6 1142.1 293.2C1148.7 278.9 1148.6 306.1 1150.6 312.8C1152.7 319.4 1152.3 313.1 1154.6 333.0C1156.8 352.9 1164.2 413.2 1164.1 432.0C1164.1 450.8 1158.3 441.6 1154.2 445.9C1150.2 450.1 1141.8 455.2 1139.7 457.5C1137.6 459.8 1135.7 462.3 1141.5 459.9C1147.3 457.4 1157.4 452.9 1174.5 442.7C1191.6 432.5 1229.4 419.0 1244.2 398.5C1259.1 378.0 1259.6 337.2 1263.3 319.5C1267.1 301.8 1265.2 299.2 1266.6 292.5C1268.0 285.8 1269.0 283.9 1271.8 279.0C1274.6 274.1 1278.7 267.5 1283.2 262.9C1287.8 258.2 1293.9 254.1 1299.0 251.1C1304.1 248.1 1309.6 245.7 1314.0 244.9C1318.4 244.2 1321.2 244.8 1325.2 246.6C1329.3 248.4 1334.5 251.7 1338.4 255.8C1342.3 259.8 1346.5 265.0 1348.7 270.8C1350.8 276.5 1350.8 284.8 1351.1 290.2C1351.4 295.8 1351.6 296.5 1350.3 303.8C1349.1 311.0 1351.4 312.4 1343.6 333.8C1335.8 355.1 1312.9 412.1 1303.7 432.0C1294.5 451.9 1296.2 447.3 1288.5 453.4C1280.8 459.4 1282.1 460.6 1257.8 468.2C1233.4 475.7 1163.8 492.4 1142.2 498.6C1120.8 504.7 1131.4 504.2 1128.8 505.1C1126.1 506.0 1127.1 506.2 1126.4 504.0C1125.7 501.8 1125.7 494.5 1124.6 492.0C1123.5 489.5 1121.4 489.2 1119.8 488.8C1118.1 488.4 1116.4 488.4 1114.5 489.6C1112.6 490.7 1109.5 493.6 1108.3 495.8C1107.2 497.9 1106.9 500.0 1107.4 502.5C1107.9 505.0 1111.3 508.8 1111.4 510.8C1111.5 512.7 1109.6 513.8 1107.8 514.1C1105.9 514.4 1102.8 512.6 1100.2 512.7C1097.8 512.8 1097.4 515.1 1092.8 514.8C1088.1 514.6 1076.7 512.8 1072.5 511.1C1068.3 509.4 1067.9 509.4 1067.7 504.8C1067.4 500.1 1070.8 487.0 1071.1 483.0C1071.4 479.0 1078.3 481.1 1069.5 480.6C1060.7 480.1 1027.9 478.9 1018.5 479.8C1009.1 480.7 1013.9 483.1 1013.1 486.0C1012.3 488.9 1012.6 494.9 1013.7 497.2C1014.7 499.6 1015.8 499.6 1019.2 499.8C1022.7 500.0 1031.2 498.2 1034.2 498.4C1037.3 498.6 1040.0 497.8 1037.3 501.0C1034.7 504.2 1021.6 514.9 1018.5 517.7C1015.4 520.4 1019.4 517.9 1018.5 517.7Z M1191.0 892.1C1187.2 891.9 1180.7 893.1 1168.5 891.3C1156.3 889.5 1124.1 909.1 1117.9 881.2C1111.7 853.4 1127.2 759.1 1131.4 724.5C1135.6 689.9 1136.4 681.0 1143.0 673.4C1149.6 665.7 1157.4 675.2 1170.8 678.6C1184.1 682.0 1213.4 690.4 1223.2 693.6C1233.1 696.7 1231.3 690.6 1229.6 697.5C1227.9 704.4 1215.0 722.4 1213.2 735.0C1211.3 747.6 1217.7 762.9 1218.3 773.2C1219.0 783.6 1221.4 777.4 1216.8 797.2C1212.3 817.1 1195.3 876.3 1191.0 892.1C1186.7 907.9 1194.8 892.2 1191.0 892.1Z M1358.2 876.8C1353.2 871.8 1344.4 865.4 1327.9 846.8C1311.4 828.1 1271.7 780.8 1259.1 765.0C1246.5 749.2 1254.5 757.6 1252.3 752.2C1250.2 746.9 1248.4 741.6 1246.3 732.8C1244.2 723.9 1240.7 705.0 1239.8 699.0C1239.0 693.0 1230.0 698.3 1241.2 696.6C1252.5 694.9 1293.4 690.3 1307.2 688.9C1321.1 687.5 1320.5 687.9 1324.5 688.2C1328.5 688.4 1330.2 686.8 1331.2 690.5C1332.3 694.2 1330.6 706.1 1330.9 710.2C1331.3 714.4 1329.2 711.0 1333.3 715.5C1337.4 720.0 1349.8 731.0 1355.6 737.2C1361.4 743.5 1358.1 736.9 1368.2 753.0C1378.2 769.1 1412.5 815.8 1415.9 834.0C1419.3 852.2 1395.9 856.1 1388.5 862.5C1381.2 868.9 1376.8 870.0 1371.8 872.4C1366.7 874.8 1360.5 876.1 1358.2 876.8C1356.0 877.6 1363.3 881.9 1358.2 876.8Z"/>
  <path fill="#d8d9d7" d="M1167.0 446.4C1166.6 445.8 1166.7 466.0 1164.4 443.2C1162.1 420.5 1155.3 332.3 1153.1 309.8C1150.9 287.2 1152.1 307.9 1151.2 307.7C1150.4 307.4 1149.0 308.8 1148.2 308.4C1147.5 308.0 1147.5 309.3 1146.6 305.2C1145.7 301.2 1143.4 289.1 1142.7 284.2C1141.9 279.4 1141.5 279.2 1141.9 276.0C1142.3 272.8 1141.7 269.4 1145.2 265.2C1148.8 261.1 1154.6 256.7 1163.2 251.1C1171.9 245.5 1190.4 233.0 1197.0 231.7C1203.6 230.4 1200.9 240.3 1203.0 243.3C1205.1 246.2 1205.4 248.3 1209.8 249.2C1214.1 250.0 1222.6 250.5 1229.2 248.4C1235.9 246.3 1243.4 241.6 1249.5 236.6C1255.6 231.6 1252.8 218.0 1266.0 218.7C1279.2 219.4 1318.0 236.7 1328.5 240.8C1339.0 244.8 1330.2 242.7 1329.0 243.1C1327.8 243.4 1325.2 241.9 1321.5 242.7C1317.8 243.4 1311.7 245.0 1306.5 247.3C1301.3 249.6 1295.1 253.0 1290.5 256.5C1285.9 260.0 1282.5 262.9 1278.8 268.2C1275.0 273.6 1270.5 285.1 1268.1 288.8C1265.7 292.4 1265.2 285.1 1264.4 290.2C1263.6 295.4 1266.7 301.5 1263.3 319.5C1260.0 337.5 1260.3 377.4 1244.2 398.5C1228.2 419.6 1179.9 438.4 1167.0 446.4C1154.1 454.3 1167.4 446.9 1167.0 446.4Z M1326.0 504.2C1301.5 504.2 1205.1 504.7 1179.0 504.3C1152.9 504.0 1171.2 503.9 1169.2 502.1C1167.3 500.3 1166.7 495.6 1167.5 493.5C1168.2 491.4 1158.7 493.8 1173.8 489.6C1188.8 485.4 1238.6 474.2 1257.8 468.2C1276.9 462.1 1280.8 459.4 1288.5 453.4C1296.2 447.3 1294.9 450.9 1303.7 432.0C1312.4 413.1 1334.7 347.8 1341.0 339.9C1347.3 332.1 1342.3 361.5 1341.3 384.8C1340.4 408.0 1336.6 459.8 1335.1 479.2C1333.6 498.8 1333.7 497.6 1332.1 501.8C1330.6 505.9 1327.0 503.8 1326.0 504.2C1325.0 504.6 1350.5 504.1 1326.0 504.2Z M1402.5 850.0C1404.4 847.7 1411.4 838.3 1413.8 836.0C1416.1 833.7 1415.9 835.0 1416.8 836.0C1417.6 837.0 1421.4 839.7 1419.0 842.0C1416.6 844.3 1405.2 848.7 1402.5 850.0C1399.8 851.3 1400.6 852.3 1402.5 850.0Z M1363.5 881.4C1362.8 880.5 1355.9 878.7 1359.6 876.0C1363.3 873.3 1382.2 866.5 1385.7 865.5C1389.2 864.5 1383.7 868.4 1380.8 870.1C1377.8 871.9 1370.6 874.1 1367.7 876.0C1364.9 877.9 1364.2 880.5 1363.5 881.4C1362.8 882.3 1364.2 882.3 1363.5 881.4Z M1377.0 1024.3C1375.8 1022.9 1371.5 1019.0 1370.1 1016.2C1368.6 1013.5 1368.1 1011.3 1368.4 1008.0C1368.7 1004.7 1368.0 1001.4 1371.8 996.5C1375.5 991.6 1386.6 986.1 1390.7 978.8C1394.7 971.4 1395.4 958.2 1396.1 952.5C1396.9 946.8 1396.7 947.8 1395.2 944.2C1393.7 940.8 1387.7 936.0 1387.2 931.5C1386.6 927.0 1388.8 920.1 1391.9 917.2C1394.9 914.4 1400.1 914.2 1405.5 914.7C1410.9 915.1 1419.2 919.5 1424.2 919.9C1429.2 920.2 1432.3 918.2 1435.5 916.7C1438.7 915.1 1441.5 912.7 1443.4 910.5C1445.3 908.3 1446.1 906.6 1446.9 903.8C1447.7 900.9 1448.2 896.5 1448.2 893.2C1448.1 890.0 1446.4 886.3 1446.4 884.2C1446.4 882.2 1440.9 874.9 1448.2 881.0C1455.6 887.1 1494.0 903.1 1490.7 921.0C1487.5 938.9 1442.2 974.4 1428.8 988.1C1415.3 1001.8 1417.6 998.4 1410.0 1002.9C1402.4 1007.5 1388.5 1011.8 1383.0 1015.3C1377.5 1018.9 1378.0 1022.8 1377.0 1024.3C1376.0 1025.8 1378.2 1025.6 1377.0 1024.3Z M1029.8 1011.1C1029.4 1011.0 1028.1 1010.9 1027.9 1010.2C1027.7 1009.6 1027.2 1008.5 1028.7 1007.2C1030.1 1006.0 1035.9 1005.0 1036.6 1002.8C1037.4 1000.5 1033.1 996.2 1033.1 993.8C1033.2 991.2 1033.9 989.6 1037.0 987.8C1040.1 985.9 1047.7 983.1 1051.5 982.9C1055.3 982.7 1057.0 987.1 1059.8 986.4C1062.5 985.7 1061.4 983.3 1067.7 978.8C1074.1 974.2 1091.3 966.0 1097.6 959.2C1103.9 952.5 1102.5 943.1 1105.3 938.2C1108.2 933.4 1112.8 935.3 1114.7 930.0C1116.6 924.7 1116.2 906.3 1116.8 906.2C1117.3 906.1 1115.7 923.3 1118.1 929.2C1120.5 935.2 1129.2 937.4 1131.2 942.0C1133.1 946.6 1129.7 953.9 1129.9 957.0C1130.1 960.1 1130.1 959.2 1132.5 960.4C1134.9 961.5 1140.1 963.5 1144.5 964.1C1148.9 964.7 1154.5 964.9 1158.8 964.1C1163.0 963.3 1166.9 961.5 1170.0 959.4C1173.1 957.4 1175.6 952.0 1177.5 951.9C1179.4 951.9 1180.8 949.9 1181.4 959.2C1182.0 968.6 1199.4 999.3 1181.2 1007.9C1163.1 1016.4 1097.1 1010.7 1072.5 1010.6C1047.9 1010.6 1040.6 1007.5 1033.5 1007.6C1026.4 1007.7 1030.4 1010.6 1029.8 1011.1C1029.1 1011.7 1030.1 1011.3 1029.8 1011.1Z"/>
  <path fill="#c71e1a" d="M519.0 906.2C517.7 905.9 512.9 906.7 511.3 904.5C509.8 902.3 509.6 897.8 509.6 893.2C509.6 888.8 509.8 881.8 511.3 877.5C512.9 873.2 509.8 873.4 519.0 867.4C528.2 861.4 551.9 848.3 566.2 841.3C580.6 834.3 577.1 828.1 605.2 825.6C633.4 823.1 711.1 824.8 735.0 826.2C758.9 827.5 745.0 829.9 748.5 833.6C752.0 837.3 754.7 838.2 756.2 848.2C757.6 858.3 757.4 885.2 757.1 894.0C756.7 902.8 755.8 898.8 754.1 900.8C752.4 902.7 786.2 904.5 747.0 905.4C707.8 906.3 557.0 906.0 519.0 906.2C481.0 906.3 520.3 906.4 519.0 906.2Z"/>
  <path fill="#f6f6f4" d="M1425.8 919.7C1424.1 919.5 1419.4 919.8 1416.0 918.9C1412.6 918.1 1409.5 915.2 1405.5 914.7C1401.5 914.2 1398.9 921.5 1392.0 915.9C1385.1 910.3 1367.9 887.9 1363.9 881.2C1359.9 874.6 1364.7 878.0 1368.0 875.8C1371.3 873.6 1377.7 872.7 1383.8 868.1C1389.8 863.5 1398.9 852.6 1404.5 848.2C1410.1 843.9 1414.5 842.4 1417.5 841.9C1420.5 841.5 1418.1 839.6 1422.8 845.7C1427.4 851.9 1441.2 871.1 1445.4 879.0C1449.7 886.9 1447.9 889.1 1448.2 893.2C1448.4 897.4 1447.7 900.9 1446.9 903.8C1446.1 906.6 1445.3 908.3 1443.4 910.5C1441.5 912.7 1438.4 915.2 1435.5 916.7C1432.6 918.2 1427.4 919.2 1425.8 919.7C1424.1 920.2 1427.4 919.8 1425.8 919.7Z M1159.5 963.9C1157.0 963.9 1149.3 964.9 1144.5 964.1C1139.7 963.3 1133.0 962.9 1130.8 959.2C1128.6 955.6 1133.3 947.1 1131.2 942.0C1129.0 936.9 1120.3 937.4 1117.9 928.5C1115.6 919.6 1116.9 896.0 1117.1 888.8C1117.3 881.5 1107.2 883.9 1119.0 884.9C1130.8 885.9 1176.8 890.5 1188.1 894.8C1199.4 899.0 1188.6 901.1 1186.8 910.5C1185.1 919.9 1180.4 942.9 1177.6 951.0C1174.9 959.1 1173.3 957.1 1170.3 959.2C1167.2 961.4 1161.3 963.1 1159.5 963.9C1157.7 964.7 1162.0 963.9 1159.5 963.9Z M1388.2 1024.7C1386.8 1024.7 1381.0 1025.3 1379.2 1024.6C1377.5 1024.0 1377.0 1022.3 1377.6 1020.8C1378.2 1019.2 1379.0 1017.5 1383.0 1015.3C1387.0 1013.1 1395.8 1010.6 1401.8 1007.4C1407.8 1004.3 1408.4 1006.0 1419.0 996.4C1429.6 986.7 1453.6 961.8 1465.1 949.5C1476.6 937.2 1483.2 926.4 1488.0 922.3C1492.8 918.1 1492.5 923.3 1493.6 924.8C1494.8 926.2 1495.5 928.5 1494.9 930.8C1494.3 933.0 1500.8 925.9 1489.9 938.2C1479.0 950.6 1443.7 991.2 1429.5 1004.6C1415.3 1018.0 1411.6 1015.4 1404.8 1018.7C1397.9 1022.0 1391.0 1023.7 1388.2 1024.7C1385.5 1025.7 1389.8 1024.7 1388.2 1024.7Z M1143.8 1020.9C1130.8 1020.9 1083.8 1021.8 1065.8 1021.1C1047.8 1020.3 1041.6 1017.6 1035.8 1016.4C1029.9 1015.2 1031.8 1015.0 1030.9 1014.0C1030.0 1013.0 1029.7 1011.3 1030.2 1010.2C1030.6 1009.2 1026.6 1007.6 1033.5 1007.6C1040.4 1007.7 1053.8 1010.6 1071.8 1010.6C1089.8 1010.6 1123.5 1008.1 1141.5 1007.6C1159.5 1007.1 1173.0 1007.4 1179.8 1007.7C1186.5 1008.0 1181.9 1008.1 1182.1 1009.5C1182.4 1010.9 1182.3 1014.6 1181.4 1016.2C1180.5 1017.9 1183.0 1018.8 1176.8 1019.6C1170.5 1020.4 1149.2 1020.7 1143.8 1020.9C1138.2 1021.1 1156.8 1020.9 1143.8 1020.9Z"/>
  <path fill="#c1c2c2" d="M1347.0 267.1C1345.0 264.7 1339.2 256.0 1335.0 252.4C1330.8 248.8 1323.9 247.0 1321.5 245.4C1319.1 243.8 1319.0 243.6 1320.6 243.0C1322.2 242.4 1328.9 241.8 1331.2 242.0C1333.6 242.1 1333.2 242.5 1335.0 244.1C1336.8 245.8 1339.9 248.2 1341.9 252.0C1343.9 255.8 1346.2 264.6 1347.0 267.1C1347.8 269.7 1349.0 269.6 1347.0 267.1Z M624.0 1038.9C621.4 1038.5 612.9 1038.3 608.2 1036.7C603.6 1035.1 599.8 1032.4 596.2 1029.4C592.7 1026.3 589.8 1023.6 587.1 1018.5C584.4 1013.4 581.2 1005.2 580.2 999.0C579.1 992.8 579.6 987.0 580.9 981.0C582.2 975.0 584.1 968.4 587.8 963.0C591.5 957.6 598.2 951.8 603.0 948.6C607.8 945.4 612.4 944.5 616.5 943.9C620.6 943.3 623.4 943.5 627.8 944.8C632.1 946.2 638.5 948.9 642.8 952.1C647.0 955.4 650.5 959.1 653.4 964.5C656.4 969.9 659.2 978.9 660.3 984.8C661.5 990.6 661.5 993.8 660.3 999.8C659.2 1005.8 656.9 1015.0 653.4 1020.8C650.0 1026.5 644.7 1031.4 639.8 1034.4C634.8 1037.4 626.6 1038.2 624.0 1038.9C621.4 1039.7 626.6 1039.3 624.0 1038.9Z M843.0 1037.4C840.6 1037.2 833.1 1037.1 828.8 1035.9C824.4 1034.7 820.4 1033.0 816.8 1030.1C813.1 1027.2 809.8 1024.2 806.8 1018.5C803.9 1012.8 800.3 1002.5 799.2 996.0C798.0 989.5 798.8 985.1 800.1 979.5C801.4 973.9 803.9 967.0 806.8 962.2C809.7 957.5 813.1 953.9 817.5 950.8C821.9 947.8 828.0 944.8 833.2 943.9C838.5 943.0 843.5 943.3 849.0 945.6C854.5 947.8 862.1 953.4 866.2 957.4C870.4 961.4 871.9 964.3 873.9 969.8C876.0 975.2 878.3 983.2 878.6 990.0C878.8 996.8 877.2 1004.7 875.4 1010.2C873.6 1015.8 870.9 1019.5 867.8 1023.3C864.6 1027.0 860.6 1030.6 856.5 1032.9C852.4 1035.3 845.2 1036.7 843.0 1037.4C840.8 1038.2 845.4 1037.7 843.0 1037.4Z M623.6 1005.8C625.0 1004.9 629.9 1003.6 631.7 1000.5C633.4 997.4 634.6 990.8 634.1 987.0C633.6 983.2 631.2 979.9 628.8 978.0C626.3 976.1 622.6 974.9 619.5 975.4C616.4 975.9 612.4 977.9 610.3 981.0C608.3 984.1 606.5 989.9 607.2 993.8C607.8 997.6 611.3 1002.2 614.0 1004.2C616.7 1006.2 622.0 1005.5 623.6 1005.8C625.2 1006.0 622.3 1006.6 623.6 1005.8Z M842.6 1005.0C843.8 1004.0 848.3 1001.6 849.9 999.0C851.6 996.4 852.9 992.7 852.3 989.2C851.8 985.8 849.2 980.7 846.8 978.4C844.3 976.1 840.9 974.9 837.8 975.4C834.6 976.0 829.9 978.8 827.8 981.8C825.8 984.7 824.8 989.3 825.4 993.0C826.1 996.7 828.9 1001.7 831.8 1003.7C834.6 1005.7 840.8 1004.8 842.6 1005.0C844.4 1005.2 841.4 1006.0 842.6 1005.0Z M1030.5 1006.0C1030.1 1005.8 1027.9 1006.9 1028.1 1005.0C1028.4 1003.1 1030.6 995.2 1032.0 994.7C1033.4 994.2 1037.1 1000.1 1036.8 1002.0C1036.6 1003.9 1031.6 1005.3 1030.5 1006.0C1029.4 1006.6 1030.9 1006.1 1030.5 1006.0Z"/>
  <path fill="#632406" d="M1267.5 151.8C1267.2 151.1 1265.3 149.6 1265.7 147.8C1266.0 145.9 1269.6 142.8 1269.6 141.0C1269.7 139.2 1268.5 137.5 1266.0 137.1C1263.5 136.7 1258.9 137.3 1254.8 138.6C1250.6 139.9 1243.5 144.6 1241.2 144.9C1239.0 145.2 1240.2 142.1 1241.1 140.2C1241.9 138.4 1247.4 135.2 1246.3 133.5C1245.2 131.8 1235.8 131.2 1234.5 130.0C1233.2 128.7 1238.3 127.2 1238.3 126.0C1238.4 124.8 1235.3 124.6 1234.7 123.0C1234.1 121.4 1235.1 117.8 1234.6 116.2C1234.2 114.7 1238.3 114.3 1232.2 113.9C1226.2 113.4 1207.0 114.2 1198.5 113.6C1190.0 112.9 1185.2 109.4 1181.2 109.9C1177.2 110.4 1176.8 117.1 1174.5 116.4C1172.2 115.7 1168.5 109.2 1167.4 105.8C1166.2 102.3 1166.4 99.7 1167.6 96.0C1168.8 92.3 1171.9 86.7 1174.5 83.7C1177.1 80.8 1180.1 79.2 1183.5 78.4C1186.9 77.6 1192.1 79.5 1194.8 79.1C1197.4 78.6 1197.5 76.2 1199.2 75.6C1201.0 75.0 1198.2 73.9 1205.2 75.5C1212.2 77.0 1234.4 83.6 1241.2 85.1C1248.1 86.6 1243.2 82.6 1246.5 84.6C1249.8 86.6 1257.0 94.3 1260.8 96.9C1264.5 99.6 1266.9 98.4 1269.2 100.5C1271.5 102.6 1274.2 105.6 1274.6 109.5C1274.9 113.4 1271.5 119.4 1271.4 123.8C1271.3 128.1 1274.0 131.2 1273.8 135.8C1273.7 140.2 1271.7 148.1 1270.6 150.8C1269.6 153.4 1268.0 151.6 1267.5 151.8C1267.0 152.0 1267.8 152.5 1267.5 151.8Z"/>
  <path fill="#b36b41" d="M1199.2 217.6C1196.2 216.5 1185.4 213.2 1181.2 210.9C1177.1 208.7 1176.6 207.9 1174.3 204.0C1172.0 200.1 1168.5 193.0 1167.4 187.5C1166.3 182.0 1165.1 173.4 1167.8 170.8C1170.4 168.2 1181.1 172.9 1183.5 172.0C1185.9 171.2 1182.3 167.4 1182.4 165.8C1182.5 164.1 1183.7 162.1 1184.2 162.2C1184.8 162.2 1184.1 165.1 1185.8 166.0C1187.4 167.0 1192.6 166.9 1194.2 168.0C1195.8 169.1 1194.0 172.1 1195.5 172.6C1197.0 173.2 1200.1 170.8 1203.0 171.4C1205.9 172.0 1209.9 175.6 1212.8 176.4C1215.6 177.3 1217.2 177.8 1220.2 176.4C1223.3 175.0 1228.6 170.9 1231.1 168.0C1233.6 165.1 1235.0 165.1 1235.4 159.0C1235.9 152.9 1232.0 135.5 1233.8 131.1C1235.5 126.7 1244.8 131.2 1246.0 132.8C1247.3 134.3 1241.6 138.4 1241.1 140.2C1240.5 142.1 1240.3 144.1 1242.8 143.8C1245.2 143.5 1251.5 139.4 1255.5 138.4C1259.5 137.4 1264.6 137.1 1266.8 137.6C1268.9 138.2 1268.8 139.7 1268.6 141.8C1268.4 143.8 1265.6 148.1 1265.7 150.0C1265.7 151.9 1268.7 151.6 1269.1 153.0C1269.6 154.4 1269.0 156.7 1268.4 158.2C1267.8 159.8 1266.0 163.5 1265.2 162.5C1264.5 161.5 1265.2 154.9 1263.9 152.2C1262.7 149.6 1260.3 147.0 1257.8 146.8C1255.2 146.7 1251.1 144.7 1248.8 151.2C1246.4 157.8 1246.4 176.8 1243.7 186.0C1241.0 195.2 1236.0 201.8 1232.6 206.2C1229.2 210.7 1225.7 211.8 1223.2 212.7C1220.8 213.7 1222.0 211.1 1218.0 211.9C1214.0 212.7 1202.4 216.6 1199.2 217.6C1196.1 218.5 1202.2 218.7 1199.2 217.6Z M1194.3 190.5C1195.5 189.2 1202.9 183.7 1201.5 182.7C1200.1 181.7 1188.4 183.2 1186.2 184.5C1184.0 185.8 1187.2 189.5 1188.5 190.5C1189.9 191.5 1193.4 190.5 1194.3 190.5C1195.3 190.5 1193.1 191.8 1194.3 190.5Z"/>
  <g id="face"><path d="M1183 138 q 11 -5 23 -2" stroke="#43291a" stroke-width="4.5" fill="none" stroke-linecap="round"/><ellipse cx="1199" cy="151" rx="5" ry="6.8" fill="#241710"/><path d="M1176 150 q -5 7 3 11" stroke="#dd8c64" stroke-width="3" fill="none" stroke-linecap="round"/><path d="M1190 176 q 11 6 22 1" stroke="#ffffff" stroke-width="3.6" fill="none" stroke-linecap="round"/></g>
</svg>
