<svg xmlns="http://www.w3.org/2000/svg" viewBox="0 0 1920 1080" width="1920" height="1080" fill-rule="evenodd">
  <g id="mower">
    <path d="M614.0 1039.1C608.7 1038.8 591.0 1041.0 582.0 1037.2C573.0 1033.4 576.7 1019.9 560.0 1016.5C543.3 1013.1 496.3 1014.7 482.0 1016.6C467.7 1018.5 478.5 1024.5 474.5 1028.0C470.5 1031.5 467.9 1035.8 458.0 1037.4C448.1 1038.9 425.9 1040.6 415.0 1037.4C404.1 1034.1 397.7 1024.6 392.6 1018.0C387.6 1011.4 385.8 1004.5 384.6 998.0C383.5 991.5 383.7 985.6 385.6 979.0C387.5 972.4 390.8 964.6 396.0 958.5C401.2 952.5 407.7 945.5 417.0 942.6C426.3 939.8 443.5 940.7 452.0 941.5C460.5 942.3 462.5 947.4 468.0 947.2C473.5 947.1 477.2 941.6 485.0 940.6C492.8 939.6 509.2 947.0 515.0 941.4C520.8 935.7 481.2 912.5 520.0 906.6C558.8 900.8 708.3 908.3 748.0 906.4C787.7 904.4 757.0 905.2 758.4 895.0C759.8 884.8 758.8 856.1 756.4 845.0C754.0 833.9 750.7 832.1 744.0 828.6C737.3 825.1 719.5 826.5 716.0 824.2C712.5 821.8 678.3 816.2 723.0 814.6C767.7 813.1 940.8 792.6 984.2 815.0C1027.6 837.4 985.2 923.2 983.4 949.0C981.6 974.8 977.9 963.8 973.4 970.0C968.8 976.2 960.7 982.8 956.0 986.2C951.3 989.6 955.0 989.9 945.0 990.5C935.0 991.1 906.7 989.4 896.0 989.6C885.3 989.8 883.8 990.5 881.0 991.6C878.2 992.7 879.6 998.4 879.0 996.1C878.4 993.8 879.0 984.1 877.4 978.0C875.7 971.9 873.7 965.1 869.0 959.5C864.3 954.0 855.5 947.3 849.0 944.6C842.5 942.0 835.0 943.0 830.0 943.6C825.0 944.3 822.9 945.7 819.0 948.6C815.1 951.5 810.0 954.9 806.6 961.0C803.2 967.1 799.7 977.8 798.5 985.0C797.3 992.2 798.4 998.5 799.6 1004.0C800.8 1009.5 803.1 1013.8 805.6 1018.0C808.2 1022.2 810.9 1026.2 815.0 1029.4C819.1 1032.6 831.3 1035.8 830.0 1037.1C828.7 1038.4 813.2 1038.2 807.0 1037.2C800.8 1036.3 797.3 1034.6 793.0 1031.4C788.7 1028.1 793.0 1020.0 781.0 1017.8C769.0 1015.5 733.7 1015.8 721.0 1017.8C708.3 1019.7 712.2 1027.4 705.0 1029.4C697.8 1031.3 686.2 1031.3 678.0 1029.4C669.8 1027.5 658.6 1024.9 655.8 1018.0C653.1 1011.1 661.2 996.0 661.5 988.0C661.8 980.0 659.1 974.7 657.4 970.0C655.7 965.3 655.4 964.1 651.4 960.0C647.3 955.9 639.4 948.4 633.0 945.6C626.6 942.9 618.3 943.1 613.0 943.6C607.7 944.1 605.4 945.4 601.0 948.6C596.6 951.8 590.2 957.3 586.6 963.0C583.1 968.7 580.8 977.0 579.6 983.0C578.4 989.0 577.8 992.3 579.5 999.0C581.2 1005.7 585.9 1017.4 590.0 1023.5C594.1 1029.5 600.0 1032.8 604.0 1035.4C608.0 1038.0 612.3 1038.5 614.0 1039.1C615.7 1039.8 619.3 1039.4 614.0 1039.1Z M623.0 1005.4C621.2 1004.9 614.6 1004.2 612.0 1002.3C609.4 1000.5 608.4 996.6 607.6 994.0C606.9 991.4 606.2 989.9 607.6 987.0C609.0 984.1 612.8 978.2 616.0 976.6C619.2 975.1 624.1 976.1 627.0 977.6C629.9 979.2 632.6 982.3 633.4 986.0C634.1 989.7 633.1 996.8 631.4 1000.0C629.7 1003.2 624.4 1004.5 623.0 1005.4C621.6 1006.3 624.8 1005.9 623.0 1005.4Z M840.0 1005.4C838.7 1005.0 834.2 1004.9 832.0 1003.4C829.8 1001.8 827.5 999.1 826.6 996.0C825.7 992.9 825.4 988.2 826.6 985.0C827.9 981.8 830.9 977.9 834.0 976.6C837.1 975.4 842.1 975.9 845.0 977.6C847.9 979.3 850.6 983.4 851.4 987.0C852.1 990.6 851.3 995.9 849.4 999.0C847.5 1002.1 841.6 1004.3 840.0 1005.4C838.4 1006.4 841.3 1005.7 840.0 1005.4Z" fill="#292828" />
    <path d="M748.0 905.4C709.3 905.4 555.7 906.4 516.0 905.5C476.3 904.6 510.5 903.9 509.6 900.0C508.7 896.1 509.1 887.1 510.5 882.0C511.9 876.9 514.1 873.4 518.0 869.5C521.9 865.6 519.8 865.8 534.0 858.6C548.2 851.5 569.7 832.1 603.0 826.6C636.3 821.1 709.8 824.4 734.0 825.5C758.2 826.6 744.5 828.4 748.3 833.0C752.2 837.6 755.9 842.8 757.4 853.0C758.9 863.2 758.9 885.3 757.4 894.0C755.8 902.7 749.6 903.5 748.0 905.4C746.4 907.3 786.7 905.4 748.0 905.4Z" fill="#c71e1a" />
    <path d="M748.0 905.4C709.3 905.4 555.7 906.4 516.0 905.5C476.3 904.6 510.5 903.9 509.6 900.0C508.7 896.1 509.1 887.1 510.5 882.0C511.9 876.9 514.1 873.4 518.0 869.5C521.9 865.6 519.8 865.8 534.0 858.6C548.2 851.5 569.7 832.1 603.0 826.6C636.3 821.1 709.8 824.4 734.0 825.5C758.2 826.6 744.5 828.4 748.3 833.0C752.2 837.6 755.9 842.8 757.4 853.0C758.9 863.2 758.9 885.3 757.4 894.0C755.8 902.7 749.6 903.5 748.0 905.4C746.4 907.3 786.7 905.4 748.0 905.4Z" fill="#000000" opacity="0"/>
  </g>
  <g id="mower-handle">
    <path d="M1066.0 504.1C1065.5 503.2 1071.5 499.9 1063.0 498.6C1054.5 497.3 1023.1 498.6 1015.0 496.4C1006.9 494.1 1013.8 487.6 1014.6 485.0C1015.5 482.4 1010.9 481.1 1020.0 480.5C1029.1 479.9 1061.3 477.7 1069.0 481.7C1076.7 485.6 1066.5 500.4 1066.0 504.1C1065.5 507.9 1066.5 505.0 1066.0 504.1Z M982.0 814.3C938.9 814.1 725.5 866.2 723.6 813.0C721.7 759.8 928.1 545.2 970.8 495.0C1013.4 444.8 991.9 491.7 979.4 512.0C966.9 532.3 909.7 598.6 895.6 617.0C881.6 635.4 875.4 621.3 895.0 622.2C914.6 623.1 979.9 639.4 1013.0 622.4C1046.1 605.3 1080.1 537.7 1093.4 520.0C1106.7 502.3 1090.6 516.8 1092.8 516.0C1095.1 515.2 1103.6 516.1 1107.0 515.4C1110.4 514.6 1112.7 513.4 1113.0 511.5C1113.3 509.6 1109.2 506.7 1108.6 504.0C1108.1 501.3 1107.6 497.4 1109.6 495.0C1111.7 492.6 1118.4 489.6 1121.0 489.6C1123.6 489.6 1125.0 492.3 1125.4 495.0C1125.8 497.7 1160.6 456.5 1123.4 506.0C1086.1 555.5 925.2 744.2 901.8 792.0C878.4 839.8 969.6 789.1 983.0 792.8C996.4 796.5 982.2 810.8 982.0 814.3C981.8 817.9 1025.1 814.6 982.0 814.3Z M755.5 810.0C761.1 807.1 768.1 795.4 789.0 792.6C809.9 789.9 846.6 818.0 881.0 793.4C915.4 768.8 976.6 670.4 995.5 645.0C1014.4 619.6 995.1 642.1 994.4 641.0C993.6 639.9 1010.1 638.9 991.0 638.5C971.9 638.1 919.2 612.4 880.0 638.6C840.8 664.9 777.4 767.9 755.6 796.0C733.9 824.1 749.5 804.7 749.5 807.0C749.5 809.3 754.5 809.5 755.5 810.0C756.5 810.5 749.9 812.9 755.5 810.0Z" fill="#282728" />
  </g>
  <g id="mower-wheels">
    <path d="M627.0 1038.4C624.5 1038.2 616.8 1038.7 612.0 1037.4C607.2 1036.0 602.6 1034.3 598.0 1030.4C593.4 1026.5 587.5 1018.9 584.6 1014.0C581.7 1009.1 581.3 1006.0 580.6 1001.0C580.0 996.0 579.8 989.7 580.6 984.0C581.5 978.3 582.4 972.6 585.6 967.0C588.8 961.4 595.3 954.3 600.0 950.6C604.7 946.9 609.7 945.6 614.0 944.6C618.3 943.6 620.9 943.1 626.0 944.6C631.1 946.2 639.9 950.6 644.5 954.0C649.0 957.4 650.9 960.3 653.4 965.0C655.9 969.7 658.4 975.8 659.4 982.0C660.4 988.2 660.5 995.5 659.4 1002.0C658.2 1008.5 655.1 1016.1 652.4 1021.0C649.7 1025.9 647.2 1028.5 643.0 1031.4C638.8 1034.3 629.7 1037.2 627.0 1038.4C624.3 1039.5 629.5 1038.5 627.0 1038.4Z M845.0 1036.4C842.2 1036.2 833.2 1036.9 828.0 1035.4C822.8 1033.9 818.2 1031.6 814.0 1027.3C809.8 1023.1 805.0 1014.9 802.6 1010.0C800.2 1005.1 800.1 1002.7 799.6 998.0C799.1 993.3 798.8 987.3 799.6 982.0C800.5 976.7 801.8 971.0 804.6 966.0C807.4 961.0 812.1 955.6 816.5 952.0C820.9 948.4 825.3 945.5 831.0 944.6C836.7 943.7 845.3 944.6 851.0 946.6C856.7 948.6 861.1 952.4 865.0 956.7C868.9 960.9 872.3 967.3 874.4 972.0C876.4 976.7 876.9 980.5 877.4 985.0C877.9 989.5 878.4 993.7 877.4 999.0C876.4 1004.3 874.1 1011.9 871.4 1017.0C868.7 1022.1 865.4 1026.2 861.0 1029.4C856.6 1032.6 847.7 1035.2 845.0 1036.4C842.3 1037.5 847.8 1036.5 845.0 1036.4Z M623.5 1006.0C625.0 1005.0 630.5 1003.2 632.4 1000.0C634.2 996.8 635.0 990.7 634.5 987.0C634.0 983.3 631.9 980.1 629.5 978.0C627.1 975.9 623.5 974.0 620.0 974.6C616.5 975.3 610.9 978.9 608.6 982.0C606.4 985.1 605.9 989.4 606.5 993.0C607.1 996.6 609.2 1001.2 612.0 1003.4C614.8 1005.5 621.6 1005.6 623.5 1006.0C625.4 1006.4 622.0 1007.0 623.5 1006.0Z M843.5 1005.0C844.8 1003.7 849.9 1000.0 851.4 997.0C852.9 994.0 853.1 990.2 852.4 987.0C851.6 983.8 850.1 979.5 847.0 977.6C843.9 975.7 837.6 974.4 834.0 975.6C830.4 976.9 827.0 981.6 825.6 985.0C824.2 988.4 824.6 992.8 825.6 996.0C826.7 999.2 829.0 1002.9 832.0 1004.4C835.0 1005.9 841.6 1004.9 843.5 1005.0C845.4 1005.1 842.2 1006.3 843.5 1005.0Z" fill="#cfd2d0" />
  </g>
  <g id="legs">
    <path d="M1191.0 895.1C1178.8 892.9 1127.6 909.9 1117.5 882.0C1107.4 854.1 1126.4 762.9 1130.5 728.0C1134.6 693.1 1135.6 680.9 1142.0 672.5C1148.4 664.1 1154.3 673.5 1169.0 677.6C1183.7 681.7 1223.1 687.1 1230.4 697.0C1237.6 706.9 1214.6 724.3 1212.6 737.0C1210.6 749.7 1217.7 763.2 1218.5 773.0C1219.3 782.8 1222.0 775.6 1217.4 796.0C1212.8 816.4 1195.4 878.6 1191.0 895.1C1186.6 911.6 1203.2 897.3 1191.0 895.1Z" fill="#f7af8a" />
    <path d="M1357.0 876.2C1352.5 871.8 1346.4 868.0 1330.0 849.5C1313.6 830.9 1272.5 784.1 1258.6 765.0C1244.7 745.9 1249.6 746.6 1246.6 735.0C1243.7 723.4 1230.8 703.4 1241.0 695.6C1251.2 687.9 1292.9 689.6 1308.0 688.5C1323.1 687.4 1327.4 684.9 1331.3 689.0C1335.3 693.1 1325.1 701.8 1331.6 713.0C1338.1 724.2 1356.3 735.8 1370.4 756.0C1384.5 776.2 1413.6 816.1 1416.3 834.0C1419.1 851.9 1394.4 857.0 1387.0 863.4C1379.6 869.8 1377.0 870.2 1372.0 872.4C1367.0 874.5 1359.5 875.6 1357.0 876.2C1354.5 876.9 1361.5 880.7 1357.0 876.2Z" fill="#f7af8a" />
  </g>
  <g id="shoes">
    <path d="M1376.0 1024.4C1374.8 1022.6 1369.9 1017.4 1368.6 1014.0C1367.4 1010.6 1368.1 1007.1 1368.6 1004.0C1369.2 1000.9 1368.4 999.7 1372.0 995.5C1375.6 991.4 1386.5 985.8 1390.4 979.0C1394.3 972.2 1394.8 961.2 1395.5 955.0C1396.2 948.8 1395.9 946.0 1394.4 942.0C1392.9 938.0 1387.2 934.8 1386.6 931.0C1386.0 927.2 1388.9 921.7 1390.6 919.0C1392.4 916.3 1394.4 915.4 1397.0 914.6C1399.6 913.9 1401.0 913.7 1406.0 914.5C1411.0 915.3 1421.5 919.5 1427.0 919.5C1432.5 919.5 1435.6 917.3 1439.0 914.4C1442.4 911.5 1446.0 907.8 1447.4 902.0C1448.7 896.2 1439.9 876.8 1447.0 879.8C1454.1 882.8 1493.6 901.6 1490.2 920.0C1486.8 938.4 1441.2 975.4 1426.5 990.0C1411.8 1004.6 1409.2 1003.3 1402.0 1007.4C1394.8 1011.5 1387.3 1011.8 1383.0 1014.6C1378.7 1017.5 1377.2 1022.8 1376.0 1024.4C1374.8 1026.0 1377.2 1026.1 1376.0 1024.4Z M1088.0 1023.4C1078.8 1022.4 1042.7 1018.6 1033.0 1017.4C1023.3 1016.1 1030.5 1017.7 1029.7 1016.0C1028.8 1014.3 1026.6 1011.7 1027.6 1007.0C1028.7 1002.3 1029.3 992.4 1036.0 987.6C1042.7 982.8 1057.8 983.1 1068.0 978.4C1078.2 973.6 1091.1 965.9 1097.4 959.0C1103.7 952.1 1102.8 942.0 1105.6 937.0C1108.5 932.0 1112.5 937.4 1114.4 929.0C1116.3 920.6 1116.5 886.9 1117.0 886.9C1117.5 886.9 1115.2 920.0 1117.6 929.0C1120.0 938.0 1129.1 935.9 1131.4 941.0C1133.6 946.1 1128.4 955.6 1131.0 959.5C1133.6 963.4 1141.8 963.7 1147.0 964.4C1152.2 965.0 1158.0 964.4 1162.0 963.4C1166.0 962.4 1168.3 961.1 1171.0 958.5C1173.7 955.9 1176.2 947.4 1178.1 948.0C1180.0 948.6 1181.8 952.2 1182.5 962.0C1183.2 971.8 1199.8 998.9 1182.4 1007.0C1165.0 1015.1 1102.9 1010.4 1078.0 1010.5C1053.1 1010.6 1041.1 1007.6 1033.0 1007.5C1024.9 1007.4 1029.3 1008.5 1029.6 1010.0C1030.0 1011.5 1028.1 1014.6 1035.0 1016.5C1041.9 1018.5 1054.0 1020.8 1071.0 1021.7C1088.0 1022.6 1134.3 1021.7 1137.1 1022.0C1140.0 1022.3 1096.2 1023.1 1088.0 1023.4C1079.8 1023.6 1097.2 1024.4 1088.0 1023.4Z" fill="#dfe2e1" />
    <path d="M1376.0 1024.4C1374.8 1022.6 1369.9 1017.4 1368.6 1014.0C1367.4 1010.6 1368.1 1007.1 1368.6 1004.0C1369.2 1000.9 1368.4 999.7 1372.0 995.5C1375.6 991.4 1386.5 985.8 1390.4 979.0C1394.3 972.2 1394.8 961.2 1395.5 955.0C1396.2 948.8 1395.9 946.0 1394.4 942.0C1392.9 938.0 1387.2 934.8 1386.6 931.0C1386.0 927.2 1387.4 921.7 1390.6 919.0C1393.9 916.3 1399.9 914.4 1406.0 914.5C1412.1 914.6 1421.5 919.5 1427.0 919.5C1432.5 919.5 1435.6 917.3 1439.0 914.4C1442.4 911.5 1446.0 907.8 1447.4 902.0C1448.7 896.2 1439.9 876.8 1447.0 879.8C1454.1 882.8 1493.6 901.6 1490.2 920.0C1486.8 938.4 1441.2 975.4 1426.5 990.0C1411.8 1004.6 1409.2 1003.3 1402.0 1007.4C1394.8 1011.5 1387.3 1011.8 1383.0 1014.6C1378.7 1017.5 1377.2 1022.8 1376.0 1024.4C1374.8 1026.0 1377.2 1026.1 1376.0 1024.4Z M1088.0 1023.4C1078.8 1022.4 1043.1 1020.1 1033.0 1017.4C1022.9 1014.6 1027.1 1012.0 1027.6 1007.0C1028.1 1002.0 1029.3 992.4 1036.0 987.6C1042.7 982.8 1057.8 983.1 1068.0 978.4C1078.2 973.6 1091.1 965.9 1097.4 959.0C1103.7 952.1 1102.8 942.0 1105.6 937.0C1108.5 932.0 1112.5 937.4 1114.4 929.0C1116.3 920.6 1116.5 886.9 1117.0 886.9C1117.5 886.9 1115.2 920.0 1117.6 929.0C1120.0 938.0 1129.1 935.9 1131.4 941.0C1133.6 946.1 1128.4 955.6 1131.0 959.5C1133.6 963.4 1141.8 963.7 1147.0 964.4C1152.2 965.0 1158.0 964.4 1162.0 963.4C1166.0 962.4 1168.3 961.1 1171.0 958.5C1173.7 955.9 1176.2 947.4 1178.1 948.0C1180.0 948.6 1181.8 952.2 1182.5 962.0C1183.2 971.8 1207.9 999.0 1182.4 1007.0C1156.9 1015.0 1054.2 1008.4 1029.6 1010.0C1005.1 1011.6 1028.1 1014.6 1035.0 1016.5C1041.9 1018.5 1054.0 1020.8 1071.0 1021.7C1088.0 1022.6 1134.3 1021.7 1137.1 1022.0C1140.0 1022.3 1096.2 1023.1 1088.0 1023.4C1079.8 1023.6 1097.2 1024.4 1088.0 1023.4Z" fill="#ffffff" opacity="0"/>
  </g>
  <g id="socks">
    <path d="M1428.0 919.4C1424.3 918.6 1412.0 915.0 1406.0 914.5C1400.0 914.0 1399.1 921.8 1392.0 916.4C1384.9 911.0 1367.6 888.8 1363.6 882.0C1359.6 875.2 1364.2 878.3 1368.0 875.6C1371.8 873.0 1380.8 870.3 1386.5 866.0C1392.1 861.7 1396.9 853.7 1402.0 849.6C1407.1 845.6 1409.6 836.6 1417.0 841.6C1424.4 846.7 1441.1 871.6 1446.4 880.0C1451.6 888.4 1448.7 887.2 1448.4 892.0C1448.0 896.8 1447.8 904.4 1444.4 909.0C1441.0 913.6 1430.7 917.6 1428.0 919.4C1425.3 921.1 1431.7 920.2 1428.0 919.4Z M1157.0 964.4C1154.2 964.2 1144.6 964.4 1140.0 963.4C1135.4 962.3 1131.1 961.7 1129.6 958.0C1128.2 954.3 1133.4 945.8 1131.4 941.0C1129.4 936.2 1119.9 938.4 1117.6 929.0C1115.4 919.6 1106.2 890.5 1118.0 884.7C1129.8 878.8 1178.5 882.8 1188.3 894.0C1198.2 905.2 1180.4 941.1 1177.4 952.0C1174.3 962.9 1173.4 957.3 1170.0 959.4C1166.6 961.4 1159.2 963.5 1157.0 964.4C1154.8 965.2 1159.8 964.5 1157.0 964.4Z M1390.0 1024.4C1388.0 1024.4 1380.2 1024.9 1378.0 1024.5C1375.8 1024.1 1375.9 1023.6 1376.8 1022.0C1377.6 1020.4 1378.8 1017.1 1383.0 1014.6C1387.2 1012.2 1394.8 1011.5 1402.0 1007.4C1409.2 1003.3 1412.2 1004.4 1426.5 990.0C1440.8 975.6 1477.1 932.4 1487.8 921.0C1498.6 909.6 1489.9 920.7 1491.0 921.5C1492.1 922.3 1494.0 923.9 1494.4 926.0C1494.8 928.1 1503.7 921.3 1493.4 934.0C1483.1 946.7 1449.7 986.9 1432.5 1002.0C1415.3 1017.1 1397.1 1020.6 1390.0 1024.4C1382.9 1028.1 1392.0 1024.4 1390.0 1024.4Z M1137.0 1021.4C1126.0 1021.4 1088.0 1022.3 1071.0 1021.5C1054.0 1020.7 1041.9 1018.1 1035.0 1016.4C1028.1 1014.6 1030.0 1012.5 1029.5 1011.0C1029.0 1009.5 1025.1 1007.6 1032.0 1007.5C1038.9 1007.4 1045.9 1010.2 1071.0 1010.5C1096.1 1010.7 1164.1 1008.1 1182.5 1009.0C1200.9 1009.9 1182.5 1014.1 1181.4 1016.0C1180.3 1017.9 1183.4 1019.5 1176.0 1020.4C1168.6 1021.3 1143.5 1021.2 1137.0 1021.4C1130.5 1021.5 1148.0 1021.4 1137.0 1021.4Z" fill="#f3f4f3" />
  </g>
  <g id="shorts">
    <path d="M1334.0 714.2C1333.5 709.7 1345.5 691.0 1331.0 687.6C1316.5 684.2 1262.2 692.5 1247.0 693.6C1231.8 694.8 1241.5 693.5 1240.0 694.6C1238.5 695.7 1240.0 700.3 1238.0 700.1C1236.0 700.0 1245.4 698.6 1228.0 693.6C1210.6 688.6 1143.8 701.8 1133.7 670.0C1123.5 638.2 1159.6 530.2 1167.0 502.8C1174.4 475.4 1150.3 505.1 1178.0 505.5C1205.7 505.9 1307.1 495.1 1333.2 505.0C1359.3 514.9 1332.8 539.0 1334.5 565.0C1336.2 591.0 1342.2 640.2 1343.5 661.0C1344.8 681.8 1344.0 684.5 1342.3 690.0C1340.7 695.5 1334.9 690.0 1333.5 694.0C1332.1 698.0 1333.9 710.8 1334.0 714.2C1334.1 717.5 1334.5 718.6 1334.0 714.2Z" fill="#262726" />
    <path d="M1138.0 658.2C1142.8 634.5 1162.3 535.7 1167.0 515.9C1171.7 496.0 1168.2 529.0 1166.2 539.0C1164.1 549.0 1156.0 563.2 1154.7 576.0C1153.4 588.8 1159.9 607.3 1158.4 616.0C1156.9 624.7 1149.0 621.0 1145.6 628.0C1142.2 635.0 1139.3 653.1 1138.0 658.2C1136.7 663.2 1133.2 681.9 1138.0 658.2Z M1222.0 667.4C1220.8 667.0 1215.8 679.7 1214.5 665.0C1213.2 650.3 1212.7 582.5 1214.0 578.9C1215.3 575.2 1221.2 628.3 1222.5 643.0C1223.8 657.7 1222.1 663.3 1222.0 667.4C1221.9 671.4 1223.2 667.8 1222.0 667.4Z" fill="#1f1f1f" opacity="0.55"/>
  </g>
  <g id="torso-shirt">
    <path d="M1165.0 447.2C1162.9 424.5 1155.3 334.0 1152.4 311.0C1149.5 288.0 1149.3 312.5 1147.6 309.0C1146.0 305.5 1143.5 295.7 1142.5 290.0C1141.5 284.3 1141.0 279.4 1141.6 275.0C1142.2 270.6 1136.6 270.9 1146.0 263.5C1155.4 256.2 1188.7 234.4 1198.0 230.8C1207.3 227.2 1200.0 239.1 1201.6 242.0C1203.3 244.9 1203.3 247.3 1208.0 248.4C1212.7 249.4 1222.9 250.4 1230.0 248.4C1237.1 246.3 1244.6 241.1 1250.5 236.0C1256.3 230.9 1254.9 218.4 1265.0 217.8C1275.1 217.3 1299.3 228.1 1311.0 232.6C1322.7 237.1 1331.1 242.6 1335.4 245.0C1339.8 247.4 1339.1 247.4 1337.0 247.2C1334.9 246.9 1327.7 243.8 1323.0 243.5C1318.3 243.2 1315.2 242.9 1309.0 245.6C1302.8 248.4 1291.4 255.1 1285.5 260.0C1279.6 264.9 1277.3 268.8 1273.6 275.0C1270.0 281.2 1265.3 289.7 1263.6 297.0C1261.9 304.3 1266.7 302.1 1263.4 319.0C1260.1 335.9 1260.4 377.1 1244.0 398.5C1227.6 419.8 1178.2 439.1 1165.0 447.2C1151.8 455.3 1167.1 469.9 1165.0 447.2Z M1326.0 504.4C1301.3 504.4 1204.3 504.8 1178.0 504.5C1151.7 504.2 1169.7 504.4 1168.0 502.5C1166.3 500.6 1154.2 498.2 1167.5 493.0C1180.8 487.8 1228.2 477.7 1248.0 471.4C1267.8 465.0 1277.2 461.4 1286.5 455.0C1295.7 448.6 1294.3 452.4 1303.4 433.0C1312.5 413.6 1334.5 351.1 1341.0 338.8C1347.5 326.4 1343.6 334.8 1342.5 359.0C1341.4 383.2 1336.2 460.0 1334.5 484.0C1332.8 508.0 1333.8 499.6 1332.3 503.0C1330.9 506.4 1327.1 504.1 1326.0 504.4C1324.9 504.6 1350.7 504.4 1326.0 504.4Z" fill="#d9d9d9" />
  </g>
  <g id="arms">
    <path d="M1019.0 517.4C1018.2 517.4 1015.7 518.5 1014.0 517.4C1012.3 516.3 1011.0 511.3 1009.0 510.6C1007.0 510.0 1006.7 513.2 1002.0 513.5C997.3 513.8 986.1 515.6 981.0 512.3C975.9 509.1 972.9 499.6 971.6 494.0C970.4 488.4 971.4 483.7 973.6 479.0C975.9 474.3 980.6 469.0 985.0 465.6C989.4 462.2 995.8 460.1 1000.0 458.6C1004.2 457.1 1004.5 456.2 1010.0 456.8C1015.5 457.4 1016.0 472.3 1033.0 462.4C1050.0 452.5 1093.8 425.9 1112.0 397.5C1130.2 369.0 1135.8 306.2 1142.0 291.7C1148.2 277.1 1147.3 309.2 1149.0 310.2C1150.7 311.3 1149.7 277.4 1152.3 298.0C1154.9 318.6 1167.0 406.8 1164.5 434.0C1161.9 461.2 1135.1 460.0 1137.0 461.2C1138.9 462.4 1158.2 451.8 1176.0 441.4C1193.8 430.9 1229.4 418.9 1244.0 398.5C1258.6 378.1 1259.6 338.6 1263.4 319.0C1267.2 299.4 1266.1 286.3 1266.9 281.0C1267.6 275.7 1265.5 290.1 1268.0 287.2C1270.5 284.3 1276.5 269.8 1282.0 263.5C1287.5 257.3 1291.3 251.9 1301.0 249.6C1310.7 247.4 1332.6 247.4 1340.3 250.0C1348.1 252.6 1345.5 257.8 1347.4 265.0C1349.2 272.2 1352.2 281.0 1351.5 293.0C1350.8 305.0 1345.4 329.2 1343.4 337.0C1341.4 344.8 1346.3 324.0 1339.6 340.0C1333.0 356.0 1311.6 414.3 1303.4 433.0C1295.2 451.7 1299.7 445.6 1290.5 452.0C1281.2 458.4 1272.2 463.8 1248.0 471.4C1223.8 479.0 1165.3 491.8 1145.0 497.6C1124.7 503.5 1129.3 507.1 1126.0 506.4C1122.7 505.6 1126.4 496.0 1125.4 493.0C1124.4 490.0 1121.9 489.2 1120.0 488.6C1118.1 488.1 1116.1 488.1 1114.0 489.6C1111.9 491.2 1107.8 494.4 1107.5 498.0C1107.2 501.6 1112.5 508.3 1112.4 511.0C1112.3 513.7 1109.2 514.2 1107.0 514.5C1104.8 514.8 1100.8 512.5 1099.0 512.6C1097.2 512.8 1100.7 515.8 1096.0 515.4C1091.3 514.9 1075.3 511.7 1070.5 510.0C1065.8 508.3 1067.8 509.9 1067.5 505.0C1067.2 500.1 1077.3 484.9 1069.0 480.6C1060.7 476.4 1027.4 478.6 1018.0 479.6C1008.6 480.7 1013.4 484.1 1012.6 487.0C1011.9 489.9 1009.1 495.0 1013.5 497.0C1018.0 499.0 1038.3 495.6 1039.2 499.0C1040.1 502.4 1022.4 514.3 1019.0 517.4C1015.6 520.4 1019.8 517.4 1019.0 517.4Z" fill="#f7b18c" />
  </g>
  <g id="head">
    <path d="M1218.0 177.4C1215.7 176.4 1209.7 172.3 1204.0 171.6C1198.3 171.0 1189.9 173.6 1184.0 173.5C1178.1 173.4 1170.5 176.7 1168.7 171.0C1166.8 165.3 1169.7 144.8 1172.6 139.0C1175.6 133.2 1184.5 137.1 1186.4 136.0C1188.3 134.9 1186.1 133.3 1184.0 132.6C1181.9 132.0 1175.2 133.9 1173.7 132.0C1172.1 130.1 1173.6 124.6 1174.6 121.0C1175.7 117.4 1170.0 111.5 1180.0 110.6C1190.0 109.8 1225.1 107.8 1234.4 116.0C1243.6 124.2 1236.3 150.9 1235.4 160.0C1234.5 169.1 1231.9 167.6 1229.0 170.5C1226.1 173.4 1219.8 176.2 1218.0 177.4C1216.2 178.5 1220.3 178.3 1218.0 177.4Z M1223.0 250.4C1221.2 250.4 1215.6 251.8 1212.0 250.4C1208.4 249.0 1204.0 245.4 1201.6 242.0C1199.2 238.6 1198.3 234.3 1197.8 230.0C1197.3 225.7 1195.3 219.1 1198.7 216.0C1202.0 212.9 1211.4 214.5 1218.0 211.4C1224.6 208.3 1233.8 201.7 1238.0 197.5C1242.2 193.2 1241.9 193.2 1243.4 186.0C1244.8 178.8 1245.5 160.2 1246.6 154.0C1247.7 147.8 1247.9 149.8 1250.0 148.6C1252.1 147.4 1256.6 145.9 1259.0 146.6C1261.4 147.4 1263.6 150.3 1264.5 153.0C1265.4 155.7 1265.5 159.3 1264.4 163.0C1263.2 166.7 1257.8 165.0 1257.6 175.0C1257.5 185.0 1265.8 211.9 1263.4 223.0C1260.9 234.1 1249.7 236.8 1243.0 241.4C1236.3 245.9 1226.3 248.9 1223.0 250.4C1219.7 251.9 1224.8 250.4 1223.0 250.4Z M1342.0 254.3C1334.0 254.3 1299.4 255.5 1293.9 254.0C1288.4 252.5 1304.1 247.4 1309.0 245.6C1313.9 243.9 1318.8 243.5 1323.0 243.5C1327.2 243.5 1330.8 243.8 1334.0 245.6C1337.2 247.4 1340.7 252.9 1342.0 254.3C1343.3 255.8 1350.0 254.4 1342.0 254.3Z" fill="#f5ac88" />
  </g>
  <g id="beard">
    <path d="M1197.0 230.2C1196.8 228.1 1198.8 220.7 1196.0 217.5C1193.2 214.4 1184.6 215.0 1180.0 211.4C1175.4 207.8 1170.6 203.1 1168.6 196.0C1166.6 188.9 1165.3 172.8 1167.9 169.0C1170.4 165.2 1178.0 173.1 1184.0 173.5C1190.0 173.9 1198.3 171.0 1204.0 171.6C1209.7 172.3 1213.4 178.0 1218.0 177.4C1222.6 176.8 1228.4 172.3 1231.4 168.0C1234.4 163.7 1233.4 154.4 1236.0 151.7C1238.6 148.9 1245.8 145.9 1247.0 151.7C1248.2 157.4 1244.8 178.4 1243.4 186.0C1241.9 193.6 1242.6 192.8 1238.4 197.0C1234.2 201.2 1224.4 208.3 1218.0 211.4C1211.6 214.5 1203.5 212.5 1200.0 215.6C1196.5 218.8 1197.5 227.7 1197.0 230.2C1196.5 232.6 1197.2 232.3 1197.0 230.2Z M998.0 641.2C978.1 641.0 878.7 640.4 878.8 640.0C879.0 639.6 979.1 638.5 999.0 638.7C1018.9 638.9 998.2 640.8 998.0 641.2C997.8 641.6 1017.9 641.4 998.0 641.2Z M564.0 843.3C570.8 840.2 579.7 828.2 605.0 824.6C630.3 821.0 697.2 821.8 716.0 821.8C734.8 821.8 715.3 824.0 718.0 824.5C720.7 825.1 750.5 824.9 732.1 825.0C713.8 825.1 636.0 822.3 608.0 825.3C580.0 828.4 571.3 840.3 564.0 843.3C556.7 846.3 557.2 846.5 564.0 843.3Z" fill="#b16a42" />
  </g>
  <g id="hair">
    <path d="M1268.0 159.4C1267.4 159.3 1265.4 160.6 1264.7 159.0C1263.9 157.4 1264.5 152.1 1263.4 150.0C1262.3 147.9 1260.4 146.6 1258.0 146.5C1255.6 146.4 1251.0 147.4 1249.0 149.5C1247.0 151.7 1248.2 157.8 1246.0 159.3C1243.8 160.9 1237.8 166.5 1235.7 159.0C1233.5 151.5 1242.1 122.7 1233.0 114.6C1223.9 106.5 1190.7 109.6 1181.0 110.5C1171.3 111.4 1177.4 121.2 1175.0 120.1C1172.6 119.0 1167.9 108.5 1166.5 104.0C1165.1 99.5 1165.4 96.7 1166.8 93.0C1168.1 89.3 1171.4 84.7 1174.7 82.0C1177.9 79.3 1182.6 77.2 1186.0 76.6C1189.4 76.0 1193.0 79.2 1195.0 78.4C1197.0 77.6 1188.7 70.6 1198.0 71.8C1207.3 73.0 1240.2 81.4 1251.0 85.6C1261.8 89.9 1259.3 94.7 1263.0 97.4C1266.7 100.1 1271.1 96.4 1273.0 101.8C1274.9 107.3 1275.3 120.4 1274.5 130.0C1273.7 139.6 1269.1 154.5 1268.0 159.4C1266.9 164.3 1268.6 159.4 1268.0 159.4Z" fill="#642506" />
    <path d="M1244.0 128.1C1242.4 128.1 1236.2 130.4 1234.7 128.0C1233.1 125.6 1231.7 120.4 1234.8 114.0C1237.8 107.6 1248.8 92.3 1253.0 89.6C1257.2 87.0 1259.7 96.1 1260.2 98.0C1260.6 99.9 1256.4 99.5 1255.8 101.0C1255.2 102.5 1255.1 106.4 1256.6 107.0C1258.2 107.6 1263.6 104.0 1265.0 104.6C1266.4 105.3 1265.7 109.2 1265.2 111.0C1264.7 112.8 1263.9 115.2 1262.0 115.2C1260.1 115.3 1256.7 111.6 1254.0 111.5C1251.3 111.4 1248.1 112.4 1246.0 114.5C1243.9 116.6 1242.0 121.7 1241.6 124.0C1241.3 126.3 1243.6 127.4 1244.0 128.1C1244.4 128.8 1245.6 128.1 1244.0 128.1Z" fill="#521e04" opacity="0.55"/>
  </g>
  <g id="face">
    <path d="M1184 137 q 11 -5 22 -2" stroke="#4a2f1d" stroke-width="4.5" fill="none" stroke-linecap="round"/>
    <ellipse cx="1198" cy="150" rx="5.2" ry="7" fill="#22150d"/>
    <path d="M1176 150 q -5 7 3 11" stroke="#e0936c" stroke-width="3.5" fill="none" stroke-linecap="round"/>
    <path d="M1189 177 q 11 7 22 1" stroke="#ffffff" stroke-width="4" fill="none" stroke-linecap="round"/>
  </g>
</svg>
