<svg xmlns="http://www.w3.org/2000/svg" viewBox="0 0 1920 1080" width="1920" height="1080" fill-rule="evenodd">
  <defs><style>#walk .f{visibility:hidden;animation:walkcyc 1.1s steps(1) infinite}@keyframes walkcyc{0%{visibility:visible}8.3333%{visibility:hidden}100%{visibility:hidden}}#walk .f:nth-child(1){animation-delay:0.0000s}#walk .f:nth-child(2){animation-delay:-0.0917s}#walk .f:nth-child(3){animation-delay:-0.1833s}#walk .f:nth-child(4){animation-delay:-0.2750s}#walk .f:nth-child(5){animation-delay:-0.3667s}#walk .f:nth-child(6){animation-delay:-0.4583s}#walk .f:nth-child(7){animation-delay:-0.5500s}#walk .f:nth-child(8){animation-delay:-0.6417s}#walk .f:nth-child(9){animation-delay:-0.7333s}#walk .f:nth-child(10){animation-delay:-0.8250s}#walk .f:nth-child(11){animation-delay:-0.9167s}#walk .f:nth-child(12){animation-delay:-1.0083s}@media(prefers-reduced-motion:reduce){#walk .f{animation:none}#walk .f:first-child{visibility:visible}}</style></defs>
  <g id="mower">
    <path d="M614.0 1039.1C608.7 1038.8 591.0 1041.0 582.0 1037.2C573.0 1033.4 576.7 1019.9 560.0 1016.5C543.3 1013.1 496.3 1014.7 482.0 1016.6C467.7 1018.5 478.5 1024.5 474.5 1028.0C470.5 1031.5 467.9 1035.8 458.0 1037.4C448.1 1038.9 425.9 1040.6 415.0 1037.4C404.1 1034.1 397.7 1024.6 392.6 1018.0C387.6 1011.4 385.8 1004.5 384.6 998.0C383.5 991.5 383.7 985.6 385.6 979.0C387.5 972.4 390.8 964.6 396.0 958.5C401.2 952.5 407.7 945.5 417.0 942.6C426.3 939.8 443.5 940.7 452.0 941.5C460.5 942.3 462.5 947.4 468.0 947.2C473.5 947.1 477.2 941.6 485.0 940.6C492.8 939.6 509.2 947.0 515.0 941.4C520.8 935.7 481.2 912.5 520.0 906.6C558.8 900.8 708.3 908.3 748.0 906.4C787.7 904.4 757.0 905.2 758.4 895.0C759.8 884.8 758.8 856.1 756.4 845.0C754.0 833.9 750.7 832.1 744.0 828.6C737.3 825.1 719.5 826.5 716.0 824.2C712.5 821.8 678.3 816.2 723.0 814.6C767.7 813.1 940.8 792.6 984.2 815.0C1027.6 837.4 985.2 923.2 983.4 949.0C981.6 974.8 977.9 963.8 973.4 970.0C968.8 976.2 960.7 982.8 956.0 986.2C951.3 989.6 955.0 989.9 945.0 990.5C935.0 991.1 906.7 989.4 896.0 989.6C885.3 989.8 883.8 990.5 881.0 991.6C878.2 992.7 879.6 998.4 879.0 996.1C878.4 993.8 879.0 984.1 877.4 978.0C875.7 971.9 873.7 965.1 869.0 959.5C864.3 954.0 855.5 947.3 849.0 944.6C842.5 942.0 835.0 943.0 830.0 943.6C825.0 944.3 822.9 945.7 819.0 948.6C815.1 951.5 810.0 954.9 806.6 961.0C803.2 967.1 799.7 977.8 798.5 985.0C797.3 992.2 798.4 998.5 799.6 1004.0C800.8 1009.5 803.1 1013.8 805.6 1018.0C808.2 1022.2 810.9 1026.2 815.0 1029.4C819.1 1032.6 831.3 1035.8 830.0 1037.1C828.7 1038.4 813.2 1038.2 807.0 1037.2C800.8 1036.3 797.3 1034.6 793.0 1031.4C788.7 1028.1 793.0 1020.0 781.0 1017.8C769.0 1015.5 733.7 1015.8 721.0 1017.8C708.3 1019.7 712.2 1027.4 705.0 1029.4C697.8 1031.3 686.2 1031.3 678.0 1029.4C669.8 1027.5 658.6 1024.9 655.8 1018.0C653.1 1011.1 661.2 996.0 661.5 988.0C661.8 980.0 659.1 974.7 657.4 970.0C655.7 965.3 655.4 964.1 651.4 960.0C647.3 955.9 639.4 948.4 633.0 945.6C626.6 942.9 618.3 943.1 613.0 943.6C607.7 944.1 605.4 945.4 601.0 948.6C596.6 951.8 590.2 957.3 586.6 963.0C583.1 968.7 580.8 977.0 579.6 983.0C578.4 989.0 577.8 992.3 579.5 999.0C581.2 1005.7 585.9 1017.4 590.0 1023.5C594.1 1029.5 600.0 1032.8 604.0 1035.4C608.0 1038.0 612.3 1038.5 614.0 1039.1C615.7 1039.8 619.3 1039.4 614.0 1039.1Z M623.0 1005.4C621.2 1004.9 614.6 1004.2 612.0 1002.3C609.4 1000.5 608.4 996.6 607.6 994.0C606.9 991.4 606.2 989.9 607.6 987.0C609.0 984.1 612.8 978.2 616.0 976.6C619.2 975.1 624.1 976.1 627.0 977.6C629.9 979.2 632.6 982.3 633.4 986.0C634.1 989.7 633.1 996.8 631.4 1000.0C629.7 1003.2 624.4 1004.5 623.0 1005.4C621.6 1006.3 624.8 1005.9 623.0 1005.4Z M840.0 1005.4C838.7 1005.0 834.2 1004.9 832.0 1003.4C829.8 1001.8 827.5 999.1 826.6 996.0C825.7 992.9 825.4 988.2 826.6 985.0C827.9 981.8 830.9 977.9 834.0 976.6C837.1 975.4 842.1 975.9 845.0 977.6C847.9 979.3 850.6 983.4 851.4 987.0C852.1 990.6 851.3 995.9 849.4 999.0C847.5 1002.1 841.6 1004.3 840.0 1005.4C838.4 1006.4 841.3 1005.7 840.0 1005.4Z" fill="#292828" />
    <path d="M748.0 905.4C709.3 905.4 555.7 906.4 516.0 905.5C476.3 904.6 510.5 903.9 509.6 900.0C508.7 896.1 509.1 887.1 510.5 882.0C511.9 876.9 514.1 873.4 518.0 869.5C521.9 865.6 519.8 865.8 534.0 858.6C548.2 851.5 569.7 832.1 603.0 826.6C636.3 821.1 709.8 824.4 734.0 825.5C758.2 826.6 744.5 828.4 748.3 833.0C752.2 837.6 755.9 842.8 757.4 853.0C758.9 863.2 758.9 885.3 757.4 894.0C755.8 902.7 749.6 903.5 748.0 905.4C746.4 907.3 786.7 905.4 748.0 905.4Z" fill="#c71e1a" />
    <path d="M748.0 905.4C709.3 905.4 555.7 906.4 516.0 905.5C476.3 904.6 510.5 903.9 509.6 900.0C508.7 896.1 509.1 887.1 510.5 882.0C511.9 876.9 514.1 873.4 518.0 869.5C521.9 865.6 519.8 865.8 534.0 858.6C548.2 851.5 569.7 832.1 603.0 826.6C636.3 821.1 709.8 824.4 734.0 825.5C758.2 826.6 744.5 828.4 748.3 833.0C752.2 837.6 755.9 842.8 757.4 853.0C758.9 863.2 758.9 885.3 757.4 894.0C755.8 902.7 749.6 903.5 748.0 905.4C746.4 907.3 786.7 905.4 748.0 905.4Z" fill="#000000" opacity="0"/>
  </g>
  <g id="mower-handle">
    <path d="M1066.0 504.1C1065.5 503.2 1071.5 499.9 1063.0 498.6C1054.5 497.3 1023.1 498.6 1015.0 496.4C1006.9 494.1 1013.8 487.6 1014.6 485.0C1015.5 482.4 1010.9 481.1 1020.0 480.5C1029.1 479.9 1061.3 477.7 1069.0 481.7C1076.7 485.6 1066.5 500.4 1066.0 504.1C1065.5 507.9 1066.5 505.0 1066.0 504.1Z M982.0 814.3C938.9 814.1 725.5 866.2 723.6 813.0C721.7 759.8 928.1 545.2 970.8 495.0C1013.4 444.8 991.9 491.7 979.4 512.0C966.9 532.3 909.7 598.6 895.6 617.0C881.6 635.4 875.4 621.3 895.0 622.2C914.6 623.1 979.9 639.4 1013.0 622.4C1046.1 605.3 1080.1 537.7 1093.4 520.0C1106.7 502.3 1090.6 516.8 1092.8 516.0C1095.1 515.2 1103.6 516.1 1107.0 515.4C1110.4 514.6 1112.7 513.4 1113.0 511.5C1113.3 509.6 1109.2 506.7 1108.6 504.0C1108.1 501.3 1107.6 497.4 1109.6 495.0C1111.7 492.6 1118.4 489.6 1121.0 489.6C1123.6 489.6 1125.0 492.3 1125.4 495.0C1125.8 497.7 1160.6 456.5 1123.4 506.0C1086.1 555.5 925.2 744.2 901.8 792.0C878.4 839.8 969.6 789.1 983.0 792.8C996.4 796.5 982.2 810.8 982.0 814.3C981.8 817.9 1025.1 814.6 982.0 814.3Z M755.5 810.0C761.1 807.1 768.1 795.4 789.0 792.6C809.9 789.9 846.6 818.0 881.0 793.4C915.4 768.8 976.6 670.4 995.5 645.0C1014.4 619.6 995.1 642.1 994.4 641.0C993.6 639.9 1010.1 638.9 991.0 638.5C971.9 638.1 919.2 612.4 880.0 638.6C840.8 664.9 777.4 767.9 755.6 796.0C733.9 824.1 749.5 804.7 749.5 807.0C749.5 809.3 754.5 809.5 755.5 810.0C756.5 810.5 749.9 812.9 755.5 810.0Z" fill="#282728" />
  </g>
  <g id="mower-wheels">
    <path d="M627.0 1038.4C624.5 1038.2 616.8 1038.7 612.0 1037.4C607.2 1036.0 602.6 1034.3 598.0 1030.4C593.4 1026.5 587.5 1018.9 584.6 1014.0C581.7 1009.1 581.3 1006.0 580.6 1001.0C580.0 996.0 579.8 989.7 580.6 984.0C581.5 978.3 582.4 972.6 585.6 967.0C588.8 961.4 595.3 954.3 600.0 950.6C604.7 946.9 609.7 945.6 614.0 944.6C618.3 943.6 620.9 943.1 626.0 944.6C631.1 946.2 639.9 950.6 644.5 954.0C649.0 957.4 650.9 960.3 653.4 965.0C655.9 969.7 658.4 975.8 659.4 982.0C660.4 988.2 660.5 995.5 659.4 1002.0C658.2 1008.5 655.1 1016.1 652.4 1021.0C649.7 1025.9 647.2 1028.5 643.0 1031.4C638.8 1034.3 629.7 1037.2 627.0 1038.4C624.3 1039.5 629.5 1038.5 627.0 1038.4Z M845.0 1036.4C842.2 1036.2 833.2 1036.9 828.0 1035.4C822.8 1033.9 818.2 1031.6 814.0 1027.3C809.8 1023.1 805.0 1014.9 802.6 1010.0C800.2 1005.1 800.1 1002.7 799.6 998.0C799.1 993.3 798.8 987.3 799.6 982.0C800.5 976.7 801.8 971.0 804.6 966.0C807.4 961.0 812.1 955.6 816.5 952.0C820.9 948.4 825.3 945.5 831.0 944.6C836.7 943.7 845.3 944.6 851.0 946.6C856.7 948.6 861.1 952.4 865.0 956.7C868.9 960.9 872.3 967.3 874.4 972.0C876.4 976.7 876.9 980.5 877.4 985.0C877.9 989.5 878.4 993.7 877.4 999.0C876.4 1004.3 874.1 1011.9 871.4 1017.0C868.7 1022.1 865.4 1026.2 861.0 1029.4C856.6 1032.6 847.7 1035.2 845.0 1036.4C842.3 1037.5 847.8 1036.5 845.0 1036.4Z M623.5 1006.0C625.0 1005.0 630.5 1003.2 632.4 1000.0C634.2 996.8 635.0 990.7 634.5 987.0C634.0 983.3 631.9 980.1 629.5 978.0C627.1 975.9 623.5 974.0 620.0 974.6C616.5 975.3 610.9 978.9 608.6 982.0C606.4 985.1 605.9 989.4 606.5 993.0C607.1 996.6 609.2 1001.2 612.0 1003.4C614.8 1005.5 621.6 1005.6 623.5 1006.0C625.4 1006.4 622.0 1007.0 623.5 1006.0Z M843.5 1005.0C844.8 1003.7 849.9 1000.0 851.4 997.0C852.9 994.0 853.1 990.2 852.4 987.0C851.6 983.8 850.1 979.5 847.0 977.6C843.9 975.7 837.6 974.4 834.0 975.6C830.4 976.9 827.0 981.6 825.6 985.0C824.2 988.4 824.6 992.8 825.6 996.0C826.7 999.2 829.0 1002.9 832.0 1004.4C835.0 1005.9 841.6 1004.9 843.5 1005.0C845.4 1005.1 842.2 1006.3 843.5 1005.0Z" fill="#cfd2d0" />
  </g>
  <g id="walk"><g class="f"><path d="M1172.0 896.2C1159.9 893.3 1107.9 907.5 1099.7 879.0C1091.4 850.5 1116.7 759.9 1122.6 725.0C1128.5 690.1 1118.4 674.8 1135.0 669.7C1151.6 664.5 1210.6 683.3 1222.2 694.0C1233.8 704.7 1207.1 720.7 1204.6 734.0C1202.2 747.3 1207.5 763.7 1207.5 774.0C1207.5 784.3 1210.3 775.6 1204.4 796.0C1198.5 816.4 1177.4 879.5 1172.0 896.2C1166.6 912.9 1184.1 899.0 1172.0 896.2Z M1363.0 885.2C1348.6 864.1 1292.5 783.4 1276.6 759.0C1260.7 734.6 1271.1 749.5 1267.6 739.0C1264.2 728.5 1257.4 703.4 1255.8 696.0C1254.2 688.6 1242.6 697.6 1258.0 694.6C1273.4 691.6 1332.9 675.3 1348.3 678.0C1363.8 680.7 1344.6 698.0 1350.6 711.0C1356.6 724.0 1371.8 733.0 1384.4 756.0C1397.0 779.0 1429.9 827.5 1426.4 849.0C1422.8 870.5 1373.6 879.1 1363.0 885.2C1352.4 891.2 1377.4 906.2 1363.0 885.2Z" fill="#f4b194" /><path d="M1066.0 1008.4C1056.8 1007.7 1020.7 1005.9 1011.0 1004.4C1001.3 1002.8 1006.3 1002.6 1007.6 999.0C1009.0 995.4 1012.6 986.4 1019.0 982.6C1025.4 978.8 1036.5 980.6 1046.0 976.4C1055.5 972.2 1069.4 964.5 1076.0 957.5C1082.6 950.4 1082.7 938.7 1085.6 934.0C1088.5 929.3 1091.3 935.5 1093.4 929.0C1095.4 922.5 1097.5 894.9 1098.0 894.9C1098.5 894.9 1094.4 921.5 1096.6 929.0C1098.9 936.5 1109.2 935.8 1111.4 940.0C1113.5 944.2 1109.2 950.9 1109.5 954.0C1109.8 957.1 1110.4 956.9 1113.0 958.5C1115.6 960.1 1121.0 962.6 1125.0 963.4C1129.0 964.2 1133.7 963.9 1137.0 963.4C1140.3 962.9 1142.0 962.6 1145.0 960.4C1148.0 958.1 1152.9 951.1 1155.0 949.8C1157.1 948.6 1156.8 943.6 1157.4 953.0C1157.9 962.4 1173.6 996.8 1158.3 1006.0C1143.1 1015.2 1081.4 1008.0 1066.0 1008.4C1050.6 1008.8 1075.2 1009.0 1066.0 1008.4Z M1356.0 1020.3C1354.3 1020.0 1347.7 1021.4 1345.7 1018.0C1343.6 1014.6 1342.6 1004.9 1343.6 1000.0C1344.7 995.1 1347.5 991.8 1352.0 988.6C1356.5 985.5 1365.9 984.6 1370.5 981.0C1375.0 977.4 1376.7 971.8 1379.4 967.0C1382.1 962.2 1386.1 956.8 1386.5 952.0C1386.9 947.2 1382.1 942.0 1381.6 938.0C1381.1 934.0 1382.6 930.6 1383.6 928.0C1384.7 925.4 1384.9 923.7 1388.0 922.7C1391.1 921.6 1397.2 919.5 1402.0 921.5C1406.8 923.5 1412.0 932.6 1417.0 934.4C1422.0 936.2 1427.4 934.4 1432.0 932.4C1436.6 930.3 1441.4 927.8 1444.4 922.0C1447.4 916.2 1443.2 892.9 1450.0 897.5C1456.8 902.2 1479.2 939.8 1485.4 950.0C1491.6 960.2 1487.9 959.1 1487.4 959.0C1486.8 958.9 1483.9 950.9 1482.0 949.6C1480.1 948.4 1491.2 941.8 1476.0 951.6C1460.8 961.4 1412.2 998.5 1391.0 1008.4C1369.8 1018.2 1356.4 1009.7 1349.0 1010.6C1341.6 1011.6 1345.5 1012.4 1346.6 1014.0C1347.8 1015.6 1354.4 1019.3 1356.0 1020.3C1357.6 1021.4 1357.7 1020.7 1356.0 1020.3Z" fill="#dfe2e1" /><path d="M1425.0 934.4C1423.3 934.2 1418.7 935.5 1415.0 933.4C1411.3 931.3 1407.5 923.5 1403.0 921.6C1398.5 919.8 1394.2 928.1 1388.0 922.3C1381.8 916.6 1359.3 898.8 1365.5 887.0C1371.7 875.2 1411.0 849.3 1425.0 851.5C1439.0 853.7 1446.6 887.8 1449.5 900.0C1452.4 912.2 1446.5 919.3 1442.4 925.0C1438.3 930.7 1427.9 932.8 1425.0 934.4C1422.1 935.9 1426.7 934.5 1425.0 934.4Z M1137.0 963.4C1135.0 963.4 1128.9 964.1 1125.0 963.4C1121.1 962.6 1116.1 960.6 1113.5 959.0C1110.9 957.4 1109.9 957.2 1109.5 954.0C1109.1 950.8 1113.5 944.0 1111.4 940.0C1109.2 936.0 1098.4 940.0 1096.7 930.0C1094.9 920.0 1088.7 885.3 1101.0 879.8C1113.3 874.3 1161.3 885.5 1170.4 897.0C1179.4 908.5 1159.6 938.4 1155.4 949.0C1151.2 959.6 1148.1 958.0 1145.0 960.4C1141.9 962.8 1138.3 962.9 1137.0 963.4C1135.7 963.9 1139.0 963.4 1137.0 963.4Z M1389.0 1020.4C1383.7 1020.4 1364.1 1021.8 1357.0 1020.4C1349.9 1019.0 1341.0 1014.0 1346.7 1012.0C1352.3 1010.0 1369.4 1018.4 1391.0 1008.4C1412.6 998.3 1460.6 961.3 1476.0 951.6C1491.4 941.9 1481.8 948.8 1483.3 950.0C1484.9 951.2 1485.7 956.8 1485.5 959.0C1485.3 961.2 1494.1 955.0 1482.0 963.4C1469.9 971.8 1428.5 999.9 1413.0 1009.4C1397.5 1018.9 1393.0 1018.5 1389.0 1020.4C1385.0 1022.2 1394.3 1020.4 1389.0 1020.4Z M1136.0 1020.4C1116.8 1019.7 1042.2 1017.8 1021.0 1016.4C999.8 1015.0 1010.8 1013.9 1008.5 1012.0C1006.3 1010.1 1000.4 1005.6 1007.5 1005.0C1014.6 1004.4 1025.9 1008.2 1051.0 1008.5C1076.1 1008.8 1140.8 1005.4 1158.3 1007.0C1175.8 1008.6 1159.7 1016.1 1156.0 1018.4C1152.3 1020.6 1139.3 1020.0 1136.0 1020.4C1132.7 1020.7 1155.2 1021.0 1136.0 1020.4Z" fill="#f3f4f3" /></g><g class="f"><path d="M1311.0 875.4C1307.3 875.4 1294.3 876.2 1289.0 875.4C1283.7 874.6 1282.2 875.0 1279.0 870.5C1275.8 865.9 1271.9 855.6 1269.6 848.0C1267.4 840.4 1267.6 830.9 1265.4 825.0C1263.1 819.1 1259.4 814.5 1256.0 812.6C1252.6 810.7 1248.7 811.7 1245.0 813.6C1241.3 815.6 1242.0 819.4 1234.0 824.4C1226.0 829.3 1204.0 839.9 1197.0 843.4C1190.0 846.8 1193.4 845.6 1192.0 845.2C1190.6 844.8 1202.0 864.5 1188.6 841.0C1175.2 817.5 1124.3 731.0 1111.6 704.0C1099.0 677.0 1108.6 692.4 1112.6 679.0C1116.7 665.6 1119.3 625.2 1136.0 623.7C1152.7 622.1 1199.8 661.3 1213.0 669.5C1226.2 677.7 1215.9 672.3 1215.3 673.0C1214.8 673.7 1211.6 672.2 1209.5 674.0C1207.4 675.8 1202.4 680.3 1202.8 684.0C1203.2 687.7 1210.0 697.6 1212.0 696.2C1214.0 694.8 1201.0 679.9 1215.0 675.7C1229.0 671.4 1282.9 664.1 1296.2 671.0C1309.4 677.9 1292.8 704.7 1294.6 717.0C1296.5 729.3 1304.2 734.7 1307.4 745.0C1310.5 755.3 1312.1 759.0 1313.5 779.0C1314.9 799.0 1315.9 848.9 1315.5 865.0C1315.1 881.1 1311.7 873.6 1311.0 875.4C1310.3 877.1 1314.7 875.4 1311.0 875.4Z" fill="#f4b194" /><path d="M1240.0 962.2C1237.7 959.3 1229.2 946.4 1226.0 944.8C1222.8 943.1 1223.9 951.1 1221.0 952.3C1218.1 953.6 1209.5 957.9 1208.8 952.0C1208.1 946.1 1214.3 922.8 1216.7 917.0C1219.0 911.2 1220.9 918.7 1223.0 917.2C1225.1 915.7 1229.0 911.3 1229.5 908.0C1230.0 904.7 1228.9 899.6 1226.0 897.6C1223.1 895.6 1213.8 898.0 1211.8 896.0C1209.8 894.0 1210.1 885.4 1214.0 885.7C1217.9 885.9 1228.7 895.7 1235.0 897.5C1241.3 899.3 1246.3 897.8 1252.0 896.4C1257.7 895.0 1265.5 893.6 1269.4 889.0C1273.3 884.4 1276.7 880.0 1275.4 869.0C1274.0 858.0 1265.9 831.4 1261.4 823.0C1256.8 814.6 1257.1 816.2 1248.0 818.8C1238.9 821.4 1215.7 833.7 1207.0 838.6C1198.3 843.5 1198.4 847.2 1196.0 848.2C1193.6 849.3 1186.4 849.0 1192.8 845.0C1199.1 841.0 1225.3 829.6 1234.0 824.4C1242.7 819.2 1241.5 815.6 1245.0 813.6C1248.5 811.6 1251.9 811.4 1255.0 812.5C1258.1 813.6 1260.5 812.6 1263.4 820.0C1266.3 827.4 1269.3 848.0 1272.5 857.0C1275.7 866.0 1276.1 870.9 1282.5 874.0C1288.9 877.1 1305.6 876.5 1311.0 875.4C1316.4 874.2 1314.4 863.6 1315.1 867.0C1315.8 870.4 1316.2 893.6 1315.3 896.0C1314.5 898.4 1312.2 884.4 1310.0 881.6C1307.8 878.9 1305.4 879.3 1302.0 879.5C1298.6 879.7 1292.1 881.8 1289.5 883.0C1287.0 884.2 1286.8 882.5 1286.6 887.0C1286.4 891.5 1289.1 903.2 1288.4 910.0C1287.6 916.8 1288.4 920.2 1282.2 928.0C1276.1 935.8 1258.5 951.3 1251.5 957.0C1244.4 962.7 1241.9 961.3 1240.0 962.2C1238.1 963.1 1242.3 965.1 1240.0 962.2Z M1228.0 1009.4C1227.1 1009.1 1223.6 1009.1 1222.7 1008.0C1221.7 1006.9 1221.3 1005.7 1222.5 1003.0C1223.7 1000.3 1225.9 995.1 1229.7 992.0C1233.4 988.9 1238.1 989.9 1245.0 984.4C1251.9 978.8 1264.8 963.2 1271.0 958.6C1277.2 954.0 1277.7 955.6 1282.0 956.6C1286.3 957.6 1290.4 964.8 1297.0 964.5C1303.6 964.2 1317.2 957.9 1321.5 955.0C1325.7 952.1 1323.7 949.8 1322.5 947.0C1321.4 944.2 1315.7 941.0 1314.6 938.0C1313.6 935.0 1314.7 927.7 1316.1 929.0C1317.6 930.3 1320.7 934.5 1323.3 946.0C1326.0 957.5 1335.4 989.4 1332.0 998.2C1328.6 1006.9 1320.3 996.8 1303.0 998.6C1285.7 1000.5 1240.5 1007.6 1228.0 1009.4C1215.5 1011.2 1228.9 1009.6 1228.0 1009.4Z M1194.0 1020.4C1192.1 1019.6 1184.1 1020.4 1182.6 1016.0C1181.1 1011.6 1183.2 996.7 1185.0 993.8C1186.8 991.0 1192.8 995.6 1193.4 999.0C1194.0 1002.4 1188.0 1010.7 1188.5 1014.0C1189.0 1017.3 1195.2 1017.9 1196.1 1019.0C1197.0 1020.1 1194.4 1020.1 1194.0 1020.4C1193.6 1020.6 1195.9 1021.1 1194.0 1020.4Z" fill="#dfe2e1" /><path d="M1241.0 897.4C1239.0 897.2 1231.3 897.5 1229.0 896.5C1226.7 895.5 1229.5 893.5 1227.0 891.6C1224.5 889.8 1219.4 892.7 1214.0 885.5C1208.6 878.2 1195.8 855.8 1194.7 848.0C1193.5 840.2 1198.1 843.5 1207.0 838.6C1215.9 833.7 1238.9 821.4 1248.0 818.8C1257.1 816.2 1256.8 814.0 1261.4 823.0C1266.0 832.0 1274.4 861.8 1275.5 873.0C1276.6 884.2 1273.7 886.3 1268.0 890.4C1262.3 894.4 1245.5 896.2 1241.0 897.4C1236.5 898.5 1243.0 897.5 1241.0 897.4Z M1220.0 1022.2C1215.8 1021.9 1200.2 1021.6 1195.0 1020.3C1189.8 1019.1 1188.9 1018.6 1188.6 1015.0C1188.4 1011.4 1193.3 1002.4 1193.4 999.0C1193.4 995.6 1190.6 994.6 1189.0 994.5C1187.4 994.4 1184.9 998.2 1184.0 998.1C1183.1 998.0 1182.7 997.4 1183.5 994.0C1184.3 990.6 1185.0 983.5 1188.6 978.0C1192.3 972.5 1201.8 965.5 1205.4 961.0C1208.9 956.5 1207.6 952.3 1210.0 950.8C1212.4 949.4 1217.5 953.4 1220.0 952.4C1222.5 951.3 1222.0 943.1 1225.0 944.6C1228.0 946.1 1233.7 959.3 1238.0 961.4C1242.3 963.5 1247.5 959.8 1251.0 957.4C1254.5 954.9 1253.9 951.4 1259.0 946.7C1264.1 941.9 1277.8 933.1 1281.5 929.0C1285.1 924.9 1280.0 923.5 1280.8 922.0C1281.6 920.5 1285.2 926.3 1286.4 920.0C1287.5 913.7 1285.0 890.7 1287.7 884.0C1290.3 877.3 1298.3 879.9 1302.0 879.5C1305.7 879.1 1307.3 876.5 1310.0 881.6C1312.7 886.7 1317.7 900.6 1318.5 910.0C1319.3 919.4 1314.0 931.8 1314.6 938.0C1315.3 944.2 1321.1 944.3 1322.4 947.0C1323.7 949.7 1326.6 951.1 1322.4 954.0C1318.1 956.9 1303.1 963.3 1297.0 964.5C1290.9 965.7 1288.5 962.7 1286.0 961.3C1283.5 960.0 1284.5 957.1 1282.0 956.6C1279.5 956.2 1277.1 954.1 1271.0 958.6C1264.9 963.2 1252.3 978.3 1245.5 984.0C1238.6 989.7 1233.8 989.5 1230.0 992.5C1226.2 995.5 1223.9 999.6 1222.6 1002.0C1221.4 1004.4 1219.4 1005.9 1222.6 1007.0C1225.9 1008.1 1223.9 1010.2 1242.0 1008.5C1260.1 1006.8 1316.1 996.7 1331.0 996.8C1345.9 996.9 1349.8 1004.8 1331.3 1009.0C1312.8 1013.2 1238.6 1020.0 1220.0 1022.2C1201.4 1024.4 1224.2 1022.5 1220.0 1022.2Z M1223.0 917.2C1222.0 917.1 1219.2 918.1 1217.0 916.3C1214.8 914.6 1210.1 910.6 1209.6 907.0C1209.1 903.4 1210.7 896.1 1214.0 894.6C1217.3 893.1 1227.2 896.9 1229.4 898.0C1231.5 899.1 1226.8 899.2 1226.8 901.0C1226.8 902.8 1230.0 906.3 1229.4 909.0C1228.7 911.7 1224.1 915.8 1223.0 917.2C1221.9 918.6 1224.0 917.4 1223.0 917.2Z" fill="#f3f4f3" /></g><g class="f"><path d="M1228.0 894.2C1226.2 893.6 1229.2 891.9 1217.0 890.5C1204.8 889.1 1164.9 913.9 1154.7 886.0C1144.4 858.1 1153.6 759.7 1155.5 723.0C1157.4 686.3 1157.9 673.5 1166.0 665.7C1174.1 657.8 1188.7 670.3 1204.0 675.6C1219.3 680.9 1247.8 695.4 1258.0 697.4C1268.2 699.4 1260.8 689.4 1265.0 687.6C1269.2 685.9 1280.4 682.9 1283.0 686.8C1285.6 690.7 1277.0 704.4 1280.6 711.0C1284.3 717.6 1297.6 720.9 1305.0 726.6C1312.4 732.4 1312.6 729.3 1325.0 745.5C1337.4 761.8 1379.2 802.6 1379.2 824.0C1379.2 845.4 1346.9 879.2 1325.0 874.2C1303.1 869.1 1264.2 790.4 1248.0 793.8C1231.8 797.1 1231.3 877.4 1228.0 894.2C1224.7 910.9 1229.8 894.8 1228.0 894.2Z" fill="#f4b194" /><path d="M1383.0 1006.3C1382.4 1006.1 1380.0 1008.2 1379.5 1005.0C1379.0 1001.8 1382.2 990.8 1380.2 987.0C1378.2 983.2 1369.6 989.7 1367.6 982.0C1365.6 974.3 1368.8 948.8 1368.4 941.0C1368.0 933.2 1367.3 936.8 1365.3 935.0C1363.3 933.2 1358.0 932.2 1356.6 930.0C1355.2 927.8 1355.8 922.1 1356.8 922.0C1357.9 921.9 1361.3 928.6 1363.0 929.2C1364.7 929.8 1365.2 925.6 1367.0 925.6C1368.8 925.6 1371.2 931.0 1374.0 929.4C1376.8 927.7 1378.5 918.8 1384.0 915.6C1389.5 912.5 1402.5 912.4 1407.0 910.4C1411.5 908.4 1408.8 905.7 1411.0 903.7C1413.2 901.6 1418.0 900.8 1420.0 898.3C1422.0 895.8 1420.2 890.8 1423.0 888.5C1425.8 886.3 1432.5 883.9 1437.0 884.8C1441.5 885.7 1448.0 890.5 1450.2 894.0C1452.4 897.5 1451.1 903.3 1450.4 906.0C1449.7 908.7 1449.6 908.8 1446.0 910.2C1442.4 911.7 1432.3 913.1 1429.0 914.6C1425.7 916.1 1427.2 918.8 1426.0 919.3C1424.8 919.9 1422.9 915.0 1421.5 918.0C1420.2 921.0 1419.8 935.2 1418.0 937.2C1416.2 939.1 1414.9 929.8 1411.0 929.8C1407.1 929.8 1397.4 932.3 1394.6 937.0C1391.9 941.7 1393.3 954.2 1394.6 958.0C1395.9 961.8 1400.4 957.3 1402.3 960.0C1404.3 962.7 1407.7 967.3 1406.4 974.0C1405.1 980.7 1398.3 994.6 1394.4 1000.0C1390.5 1005.4 1384.9 1005.3 1383.0 1006.3C1381.1 1007.4 1383.6 1006.6 1383.0 1006.3Z M1222.0 1008.2C1217.3 1006.2 1199.1 999.4 1194.0 996.3C1188.9 993.3 1193.0 991.2 1191.5 990.0C1190.0 988.8 1186.4 990.1 1185.0 989.3C1183.6 988.6 1188.1 986.5 1183.0 985.6C1177.9 984.7 1158.1 984.6 1154.5 984.0C1150.9 983.4 1160.2 983.6 1161.5 982.0C1162.7 980.4 1158.2 976.1 1162.0 974.7C1165.8 973.2 1176.8 974.9 1184.0 973.4C1191.2 971.8 1199.3 969.6 1205.0 965.4C1210.7 961.2 1215.7 952.9 1218.4 948.0C1221.0 943.1 1220.6 935.5 1221.0 935.9C1221.4 936.2 1220.0 946.0 1220.6 950.0C1221.2 954.0 1224.3 950.3 1224.5 960.0C1224.7 969.7 1222.4 1000.2 1222.0 1008.2C1221.6 1016.3 1226.7 1010.2 1222.0 1008.2Z M1116.0 1010.4C1108.5 1009.7 1078.6 1007.9 1071.0 1006.3C1063.4 1004.8 1069.8 1003.6 1070.6 1001.0C1071.5 998.4 1074.3 991.9 1076.0 990.6C1077.7 989.3 1078.2 993.4 1081.0 993.2C1083.8 993.0 1090.0 989.5 1093.0 989.5C1096.0 989.5 1097.5 993.5 1099.0 993.5C1100.5 993.5 1100.3 990.3 1102.0 989.7C1103.7 989.0 1106.8 990.5 1109.0 989.4C1111.2 988.3 1115.1 984.6 1115.2 983.0C1115.4 981.4 1109.4 981.4 1109.8 980.0C1110.3 978.6 1114.4 974.1 1118.0 974.8C1121.6 975.4 1129.0 981.4 1131.3 984.0C1133.7 986.6 1129.6 989.4 1132.0 990.4C1134.4 991.3 1143.3 988.5 1146.0 989.7C1148.7 990.8 1144.4 994.7 1148.0 997.4C1151.6 1000.1 1172.8 1003.8 1167.5 1006.0C1162.2 1008.2 1124.6 1009.6 1116.0 1010.4C1107.4 1011.1 1123.5 1011.1 1116.0 1010.4Z" fill="#dfe2e1" /><path d="M1371.0 932.1C1370.3 931.0 1368.6 926.1 1367.0 925.6C1365.4 925.1 1363.2 930.4 1361.7 929.0C1360.1 927.6 1355.6 919.8 1357.6 917.0C1359.7 914.2 1371.2 913.7 1374.0 912.4C1376.8 911.0 1377.0 909.7 1374.4 909.0C1371.8 908.3 1365.0 912.3 1358.5 908.0C1352.1 903.7 1340.0 889.3 1335.6 883.0C1331.3 876.7 1329.7 875.7 1332.5 870.0C1335.3 864.3 1344.4 855.7 1352.5 849.0C1360.6 842.3 1371.7 827.0 1381.0 829.6C1390.3 832.3 1399.5 855.9 1408.5 865.0C1417.5 874.1 1431.1 880.1 1435.2 884.0C1439.3 887.9 1435.0 887.2 1433.0 888.2C1431.0 889.1 1425.1 887.7 1423.0 889.5C1420.9 891.3 1421.9 896.9 1420.3 899.0C1418.8 901.1 1415.6 900.1 1413.5 902.0C1411.5 903.9 1412.9 908.1 1408.0 910.3C1403.1 912.6 1388.3 913.7 1384.0 915.6C1379.7 917.6 1384.5 919.3 1382.3 922.0C1380.2 924.7 1372.9 930.4 1371.0 932.1C1369.1 933.8 1371.7 933.2 1371.0 932.1Z M1137.0 1022.4C1128.7 1021.9 1097.7 1020.7 1087.0 1019.4C1076.3 1018.0 1075.7 1016.4 1073.0 1014.4C1070.3 1012.3 1064.3 1007.6 1070.7 1007.0C1077.0 1006.4 1095.1 1010.4 1111.0 1010.5C1126.9 1010.6 1158.0 1009.0 1166.0 1007.4C1174.0 1005.7 1162.1 1002.3 1159.0 1000.6C1155.9 998.9 1149.9 998.8 1147.5 997.0C1145.2 995.2 1148.8 990.9 1145.0 989.6C1141.2 988.3 1127.3 990.1 1125.0 989.3C1122.7 988.6 1131.4 986.0 1131.4 985.0C1131.4 984.0 1126.2 984.3 1125.0 983.2C1123.8 982.0 1125.2 979.2 1124.4 978.0C1123.5 976.8 1117.8 978.6 1119.8 976.0C1121.7 973.4 1131.3 965.6 1136.0 962.6C1140.7 959.6 1147.2 958.8 1148.2 958.0C1149.2 957.2 1142.9 960.0 1141.8 958.0C1140.7 956.0 1140.6 949.2 1141.5 946.0C1142.4 942.8 1144.7 940.3 1147.0 938.6C1149.3 937.0 1154.1 944.6 1155.4 936.0C1156.7 927.4 1143.7 893.9 1154.8 887.0C1165.9 880.1 1210.2 891.6 1222.0 894.6C1233.8 897.6 1225.4 899.3 1225.5 905.0C1225.6 910.7 1224.6 919.8 1222.4 929.0C1220.2 938.2 1218.7 952.6 1212.3 960.0C1206.0 967.4 1192.2 970.9 1184.0 973.4C1175.8 975.8 1166.7 973.7 1163.0 974.6C1159.3 975.6 1161.3 977.5 1161.5 979.0C1161.7 980.5 1160.3 982.3 1164.0 983.4C1167.7 984.5 1177.8 982.8 1184.0 985.7C1190.2 988.5 1194.5 996.7 1201.0 1000.4C1207.5 1004.1 1219.4 1004.9 1223.0 1007.8C1226.6 1010.8 1225.7 1015.7 1222.3 1018.0C1219.0 1020.3 1217.2 1020.8 1203.0 1021.5C1188.8 1022.2 1148.0 1022.2 1137.0 1022.4C1126.0 1022.5 1145.3 1022.9 1137.0 1022.4Z M1371.0 1028.4C1370.0 1027.1 1367.6 1022.5 1365.0 1020.6C1362.4 1018.7 1357.2 1020.3 1355.6 1017.0C1354.1 1013.7 1353.6 1006.7 1355.6 1001.0C1357.7 995.3 1363.9 985.2 1368.0 982.8C1372.1 980.5 1378.1 983.1 1380.2 987.0C1382.4 990.9 1379.2 1003.6 1381.0 1006.4C1382.8 1009.1 1388.1 1005.4 1391.0 1003.4C1393.9 1001.3 1395.8 999.6 1398.4 994.0C1401.0 988.4 1406.0 975.7 1406.5 970.0C1407.0 964.3 1403.4 961.8 1401.5 960.0C1399.5 958.2 1395.8 963.0 1394.7 959.0C1393.5 955.0 1391.9 940.9 1394.7 936.0C1397.4 931.1 1407.3 929.8 1411.0 929.5C1414.7 929.2 1415.3 936.0 1417.0 934.2C1418.7 932.4 1416.0 922.7 1421.0 918.5C1426.0 914.4 1441.8 913.3 1447.0 909.5C1452.2 905.7 1449.2 897.1 1452.0 895.8C1454.8 894.5 1462.1 898.8 1464.0 901.6C1465.9 904.5 1472.5 896.8 1463.4 913.0C1454.3 929.2 1421.8 981.3 1409.4 999.0C1397.0 1016.7 1395.4 1014.5 1389.0 1019.4C1382.6 1024.3 1374.0 1026.9 1371.0 1028.4C1368.0 1029.9 1372.0 1029.7 1371.0 1028.4Z M1101.0 993.3C1100.0 993.3 1096.5 994.0 1095.0 993.3C1093.5 992.7 1094.2 989.5 1092.0 989.5C1089.8 989.5 1084.4 993.1 1082.0 993.4C1079.6 993.6 1077.0 992.6 1077.8 991.0C1078.7 989.4 1080.7 985.3 1087.0 983.6C1093.3 982.0 1111.5 979.9 1115.3 981.0C1119.2 982.1 1112.1 988.7 1110.0 990.2C1107.9 991.6 1104.5 989.1 1103.0 989.6C1101.5 990.1 1101.3 992.7 1101.0 993.3C1100.7 994.0 1102.0 993.3 1101.0 993.3Z" fill="#f3f4f3" /></g><g class="f"><path d="M1122.0 880.1C1119.8 853.3 1107.8 756.4 1108.5 719.0C1109.2 681.6 1112.6 662.4 1126.0 655.6C1139.4 648.9 1175.4 673.1 1189.0 678.6C1202.6 684.2 1207.0 682.4 1207.4 689.0C1207.8 695.6 1192.1 706.3 1191.5 718.0C1190.9 729.7 1202.9 732.2 1203.5 759.0C1204.1 785.8 1196.6 860.0 1195.1 879.0C1193.6 898.0 1195.4 874.2 1194.5 873.0C1193.7 871.8 1201.8 871.2 1190.0 871.5C1178.2 871.8 1135.3 873.2 1124.0 874.6C1112.7 876.1 1122.3 879.2 1122.0 880.1C1121.7 881.0 1124.2 907.0 1122.0 880.1Z M1320.0 886.4C1309.1 862.8 1267.5 777.8 1254.6 745.0C1241.8 712.2 1229.5 700.7 1243.0 689.7C1256.5 678.7 1319.9 675.1 1335.3 679.0C1350.8 682.9 1332.4 702.2 1335.6 713.0C1338.8 723.8 1349.4 734.5 1354.4 744.0C1359.3 753.5 1359.5 750.0 1365.4 770.0C1371.2 790.0 1388.6 846.9 1389.5 864.0C1390.4 881.1 1382.6 868.7 1371.0 872.4C1359.4 876.1 1328.5 884.0 1320.0 886.4C1311.5 888.7 1330.9 909.9 1320.0 886.4Z" fill="#f4b194" /><path d="M1146.0 991.4C1144.9 991.3 1140.7 992.4 1139.7 991.0C1138.6 989.6 1137.4 984.4 1139.7 983.0C1141.9 981.6 1149.9 984.0 1153.0 982.4C1156.1 980.7 1158.6 974.9 1158.2 973.0C1157.8 971.1 1151.3 973.5 1150.7 971.0C1150.0 968.5 1155.6 960.5 1154.4 958.0C1153.2 955.5 1146.2 958.2 1143.5 956.0C1140.9 953.8 1139.2 947.2 1138.6 945.0C1138.0 942.8 1139.3 942.7 1140.0 942.8C1140.7 942.9 1141.8 943.6 1143.0 945.5C1144.2 947.5 1144.7 952.6 1147.0 954.4C1149.3 956.2 1152.5 956.9 1157.0 956.4C1161.5 955.9 1170.7 953.0 1174.0 951.2C1177.3 949.4 1175.4 946.5 1177.0 945.7C1178.6 944.8 1181.1 947.8 1183.5 946.0C1185.8 944.2 1189.6 942.5 1191.2 935.0C1192.8 927.5 1192.6 901.2 1193.0 900.9C1193.4 900.5 1191.7 919.6 1193.6 933.0C1195.5 946.4 1206.3 971.9 1204.4 981.0C1202.4 990.1 1189.4 986.7 1182.0 987.5C1174.6 988.3 1166.0 985.0 1160.0 985.6C1154.0 986.3 1148.3 990.4 1146.0 991.4C1143.7 992.3 1147.1 991.4 1146.0 991.4Z M1291.0 1021.1C1288.4 1020.4 1278.3 1020.9 1275.6 1017.0C1272.9 1013.1 1272.6 1001.9 1274.6 998.0C1276.7 994.1 1285.4 995.4 1288.0 993.4C1290.6 991.3 1283.6 988.7 1290.0 985.7C1296.4 982.6 1320.9 977.4 1326.4 975.0C1331.8 972.6 1322.5 972.7 1322.8 971.0C1323.2 969.3 1327.2 968.7 1328.4 965.0C1329.5 961.3 1328.5 952.5 1329.8 949.0C1331.2 945.5 1335.3 946.3 1336.4 944.0C1337.5 941.7 1337.0 936.8 1336.4 935.0C1335.8 933.2 1332.7 934.0 1332.7 933.0C1332.7 932.0 1336.2 930.5 1336.4 929.0C1336.6 927.5 1331.9 923.4 1334.0 923.8C1336.1 924.3 1344.5 927.4 1349.0 931.7C1353.5 935.9 1357.5 946.0 1361.0 949.5C1364.5 953.0 1368.2 950.9 1370.0 952.5C1371.8 954.2 1369.5 958.2 1372.0 959.4C1374.5 960.5 1382.4 960.6 1385.0 959.5C1387.6 958.4 1387.9 954.4 1387.4 953.0C1386.9 951.6 1380.0 952.8 1381.9 951.0C1383.7 949.2 1394.4 945.8 1398.5 942.0C1402.6 938.2 1405.8 932.3 1406.4 928.0C1407.0 923.7 1401.3 915.5 1402.1 916.0C1403.0 916.5 1407.4 921.1 1411.4 931.0C1415.4 940.9 1427.9 966.4 1426.0 975.3C1424.1 984.2 1408.8 982.7 1400.0 984.4C1391.2 986.1 1378.0 984.3 1373.0 985.6C1368.0 986.9 1372.5 991.6 1370.0 992.2C1367.5 992.9 1361.2 988.6 1358.0 989.6C1354.8 990.6 1353.8 996.1 1351.0 998.2C1348.2 1000.3 1344.8 1001.6 1341.0 1002.4C1337.2 1003.1 1330.7 1001.8 1328.0 1002.6C1325.3 1003.5 1326.3 1007.0 1325.0 1007.4C1323.7 1007.7 1321.5 1004.5 1320.0 1004.6C1318.5 1004.8 1322.5 1006.5 1316.0 1008.3C1309.5 1010.2 1284.9 1013.9 1280.8 1016.0C1276.6 1018.1 1289.3 1020.3 1291.0 1021.1C1292.7 1022.0 1293.6 1021.8 1291.0 1021.1Z M1053.0 1010.4C1052.9 1008.6 1051.4 1003.6 1052.6 1000.0C1053.9 996.4 1055.5 991.9 1060.5 989.0C1065.6 986.1 1074.6 987.5 1083.0 982.4C1091.4 977.2 1107.5 958.8 1111.2 958.0C1114.8 957.2 1109.9 972.7 1105.0 977.3C1100.1 982.0 1087.1 983.2 1082.0 985.6C1076.9 988.1 1074.8 989.9 1074.6 992.0C1074.5 994.1 1077.8 996.9 1081.0 998.4C1084.2 999.8 1091.5 999.3 1094.0 1000.7C1096.5 1002.0 1102.8 1004.7 1096.0 1006.3C1089.2 1008.0 1060.2 1009.7 1053.0 1010.4C1045.8 1011.0 1053.1 1012.1 1053.0 1010.4Z" fill="#dfe2e1" /><path d="M1387.0 959.3C1384.3 959.3 1373.9 960.6 1371.0 959.3C1368.1 958.1 1371.0 953.5 1369.5 952.0C1368.0 950.5 1365.2 952.5 1362.0 950.4C1358.8 948.2 1352.8 942.1 1350.5 939.0C1348.2 935.9 1350.8 934.2 1348.0 931.5C1345.2 928.8 1338.2 929.8 1333.7 923.0C1329.1 916.2 1322.5 896.8 1320.6 891.0C1318.8 885.2 1311.1 891.8 1322.5 888.0C1334.0 884.2 1375.4 861.3 1389.3 868.0C1403.3 874.7 1404.7 915.9 1406.5 928.0C1408.3 940.1 1403.3 936.6 1400.0 940.5C1396.7 944.3 1388.8 947.9 1386.6 951.0C1384.5 954.1 1386.9 958.0 1387.0 959.3C1387.1 960.7 1389.7 959.3 1387.0 959.3Z M1080.0 1022.4C1076.3 1022.2 1062.7 1023.3 1058.0 1021.4C1053.3 1019.5 1045.3 1013.7 1051.7 1011.0C1058.0 1008.3 1089.3 1006.7 1096.2 1005.0C1103.1 1003.3 1095.7 1001.7 1093.0 1000.6C1090.3 999.5 1083.0 1000.1 1080.0 998.3C1077.0 996.6 1070.7 993.6 1074.8 990.0C1079.0 986.4 1098.1 983.3 1105.0 976.5C1111.9 969.6 1114.3 956.1 1116.2 949.0C1118.2 941.9 1116.0 937.2 1116.6 934.0C1117.3 930.8 1117.7 930.8 1120.0 929.6C1122.3 928.5 1129.3 929.4 1130.2 927.0C1131.2 924.6 1126.9 923.3 1125.6 915.0C1124.4 906.7 1111.9 883.7 1122.8 877.0C1133.7 870.3 1179.1 873.3 1191.0 874.6C1202.9 876.0 1194.3 874.4 1194.2 885.0C1194.1 895.6 1192.1 927.8 1190.4 938.0C1188.7 948.2 1186.1 945.1 1184.0 946.3C1181.9 947.6 1179.7 944.8 1178.0 945.6C1176.3 946.4 1177.8 949.2 1174.0 951.2C1170.2 953.2 1158.9 954.4 1155.0 957.5C1151.1 960.7 1150.1 967.3 1150.6 970.0C1151.2 972.7 1157.7 973.0 1158.3 974.0C1159.0 975.0 1155.3 974.6 1154.6 976.0C1153.9 977.4 1156.3 981.2 1154.0 982.3C1151.7 983.5 1143.4 981.5 1141.0 982.6C1138.6 983.7 1138.8 987.5 1139.5 989.0C1140.2 990.5 1141.6 992.0 1145.0 991.4C1148.4 990.8 1153.7 986.2 1160.0 985.5C1166.3 984.8 1176.2 988.4 1183.0 987.4C1189.8 986.4 1197.1 979.7 1201.0 979.7C1204.9 979.6 1205.6 984.3 1206.4 987.0C1207.1 989.7 1206.6 993.8 1205.4 996.0C1204.2 998.2 1211.1 997.6 1199.0 1000.4C1186.9 1003.1 1147.2 1009.5 1133.0 1012.6C1118.8 1015.8 1122.8 1017.8 1114.0 1019.4C1105.2 1021.0 1085.7 1021.9 1080.0 1022.4C1074.3 1022.9 1083.7 1022.5 1080.0 1022.4Z M1323.0 1023.4C1317.8 1023.0 1299.2 1022.6 1292.0 1021.4C1284.8 1020.1 1276.0 1018.2 1279.9 1016.0C1283.7 1013.8 1308.3 1010.6 1315.0 1008.4C1321.7 1006.2 1318.5 1002.8 1320.0 1002.7C1321.5 1002.5 1323.0 1006.8 1324.0 1007.2C1325.0 1007.6 1326.2 1005.8 1326.2 1005.0C1326.2 1004.2 1321.7 1003.1 1324.0 1002.7C1326.3 1002.3 1334.8 1003.8 1340.0 1002.4C1345.2 1001.0 1352.2 996.5 1355.0 994.4C1357.8 992.2 1354.5 989.9 1357.0 989.5C1359.5 989.2 1367.3 992.9 1370.0 992.2C1372.7 991.6 1368.0 986.9 1373.0 985.6C1378.0 984.3 1391.1 986.0 1400.0 984.4C1408.9 982.8 1421.8 975.6 1426.3 976.0C1430.9 976.4 1429.4 983.9 1427.4 987.0C1425.3 990.1 1431.4 988.3 1414.0 994.4C1396.6 1000.4 1338.2 1018.5 1323.0 1023.4C1307.8 1028.2 1328.2 1023.7 1323.0 1023.4Z" fill="#f3f4f3" /></g><g class="f"><path d="M1222.0 882.2C1219.9 871.5 1223.5 842.5 1209.4 818.0C1195.2 793.5 1152.0 753.5 1137.0 735.5C1122.0 717.5 1122.7 718.6 1119.6 710.0C1116.6 701.4 1115.6 697.1 1118.6 684.0C1121.7 670.9 1132.9 640.2 1138.0 631.6C1143.1 623.1 1133.7 625.3 1149.0 632.6C1164.3 639.9 1215.2 669.4 1230.0 675.4C1244.8 681.4 1228.9 669.1 1238.0 668.5C1247.1 667.9 1277.1 664.3 1284.3 672.0C1291.6 679.7 1279.5 701.8 1281.5 715.0C1283.5 728.2 1293.9 736.3 1296.4 751.0C1298.8 765.7 1297.9 795.7 1296.2 803.0C1294.5 810.3 1289.2 796.0 1286.0 794.6C1282.8 793.2 1286.5 788.1 1277.0 794.6C1267.5 801.1 1236.7 824.8 1229.0 833.5C1221.3 842.3 1225.7 839.4 1230.6 847.0C1235.5 854.6 1259.9 873.1 1258.5 879.0C1257.1 884.9 1228.1 881.6 1222.0 882.2C1215.9 882.7 1224.1 892.9 1222.0 882.2Z" fill="#f4b194" /><path d="M1282.0 968.4C1280.9 968.3 1278.4 972.1 1275.7 968.0C1272.9 963.9 1266.8 950.7 1265.8 944.0C1264.8 937.3 1269.1 938.2 1269.5 928.0C1269.9 917.8 1271.3 890.8 1268.4 883.0C1265.4 875.2 1253.8 881.4 1251.9 881.0C1250.0 880.6 1255.9 881.4 1257.0 880.5C1258.1 879.7 1262.9 881.9 1258.4 876.0C1253.8 870.1 1234.6 852.2 1229.6 845.0C1224.7 837.8 1228.1 835.6 1228.7 833.0C1229.2 830.4 1232.5 828.3 1233.0 829.7C1233.5 831.0 1229.4 835.8 1231.6 841.0C1233.9 846.2 1241.8 855.8 1246.5 861.0C1251.2 866.2 1254.9 870.1 1260.0 872.4C1265.1 874.6 1273.2 873.3 1277.0 874.6C1280.8 876.0 1279.3 879.9 1283.0 880.4C1286.7 880.8 1293.3 880.1 1299.0 877.4C1304.7 874.6 1312.0 863.9 1317.0 863.9C1322.0 863.9 1326.1 876.0 1329.0 877.4C1331.9 878.7 1333.0 875.8 1334.4 872.0C1335.7 868.2 1333.5 855.2 1337.0 854.8C1340.5 854.5 1354.6 866.3 1355.2 870.0C1355.8 873.7 1344.6 871.3 1340.6 877.0C1336.7 882.7 1336.4 896.8 1331.4 904.0C1326.4 911.2 1318.8 909.3 1310.6 920.0C1302.4 930.7 1286.8 960.3 1282.0 968.4C1277.2 976.4 1283.1 968.4 1282.0 968.4Z M1251.0 978.3C1249.9 978.3 1245.7 980.7 1244.7 978.0C1243.6 975.3 1242.9 965.2 1244.6 962.0C1246.3 958.8 1252.9 958.0 1255.0 958.6C1257.1 959.3 1258.0 962.7 1257.4 966.0C1256.7 969.3 1252.1 976.3 1251.0 978.3C1249.9 980.4 1252.1 978.4 1251.0 978.3Z M1273.0 1004.3C1271.6 1004.1 1263.5 1005.8 1264.8 1003.0C1266.2 1000.2 1277.1 990.7 1281.0 987.7C1284.9 984.7 1286.4 986.9 1288.5 985.0C1290.6 983.1 1290.8 978.6 1293.5 976.0C1296.3 973.4 1302.4 966.5 1305.0 969.7C1307.6 972.8 1310.1 991.3 1309.1 995.0C1308.1 998.7 1301.0 991.6 1299.0 991.6C1297.0 991.7 1301.3 993.2 1297.0 995.3C1292.7 997.5 1277.0 1002.8 1273.0 1004.3C1269.0 1005.8 1274.4 1004.6 1273.0 1004.3Z M1241.0 1004.4C1239.1 1003.6 1231.5 1002.4 1229.7 1000.0C1227.8 997.6 1228.6 992.9 1229.6 990.0C1230.7 987.1 1233.6 983.9 1236.0 982.7C1238.4 981.4 1241.6 980.3 1244.0 982.7C1246.4 985.0 1248.4 993.8 1250.6 997.0C1252.8 1000.2 1258.9 1000.8 1257.3 1002.0C1255.7 1003.2 1243.7 1004.0 1241.0 1004.4C1238.3 1004.8 1242.9 1005.1 1241.0 1004.4Z" fill="#dfe2e1" /><path d="M1291.0 880.4C1289.7 880.4 1285.8 881.5 1283.0 880.4C1280.2 879.3 1277.8 875.0 1274.0 873.6C1270.2 872.3 1266.6 876.8 1260.0 872.4C1253.4 867.9 1239.5 853.1 1234.6 847.0C1229.7 840.9 1223.6 844.6 1230.6 836.0C1237.7 827.4 1267.8 802.2 1277.0 795.6C1286.2 789.1 1283.2 795.3 1286.0 796.6C1288.8 797.9 1289.9 797.1 1294.0 803.5C1298.1 809.9 1305.8 828.7 1310.6 835.0C1315.5 841.3 1318.7 838.2 1323.0 841.5C1327.3 844.8 1334.0 851.8 1336.3 855.0C1338.7 858.2 1338.4 857.3 1337.4 861.0C1336.3 864.7 1333.4 876.7 1330.0 877.3C1326.6 878.0 1323.5 864.3 1317.0 864.8C1310.5 865.3 1295.3 877.8 1291.0 880.4C1286.7 883.0 1292.3 880.4 1291.0 880.4Z M1207.0 1022.4C1199.2 1021.7 1168.6 1019.6 1160.0 1018.4C1151.4 1017.1 1156.5 1017.4 1155.6 1015.0C1154.7 1012.6 1153.3 1008.7 1154.5 1004.0C1155.7 999.3 1156.9 990.7 1163.0 986.6C1169.1 982.5 1181.8 984.2 1191.0 979.4C1200.2 974.6 1213.3 964.7 1218.4 958.0C1223.5 951.3 1220.1 943.3 1221.6 939.0C1223.1 934.7 1227.3 941.4 1227.5 932.0C1227.7 922.6 1216.2 890.8 1223.0 882.7C1229.8 874.5 1260.6 875.4 1268.4 883.0C1276.1 890.6 1269.8 917.8 1269.5 928.0C1269.2 938.2 1265.6 937.5 1266.6 944.0C1267.6 950.5 1273.2 962.9 1275.6 967.0C1278.0 971.1 1279.2 968.8 1281.0 968.5C1282.8 968.2 1281.4 973.2 1286.4 965.0C1291.3 956.8 1303.2 929.2 1310.7 919.0C1318.2 908.8 1326.3 911.1 1331.4 904.0C1336.4 896.9 1337.4 882.3 1341.0 876.5C1344.6 870.8 1349.2 869.6 1353.0 869.6C1356.8 869.6 1362.1 874.0 1364.0 876.5C1365.9 879.1 1368.8 877.9 1364.4 885.0C1360.0 892.1 1347.5 905.0 1337.6 919.0C1327.8 933.0 1312.7 959.5 1305.4 969.0C1298.0 978.5 1296.3 973.3 1293.5 976.0C1290.7 978.7 1293.1 980.7 1288.5 985.0C1283.8 989.3 1268.4 998.8 1265.8 1002.0C1263.2 1005.2 1267.5 1006.1 1273.0 1004.4C1278.5 1002.6 1293.2 993.6 1299.0 991.6C1304.8 989.7 1306.3 990.8 1308.0 992.7C1309.7 994.5 1310.7 999.7 1309.3 1003.0C1308.0 1006.3 1317.1 1009.1 1300.0 1012.3C1282.9 1015.6 1222.5 1020.7 1207.0 1022.4C1191.5 1024.1 1214.8 1023.0 1207.0 1022.4Z M1250.5 978.0C1251.6 975.8 1256.6 968.2 1257.4 965.0C1258.1 961.8 1257.1 959.1 1255.0 958.6C1252.9 958.1 1246.4 958.9 1244.6 962.0C1242.9 965.1 1243.6 974.3 1244.6 977.0C1245.6 979.7 1249.5 977.8 1250.5 978.0C1251.4 978.2 1249.3 980.2 1250.5 978.0Z M1241.5 1004.0C1244.0 1003.7 1254.7 1003.0 1256.2 1002.0C1257.7 1001.0 1252.0 1000.6 1250.7 998.0C1249.3 995.4 1250.3 989.1 1248.0 986.5C1245.7 984.0 1240.1 981.9 1237.0 982.6C1233.9 983.4 1230.9 988.3 1229.6 991.0C1228.4 993.7 1228.7 996.8 1229.6 999.0C1230.5 1001.2 1233.0 1003.5 1235.0 1004.4C1237.0 1005.2 1240.4 1004.1 1241.5 1004.0C1242.6 1003.9 1239.0 1004.3 1241.5 1004.0Z" fill="#f3f4f3" /></g><g class="f"><path d="M1205.0 890.2C1192.8 889.0 1143.4 908.7 1131.7 883.0C1119.9 857.3 1132.6 771.2 1134.5 736.0C1136.4 700.8 1137.4 681.9 1143.0 671.7C1148.6 661.4 1156.7 672.1 1168.0 674.6C1179.3 677.1 1188.3 683.8 1211.0 686.5C1233.7 689.2 1288.4 685.9 1304.0 690.7C1319.6 695.4 1298.2 704.1 1304.6 715.0C1311.0 725.9 1328.4 737.2 1342.4 756.0C1356.3 774.8 1388.2 809.3 1388.3 828.0C1388.4 846.7 1352.9 860.8 1343.0 868.4C1333.1 875.9 1348.2 890.5 1329.0 873.2C1309.8 856.0 1245.4 776.0 1228.0 764.8C1210.6 753.6 1228.2 785.1 1224.4 806.0C1220.5 826.9 1208.2 876.1 1205.0 890.2C1201.8 904.2 1217.2 891.4 1205.0 890.2Z" fill="#f4b194" /><path d="M1407.0 982.3C1405.6 982.0 1398.8 984.2 1398.5 980.0C1398.3 975.8 1404.9 964.0 1405.5 957.0C1406.1 950.0 1404.4 941.7 1402.4 938.0C1400.4 934.3 1396.7 937.8 1393.6 935.0C1390.5 932.2 1385.3 924.7 1383.6 921.0C1382.0 917.3 1382.9 914.4 1383.7 913.0C1384.4 911.6 1387.5 912.0 1388.0 912.7C1388.5 913.3 1386.0 916.0 1386.6 917.0C1387.3 918.0 1387.1 919.6 1392.0 918.5C1396.9 917.4 1408.5 911.3 1416.0 910.6C1423.5 910.0 1433.0 914.7 1437.0 914.5C1441.0 914.3 1438.5 910.5 1440.0 909.7C1441.5 908.8 1444.6 908.4 1446.0 909.7C1447.4 910.9 1449.8 913.6 1448.4 917.0C1447.0 920.4 1440.5 924.5 1437.6 930.0C1434.8 935.5 1434.8 944.7 1431.3 950.0C1427.8 955.3 1418.9 959.2 1416.6 962.0C1414.3 964.8 1419.0 963.6 1417.4 967.0C1415.8 970.4 1408.7 979.8 1407.0 982.3C1405.3 984.9 1408.4 982.7 1407.0 982.3Z M1062.0 1008.4C1059.8 1008.3 1050.9 1010.2 1048.8 1008.0C1046.8 1005.8 1047.6 997.8 1049.7 995.0C1051.7 992.2 1058.6 993.3 1061.0 991.4C1063.4 989.5 1060.7 985.3 1064.0 983.7C1067.3 982.0 1076.0 982.9 1081.0 981.4C1086.0 979.9 1091.5 975.3 1094.0 974.8C1096.5 974.3 1095.2 978.8 1096.0 978.3C1096.8 977.8 1095.6 975.2 1098.8 972.0C1102.0 968.8 1112.2 963.0 1115.4 959.0C1118.6 955.0 1116.3 949.5 1118.0 947.8C1119.7 946.2 1122.8 946.4 1125.3 949.0C1127.8 951.6 1130.1 960.9 1133.0 963.4C1135.9 965.8 1141.0 963.0 1143.0 963.7C1145.0 964.3 1144.3 967.2 1145.0 967.2C1145.7 967.3 1146.8 962.0 1147.1 964.0C1147.5 966.0 1155.5 976.8 1147.0 979.3C1138.5 981.9 1105.5 979.0 1096.0 979.5C1086.5 980.1 1091.1 981.1 1090.0 982.5C1088.9 983.9 1091.0 985.5 1089.4 988.0C1087.7 990.5 1083.9 994.9 1080.0 997.3C1076.1 999.8 1069.0 1000.8 1066.0 1002.6C1063.0 1004.5 1062.7 1007.4 1062.0 1008.4C1061.3 1009.3 1064.2 1008.4 1062.0 1008.4Z M1199.0 1005.3C1195.9 1004.6 1183.7 1002.3 1180.7 1001.0C1177.7 999.7 1179.7 998.5 1181.0 997.7C1182.3 996.8 1187.0 998.5 1188.4 996.0C1189.7 993.5 1188.6 983.7 1189.0 982.6C1189.4 981.5 1189.6 988.5 1191.0 989.4C1192.4 990.3 1196.7 989.3 1197.2 988.0C1197.7 986.7 1195.9 983.0 1194.0 981.6C1192.1 980.3 1187.3 982.3 1185.7 980.0C1184.0 977.7 1185.3 970.2 1184.4 968.0C1183.4 965.8 1178.5 967.8 1179.8 967.0C1181.2 966.2 1189.4 965.5 1192.5 963.0C1195.5 960.5 1196.7 951.4 1198.0 951.9C1199.3 952.4 1200.3 957.1 1200.5 966.0C1200.7 974.9 1199.2 998.8 1199.0 1005.3C1198.8 1011.9 1202.1 1006.1 1199.0 1005.3Z" fill="#dfe2e1" /><path d="M1374.0 1027.4C1372.8 1027.2 1369.4 1028.2 1367.0 1026.3C1364.6 1024.5 1359.0 1018.2 1359.6 1016.0C1360.3 1013.8 1368.4 1014.5 1371.0 1013.4C1373.6 1012.2 1377.3 1010.9 1375.4 1009.0C1373.5 1007.1 1359.7 1006.8 1359.7 1002.0C1359.7 997.2 1372.6 989.5 1375.4 980.0C1378.2 970.5 1378.3 953.2 1376.4 945.0C1374.4 936.8 1365.5 935.3 1363.6 931.0C1361.7 926.7 1363.4 922.2 1364.8 919.0C1366.3 915.8 1372.6 913.8 1372.4 912.0C1372.2 910.2 1369.3 913.3 1363.5 908.0C1357.7 902.7 1336.0 891.0 1337.5 880.0C1339.0 869.0 1363.9 849.7 1372.5 842.0C1381.1 834.3 1380.4 827.6 1389.0 833.5C1397.6 839.4 1416.5 870.0 1424.0 877.5C1431.5 885.0 1426.7 874.3 1434.0 878.6C1441.3 883.0 1461.6 897.9 1468.0 903.6C1474.4 909.3 1480.9 896.9 1472.2 913.0C1463.6 929.1 1430.4 981.9 1416.0 1000.5C1401.6 1019.0 1393.0 1019.9 1386.0 1024.4C1379.0 1028.9 1376.0 1026.9 1374.0 1027.4C1372.0 1027.9 1375.2 1027.6 1374.0 1027.4Z M1097.0 1023.4C1089.7 1022.5 1061.1 1019.6 1053.0 1018.4C1044.9 1017.1 1049.6 1017.7 1048.7 1016.0C1047.7 1014.3 1045.3 1009.3 1047.5 1008.0C1049.7 1006.7 1059.1 1009.3 1062.0 1008.4C1064.9 1007.5 1062.8 1003.8 1065.0 1002.7C1067.2 1001.5 1070.9 1003.8 1075.0 1001.4C1079.1 998.9 1086.9 991.6 1089.4 988.0C1091.9 984.4 1089.4 980.8 1090.0 979.8C1090.6 978.9 1092.0 982.4 1093.0 982.4C1094.0 982.3 1086.9 980.2 1096.0 979.5C1105.1 978.8 1138.9 979.8 1147.4 978.0C1155.9 976.2 1147.9 970.9 1147.0 968.5C1146.1 966.1 1144.5 964.5 1142.0 963.6C1139.5 962.8 1134.8 965.7 1132.0 963.3C1129.2 961.0 1127.2 952.1 1125.0 949.5C1122.8 947.0 1118.9 950.1 1118.7 948.0C1118.4 945.9 1121.1 939.2 1123.5 937.0C1126.0 934.8 1132.0 943.7 1133.4 935.0C1134.8 926.3 1120.5 892.4 1131.8 885.0C1143.1 877.6 1189.1 888.3 1201.0 890.6C1212.9 893.0 1204.4 890.1 1203.5 899.0C1202.6 907.9 1196.5 934.5 1195.5 944.0C1194.5 953.5 1197.8 952.8 1197.4 956.0C1197.0 959.2 1195.4 961.7 1193.0 963.3C1190.6 965.0 1184.0 963.4 1182.8 966.0C1181.6 968.6 1184.5 976.5 1185.6 979.0C1186.7 981.5 1188.9 978.2 1189.3 981.0C1189.8 983.8 1190.0 993.0 1188.5 996.0C1187.0 999.0 1180.0 998.2 1180.6 999.0C1181.2 999.8 1189.4 999.8 1192.0 1000.8C1194.6 1001.9 1194.7 1005.0 1196.0 1005.4C1197.3 1005.7 1199.4 1001.1 1200.0 1002.9C1200.6 1004.7 1202.2 1013.1 1199.4 1016.0C1196.5 1018.9 1200.1 1019.3 1183.0 1020.5C1165.9 1021.7 1111.3 1022.9 1097.0 1023.4C1082.7 1023.9 1104.3 1024.2 1097.0 1023.4Z M1406.5 982.0C1408.0 979.8 1413.7 972.7 1415.4 969.0C1417.1 965.3 1414.0 963.5 1416.8 960.0C1419.7 956.5 1428.9 953.7 1432.4 948.0C1435.9 942.3 1436.1 929.4 1437.7 926.0C1439.3 922.6 1440.2 929.0 1442.0 927.5C1443.8 926.0 1447.9 920.0 1448.4 917.0C1448.9 914.0 1446.2 910.9 1445.0 909.6C1443.8 908.4 1442.2 908.8 1441.0 909.6C1439.8 910.4 1442.2 914.3 1438.0 914.5C1433.8 914.7 1423.5 910.0 1416.0 910.6C1408.5 911.3 1397.8 917.2 1393.0 918.5C1388.2 919.8 1388.1 919.3 1387.0 918.3C1385.9 917.4 1387.0 913.7 1386.5 913.0C1385.9 912.3 1384.1 912.7 1383.6 914.0C1383.1 915.3 1382.5 919.0 1383.6 921.0C1384.7 923.0 1388.6 923.6 1390.3 926.0C1392.1 928.4 1392.0 933.7 1394.0 935.5C1396.0 937.3 1400.4 933.3 1402.3 937.0C1404.3 940.7 1406.1 951.0 1405.5 958.0C1404.9 965.0 1398.3 975.0 1398.5 979.0C1398.7 983.0 1405.1 981.5 1406.5 982.0C1407.8 982.5 1405.0 984.2 1406.5 982.0Z" fill="#f3f4f3" /></g><g class="f"><path d="M1196.0 890.1C1195.7 889.0 1197.7 884.4 1194.0 883.6C1190.3 882.9 1185.7 886.4 1174.0 885.5C1162.3 884.6 1131.0 905.1 1123.6 878.0C1116.2 850.9 1125.3 759.5 1129.5 723.0C1133.7 686.5 1139.0 667.6 1148.6 659.0C1158.2 650.4 1172.6 665.5 1187.0 671.6C1201.4 677.7 1226.0 691.5 1235.0 695.5C1244.0 699.5 1238.3 697.0 1241.0 695.4C1243.7 693.7 1238.3 689.6 1251.0 685.6C1263.7 681.7 1305.6 667.4 1317.0 671.7C1328.4 675.9 1314.6 696.9 1319.6 711.0C1324.7 725.1 1338.5 730.3 1347.4 756.0C1356.3 781.7 1369.2 847.2 1373.1 865.0C1377.1 882.8 1383.1 859.3 1371.0 862.8C1358.9 866.3 1319.1 900.0 1300.8 886.0C1282.5 872.0 1270.9 803.3 1261.4 779.0C1251.8 754.7 1248.5 753.9 1243.6 740.0C1238.7 726.1 1237.0 698.4 1232.0 695.8C1227.0 693.1 1216.0 715.1 1213.6 724.0C1211.2 732.9 1216.9 738.8 1217.5 749.0C1218.1 759.2 1221.1 761.5 1217.5 785.0C1213.9 808.5 1199.6 872.6 1196.0 890.1C1192.4 907.6 1196.3 891.2 1196.0 890.1Z" fill="#f4b194" /><path d="M1037.0 1009.1C1036.8 1007.3 1034.1 1002.6 1035.6 998.0C1037.1 993.4 1039.8 985.1 1046.0 981.6C1052.2 978.2 1063.3 981.8 1073.0 977.4C1082.7 972.9 1098.4 961.7 1104.4 955.0C1110.3 948.3 1105.6 941.8 1108.7 937.0C1111.7 932.2 1120.1 933.5 1122.5 926.0C1124.9 918.5 1122.2 892.9 1123.0 891.9C1123.8 890.9 1127.9 912.1 1127.5 920.0C1127.1 927.9 1119.5 933.7 1120.6 939.0C1121.8 944.3 1131.3 947.8 1134.4 952.0C1137.5 956.2 1139.7 960.8 1139.3 964.0C1139.0 967.2 1134.7 970.4 1132.0 971.2C1129.3 971.9 1126.7 968.6 1123.0 968.5C1119.3 968.4 1112.7 969.9 1110.0 970.6C1107.3 971.4 1106.9 971.6 1106.8 973.0C1106.7 974.4 1110.3 977.9 1109.3 979.0C1108.4 980.1 1102.4 978.6 1101.0 979.6C1099.6 980.7 1104.8 984.2 1101.0 985.3C1097.2 986.5 1083.8 984.8 1078.0 986.6C1072.2 988.5 1072.3 993.4 1066.0 996.4C1059.7 999.4 1044.8 1002.5 1040.0 1004.6C1035.2 1006.7 1037.5 1008.4 1037.0 1009.1C1036.5 1009.9 1037.2 1011.0 1037.0 1009.1Z M1400.0 979.4C1397.9 978.8 1388.2 979.9 1387.7 976.0C1387.1 972.1 1397.2 961.3 1396.5 956.0C1395.8 950.7 1385.3 947.0 1383.6 944.0C1382.0 941.0 1386.3 942.7 1386.5 938.0C1386.7 933.3 1383.4 916.9 1385.0 915.9C1386.6 914.9 1392.5 922.3 1396.4 932.0C1400.3 941.7 1407.8 966.1 1408.4 974.0C1409.0 981.9 1401.4 978.5 1400.0 979.4C1398.6 980.3 1402.1 979.9 1400.0 979.4Z M1308.0 1008.3C1306.4 1008.0 1299.7 1007.9 1298.6 1006.0C1297.5 1004.1 1301.9 1000.3 1301.4 997.0C1300.9 993.7 1293.6 991.3 1295.6 986.0C1297.6 980.7 1309.9 973.0 1313.4 965.0C1316.9 957.0 1314.2 942.5 1316.8 938.0C1319.4 933.5 1325.6 936.9 1329.0 937.8C1332.4 938.6 1335.3 940.0 1337.3 943.0C1339.4 946.0 1340.9 953.5 1341.2 956.0C1341.4 958.5 1338.1 955.8 1338.8 958.0C1339.5 960.2 1346.0 966.1 1345.4 969.0C1344.7 971.9 1337.8 972.5 1335.0 975.5C1332.2 978.5 1329.6 983.1 1328.6 987.0C1327.7 990.9 1332.8 995.4 1329.3 999.0C1325.9 1002.6 1311.6 1006.8 1308.0 1008.3C1304.4 1009.9 1309.6 1008.7 1308.0 1008.3Z M1188.0 1001.1C1187.3 996.1 1184.0 981.0 1183.5 971.0C1183.0 961.0 1183.7 943.2 1185.0 940.9C1186.3 938.5 1191.0 947.0 1191.5 957.0C1192.0 967.0 1188.6 993.8 1188.0 1001.1C1187.4 1008.5 1188.7 1006.1 1188.0 1001.1Z" fill="#dfe2e1" /><path d="M1307.0 1023.4C1299.7 1022.9 1271.2 1022.3 1263.0 1020.4C1254.8 1018.5 1258.4 1015.1 1257.5 1012.0C1256.6 1008.9 1256.4 1005.7 1257.6 1002.0C1258.8 998.3 1258.4 993.8 1264.7 990.0C1270.9 986.2 1287.0 985.0 1295.0 979.5C1303.0 974.0 1309.3 964.4 1312.4 957.0C1315.5 949.6 1311.6 939.0 1313.6 935.0C1315.6 931.0 1324.6 936.8 1324.2 933.0C1323.9 929.2 1315.1 919.0 1311.6 912.0C1308.2 905.0 1304.8 895.3 1303.6 891.0C1302.5 886.7 1295.4 889.7 1304.7 886.0C1313.9 882.3 1347.8 871.4 1359.0 868.6C1370.2 865.9 1367.8 861.7 1372.0 869.6C1376.2 877.5 1382.0 904.4 1384.4 916.0C1386.8 927.6 1386.6 934.3 1386.5 939.0C1386.4 943.7 1382.0 941.3 1383.6 944.0C1385.3 946.7 1394.6 951.2 1396.4 955.0C1398.2 958.8 1395.8 963.7 1394.4 967.0C1392.9 970.3 1386.8 972.9 1387.8 975.0C1388.7 977.1 1396.8 979.4 1400.0 979.4C1403.2 979.3 1405.3 973.4 1407.0 974.8C1408.7 976.3 1410.7 984.9 1410.4 988.0C1410.0 991.1 1422.2 987.5 1405.0 993.4C1387.8 999.3 1323.3 1018.4 1307.0 1023.4C1290.7 1028.4 1314.3 1023.9 1307.0 1023.4Z M1091.0 1021.4C1085.5 1020.7 1066.3 1018.9 1058.0 1017.4C1049.7 1015.9 1044.4 1014.1 1041.0 1012.3C1037.6 1010.6 1033.5 1009.7 1037.6 1007.0C1041.8 1004.3 1059.3 999.8 1066.0 996.4C1072.7 993.0 1072.3 988.5 1078.0 986.6C1083.7 984.8 1096.2 986.5 1100.0 985.4C1103.8 984.2 1099.4 980.9 1101.0 979.6C1102.6 978.4 1108.6 978.9 1109.4 978.0C1110.2 977.1 1106.1 975.1 1105.8 974.0C1105.6 972.9 1106.0 972.5 1108.0 971.6C1110.0 970.7 1114.2 968.7 1118.0 968.5C1121.8 968.3 1127.4 971.1 1131.0 970.2C1134.6 969.3 1138.9 966.1 1139.4 963.0C1139.9 959.9 1137.1 955.4 1134.0 951.5C1130.9 947.7 1121.7 945.4 1120.7 940.0C1119.6 934.6 1127.0 928.5 1127.5 919.0C1128.0 909.5 1124.1 888.1 1123.9 883.0C1123.6 877.9 1124.1 888.3 1126.0 888.2C1127.9 888.1 1123.8 882.8 1135.0 882.5C1146.2 882.2 1183.1 884.9 1193.0 886.6C1202.9 888.4 1196.0 882.6 1194.4 893.0C1192.8 903.4 1184.7 929.0 1183.5 949.0C1182.3 969.0 1202.8 1000.9 1187.3 1013.0C1171.9 1025.1 1107.1 1020.0 1091.0 1021.4C1074.9 1022.8 1096.5 1022.0 1091.0 1021.4Z M1307.5 1008.0C1311.1 1006.4 1325.5 1002.0 1329.0 998.5C1332.5 995.0 1327.7 989.9 1328.6 987.0C1329.5 984.1 1333.4 983.0 1334.4 981.0C1335.4 979.0 1332.8 977.0 1334.7 975.0C1336.5 973.0 1344.6 971.7 1345.2 969.0C1345.9 966.3 1339.4 961.7 1338.7 959.0C1337.9 956.3 1340.7 955.5 1340.5 953.0C1340.3 950.5 1339.6 946.6 1337.4 944.0C1335.1 941.4 1330.4 938.6 1327.0 937.6C1323.6 936.6 1319.1 933.3 1316.8 938.0C1314.5 942.7 1316.9 958.0 1313.3 966.0C1309.8 974.0 1297.6 980.8 1295.6 986.0C1293.6 991.2 1300.9 993.7 1301.4 997.0C1301.9 1000.3 1297.8 1004.2 1298.8 1006.0C1299.8 1007.8 1306.0 1007.7 1307.5 1008.0C1308.9 1008.3 1303.9 1009.6 1307.5 1008.0Z" fill="#f3f4f3" /></g><g class="f"><path d="M1159.0 854.2C1147.8 829.0 1102.5 732.2 1091.6 703.0C1080.7 673.8 1090.7 691.2 1093.6 679.0C1096.5 666.8 1103.3 637.1 1109.0 629.8C1114.7 622.6 1114.8 629.1 1128.0 635.6C1141.2 642.1 1180.3 660.6 1188.2 669.0C1196.2 677.4 1175.6 680.8 1175.6 686.0C1175.6 691.2 1184.3 693.8 1188.4 700.0C1192.5 706.2 1194.2 702.5 1200.4 723.0C1206.5 743.5 1226.8 803.6 1225.4 823.0C1224.0 842.4 1202.2 835.3 1192.0 839.4C1181.8 843.5 1169.5 845.2 1164.0 847.6C1158.5 850.1 1159.8 853.1 1159.0 854.2C1158.2 855.3 1170.2 879.4 1159.0 854.2Z M1264.0 889.1C1260.6 874.4 1250.3 827.0 1243.4 801.0C1236.5 775.0 1227.2 753.2 1222.6 733.0C1218.0 712.8 1215.9 689.4 1215.6 680.0C1215.4 670.6 1205.9 677.2 1221.0 676.6C1236.1 676.1 1291.9 670.8 1306.0 676.7C1320.1 682.5 1301.9 696.3 1305.6 712.0C1309.4 727.7 1323.1 744.8 1328.4 771.0C1333.6 797.2 1339.4 851.4 1337.2 869.0C1335.0 886.6 1326.4 874.1 1315.0 876.4C1303.6 878.6 1277.5 880.5 1269.0 882.6C1260.5 884.7 1264.8 888.0 1264.0 889.1C1263.2 890.2 1267.4 903.8 1264.0 889.1Z" fill="#f4b194" /><path d="M1164.0 860.3C1163.3 859.5 1159.6 857.1 1159.6 855.0C1159.6 852.9 1158.6 850.2 1164.0 847.6C1169.4 845.0 1182.5 843.5 1192.0 839.5C1201.5 835.5 1215.4 825.9 1221.0 823.7C1226.6 821.4 1224.4 824.7 1225.4 826.0C1226.4 827.3 1227.7 830.7 1227.0 831.2C1226.3 831.6 1231.0 825.4 1221.0 828.6C1211.0 831.9 1176.5 845.3 1167.0 850.6C1157.5 855.9 1164.5 858.7 1164.0 860.3C1163.5 862.0 1164.7 861.2 1164.0 860.3Z M1251.0 945.4C1249.2 945.0 1244.6 946.9 1240.0 943.4C1235.4 939.8 1224.2 928.8 1223.7 924.0C1223.2 919.2 1233.9 915.9 1237.0 914.6C1240.1 913.4 1238.9 918.2 1242.0 916.5C1245.1 914.7 1253.0 907.4 1255.4 904.0C1257.7 900.6 1253.5 892.9 1256.0 895.9C1258.5 898.9 1267.0 916.6 1270.6 922.0C1274.2 927.4 1278.1 927.2 1277.5 928.0C1276.9 928.8 1270.4 924.2 1267.0 926.6C1263.6 929.0 1259.7 939.3 1257.0 942.5C1254.3 945.6 1252.0 944.9 1251.0 945.4C1250.0 945.9 1252.8 945.7 1251.0 945.4Z M1140.0 1009.1C1139.1 1007.4 1135.4 1002.5 1134.6 999.0C1133.9 995.5 1131.1 993.4 1135.6 988.0C1140.2 982.6 1156.2 973.3 1162.0 966.5C1167.8 959.6 1168.4 950.6 1170.7 947.0C1172.9 943.4 1174.9 945.8 1175.2 945.0C1175.5 944.2 1172.6 945.2 1172.6 942.0C1172.6 938.8 1175.6 930.8 1175.2 926.0C1174.9 921.2 1169.9 917.9 1170.5 913.0C1171.1 908.1 1176.3 897.9 1179.0 896.8C1181.7 895.7 1184.5 904.7 1187.0 906.4C1189.5 908.0 1190.4 904.4 1194.0 906.7C1197.6 908.9 1205.8 916.9 1208.3 920.0C1210.9 923.1 1210.0 923.0 1209.4 925.0C1208.7 927.0 1205.0 929.5 1204.5 932.0C1204.0 934.5 1207.9 937.4 1206.3 940.0C1204.8 942.6 1198.3 946.0 1195.0 947.3C1191.7 948.7 1188.9 945.0 1186.5 948.0C1184.2 951.0 1185.1 961.3 1181.0 965.2C1176.9 969.1 1166.4 968.9 1162.0 971.5C1157.6 974.2 1155.6 976.9 1154.6 981.0C1153.7 985.1 1158.1 992.9 1156.4 996.0C1154.6 999.1 1146.7 997.4 1144.0 999.6C1141.3 1001.8 1140.7 1007.5 1140.0 1009.1C1139.3 1010.7 1140.9 1010.8 1140.0 1009.1Z M1208.0 1016.2C1207.3 1015.1 1204.2 1013.9 1203.6 1010.0C1203.0 1006.1 1202.6 997.0 1204.5 993.0C1206.4 989.0 1207.1 987.9 1215.0 985.8C1222.9 983.7 1243.8 983.0 1252.0 980.4C1260.2 977.7 1262.4 972.3 1264.4 970.0C1266.4 967.7 1265.4 966.8 1264.0 966.8C1262.6 966.8 1255.3 971.1 1255.8 970.0C1256.3 968.9 1264.4 963.5 1267.0 960.5C1269.6 957.5 1271.2 953.7 1271.2 952.0C1271.2 950.3 1269.0 950.1 1267.0 950.5C1265.0 950.8 1260.2 953.9 1259.0 954.2C1257.8 954.4 1257.7 952.8 1259.5 952.0C1261.3 951.2 1266.6 952.1 1270.0 949.5C1273.4 946.9 1276.7 938.0 1280.0 936.6C1283.3 935.3 1287.9 939.0 1290.0 941.5C1292.1 944.1 1290.2 947.6 1292.6 952.0C1295.0 956.4 1303.7 964.2 1304.5 968.0C1305.3 971.8 1300.2 970.3 1297.6 975.0C1295.0 979.7 1296.1 990.8 1289.0 996.3C1281.9 1001.9 1268.3 1006.0 1255.0 1008.4C1241.7 1010.8 1216.8 1009.3 1209.0 1010.6C1201.2 1011.9 1208.2 1015.3 1208.0 1016.2C1207.8 1017.1 1208.7 1017.2 1208.0 1016.2Z M1349.0 990.4C1348.3 989.6 1348.0 986.5 1345.0 985.6C1342.0 984.8 1333.9 987.0 1331.0 985.3C1328.1 983.7 1325.8 978.2 1327.5 976.0C1329.2 973.8 1338.6 975.5 1341.5 972.0C1344.3 968.5 1342.7 958.0 1344.7 955.0C1346.6 952.0 1350.5 948.8 1353.0 953.8C1355.5 958.8 1360.1 978.9 1359.5 985.0C1358.8 991.1 1350.7 989.5 1349.0 990.4C1347.3 991.3 1349.7 991.2 1349.0 990.4Z" fill="#dfe2e1" /><path d="M1254.0 1023.4C1248.3 1022.9 1227.3 1021.4 1220.0 1020.4C1212.7 1019.4 1212.2 1018.6 1210.0 1017.4C1207.8 1016.2 1199.3 1014.5 1206.8 1013.0C1214.3 1011.5 1241.3 1011.3 1255.0 1008.4C1268.7 1005.5 1281.9 1001.0 1289.0 995.5C1296.1 989.9 1295.1 979.6 1297.6 975.0C1300.2 970.4 1305.3 971.7 1304.4 968.0C1303.4 964.3 1294.2 957.3 1291.8 953.0C1289.5 948.7 1292.2 944.7 1290.4 942.0C1288.6 939.3 1284.4 935.4 1281.0 936.6C1277.6 937.9 1273.3 947.0 1270.0 949.4C1266.7 951.7 1273.3 942.3 1261.0 950.6C1248.7 959.0 1213.8 987.9 1196.0 999.4C1178.2 1010.8 1162.3 1016.2 1154.0 1019.4C1145.7 1022.5 1148.2 1019.9 1146.0 1018.4C1143.8 1016.8 1141.5 1012.8 1140.6 1010.0C1139.8 1007.2 1138.4 1004.0 1141.0 1001.7C1143.6 999.3 1154.1 999.6 1156.4 996.0C1158.7 992.4 1153.5 984.4 1154.7 980.0C1155.8 975.6 1159.1 972.2 1163.0 969.8C1166.9 967.4 1174.0 969.2 1178.0 965.5C1182.0 961.8 1184.3 950.6 1187.0 947.6C1189.7 944.6 1190.9 948.6 1194.0 947.4C1197.1 946.1 1203.7 942.7 1205.5 940.0C1207.3 937.3 1204.0 933.5 1204.6 931.0C1205.3 928.5 1210.2 928.2 1209.4 925.0C1208.5 921.8 1202.2 915.1 1199.5 912.0C1196.7 908.9 1195.2 907.6 1193.0 906.6C1190.8 905.7 1187.7 907.5 1186.0 906.3C1184.3 905.2 1184.4 901.1 1183.0 899.5C1181.6 898.0 1181.2 903.3 1177.8 897.0C1174.4 890.7 1164.8 869.5 1162.6 862.0C1160.4 854.5 1154.9 857.6 1164.7 852.0C1174.4 846.4 1210.5 832.0 1221.0 828.6C1231.5 825.3 1224.3 824.1 1227.4 832.0C1230.5 839.9 1235.0 865.5 1239.6 876.0C1244.3 886.5 1252.8 890.3 1255.4 895.0C1258.0 899.7 1257.6 900.3 1255.4 904.0C1253.1 907.7 1244.9 915.6 1242.0 917.3C1239.1 919.1 1240.4 914.2 1238.0 914.8C1235.6 915.4 1229.5 919.3 1227.6 921.0C1225.7 922.7 1225.5 922.0 1226.6 925.0C1227.8 928.0 1230.5 935.6 1234.5 939.0C1238.6 942.4 1247.3 944.8 1251.0 945.4C1254.7 946.0 1254.3 945.6 1257.0 942.5C1259.7 939.3 1263.6 929.2 1267.0 926.6C1270.4 924.0 1277.3 932.3 1277.4 927.0C1277.5 921.7 1268.7 901.7 1267.6 895.0C1266.6 888.3 1259.6 890.5 1271.0 886.6C1282.4 882.7 1324.1 864.6 1336.0 871.6C1347.9 878.7 1340.2 917.3 1342.6 929.0C1345.0 940.7 1348.9 938.2 1350.4 942.0C1351.9 945.8 1352.5 949.7 1351.5 952.0C1350.5 954.3 1346.0 952.9 1344.6 956.0C1343.2 959.1 1345.6 967.4 1343.0 970.5C1340.4 973.6 1331.6 972.9 1329.0 974.6C1326.4 976.4 1327.1 979.2 1327.6 981.0C1328.1 982.8 1329.1 984.6 1332.0 985.4C1334.9 986.1 1342.3 984.8 1345.0 985.6C1347.7 986.5 1346.7 990.4 1348.0 990.4C1349.3 990.4 1351.1 986.2 1353.0 985.6C1354.9 985.1 1358.3 984.6 1359.4 987.0C1360.4 989.4 1360.4 996.9 1359.3 1000.0C1358.3 1003.1 1370.6 1001.5 1353.0 1005.4C1335.4 1009.3 1270.5 1020.4 1254.0 1023.4C1237.5 1026.4 1259.7 1023.9 1254.0 1023.4Z" fill="#f3f4f3" /></g><g class="f"><path d="M1232.0 892.1C1231.7 891.2 1242.2 888.3 1230.0 886.6C1217.8 884.9 1171.7 904.9 1158.6 882.0C1145.5 859.1 1152.3 784.0 1151.5 749.0C1150.7 714.0 1145.4 684.0 1154.0 671.8C1162.6 659.5 1184.2 672.3 1203.0 675.6C1221.8 678.9 1257.1 686.4 1267.0 691.7C1276.9 696.9 1257.0 698.4 1262.6 707.0C1268.3 715.6 1287.2 727.5 1301.0 743.5C1314.8 759.5 1337.8 791.8 1345.2 803.0C1352.6 814.2 1351.4 803.6 1345.3 811.0C1339.3 818.4 1316.4 838.8 1309.0 847.5C1301.6 856.2 1312.2 869.0 1301.0 863.2C1289.8 857.3 1253.5 807.7 1242.0 812.5C1230.5 817.4 1233.7 878.9 1232.0 892.1C1230.3 905.4 1232.3 893.0 1232.0 892.1Z" fill="#f4b194" /><path d="M1352.0 968.2C1351.3 962.1 1347.4 939.4 1347.5 932.0C1347.6 924.6 1351.9 925.7 1352.5 924.0C1353.1 922.3 1351.7 921.6 1351.0 921.8C1350.3 922.0 1349.0 925.1 1348.0 925.1C1347.0 925.2 1345.7 923.2 1344.8 922.0C1344.0 920.8 1342.5 919.2 1342.8 918.0C1343.2 916.8 1345.0 914.1 1347.0 914.8C1349.0 915.5 1352.1 920.8 1355.0 922.4C1357.9 923.9 1363.6 923.1 1364.5 924.0C1365.4 924.9 1360.7 923.5 1360.5 928.0C1360.3 932.5 1364.3 946.2 1363.3 951.0C1362.4 955.8 1356.5 954.1 1354.6 957.0C1352.7 959.9 1352.4 966.3 1352.0 968.2C1351.6 970.0 1352.7 974.2 1352.0 968.2Z M1147.0 1008.2C1144.7 1007.6 1135.8 1006.7 1133.0 1004.3C1130.2 1002.0 1133.0 995.8 1130.5 994.0C1128.0 992.2 1120.1 994.0 1118.0 993.3C1115.9 992.7 1116.7 990.8 1117.7 990.0C1118.7 989.2 1122.7 990.1 1124.0 988.5C1125.3 986.8 1123.7 982.2 1125.5 980.0C1127.4 977.8 1133.3 977.0 1135.0 975.5C1136.7 974.0 1133.5 973.6 1135.5 971.0C1137.6 968.4 1144.5 965.2 1147.4 960.0C1150.2 954.8 1150.3 944.7 1152.6 940.0C1155.0 935.3 1159.8 934.4 1161.4 932.0C1162.9 929.6 1161.5 925.9 1162.0 925.9C1162.5 925.9 1161.9 929.3 1164.5 932.0C1167.1 934.7 1175.0 937.8 1177.4 942.0C1179.7 946.2 1176.2 953.4 1178.6 957.0C1181.1 960.6 1186.9 962.5 1192.0 963.4C1197.1 964.3 1204.0 963.7 1209.0 962.4C1214.0 961.0 1219.3 957.1 1222.0 955.4C1224.7 953.7 1224.5 954.7 1225.4 952.0C1226.2 949.3 1225.9 937.0 1227.1 939.0C1228.3 941.0 1231.4 953.5 1232.5 964.0C1233.6 974.5 1248.2 994.8 1234.0 1002.2C1219.8 1009.5 1161.5 1007.2 1147.0 1008.2C1132.5 1009.2 1149.3 1008.9 1147.0 1008.2Z M1081.0 1012.1C1081.1 1009.8 1079.6 1000.9 1081.6 998.0C1083.6 995.1 1089.8 993.5 1093.0 994.8C1096.2 996.2 1102.0 1004.0 1101.1 1006.0C1100.3 1008.0 1091.4 1005.6 1088.0 1006.6C1084.6 1007.6 1082.2 1011.2 1081.0 1012.1C1079.8 1013.0 1080.9 1014.5 1081.0 1012.1Z" fill="#dfe2e1" /><path d="M1362.0 1014.4C1360.8 1014.2 1358.2 1015.0 1355.0 1013.4C1351.8 1011.7 1345.6 1008.4 1343.0 1004.5C1340.4 1000.6 1337.6 996.6 1339.5 990.0C1341.4 983.4 1351.9 970.5 1354.4 965.0C1356.9 959.5 1353.1 959.5 1354.6 957.0C1356.1 954.5 1362.4 955.0 1363.4 950.0C1364.4 945.0 1360.4 931.3 1360.5 927.0C1360.6 922.7 1365.3 924.8 1364.2 924.0C1363.1 923.2 1356.7 923.7 1354.0 922.3C1351.3 921.0 1350.2 916.3 1348.0 915.6C1345.8 915.0 1343.5 918.9 1341.0 918.4C1338.5 917.9 1334.2 915.0 1333.0 912.5C1331.8 909.9 1332.8 905.7 1333.6 903.0C1334.5 900.3 1343.2 902.7 1338.2 896.0C1333.2 889.3 1308.5 870.7 1303.8 863.0C1299.0 855.3 1304.6 856.7 1309.6 850.0C1314.7 843.3 1327.3 828.9 1334.0 822.5C1340.7 816.1 1341.8 807.5 1350.0 811.6C1358.2 815.8 1371.7 838.5 1383.0 847.4C1394.3 856.3 1413.1 860.4 1418.0 864.9C1422.9 869.3 1413.3 871.9 1412.6 874.0C1412.0 876.1 1412.9 876.9 1414.0 877.4C1415.1 877.9 1418.6 878.0 1419.2 877.0C1419.9 876.0 1416.5 872.7 1418.0 871.7C1419.5 870.6 1424.8 869.7 1428.0 870.6C1431.2 871.5 1442.9 859.4 1437.5 877.0C1432.1 894.6 1408.0 953.1 1395.4 976.0C1382.8 998.9 1367.6 1008.0 1362.0 1014.4C1356.4 1020.8 1363.2 1014.5 1362.0 1014.4Z M1204.0 963.4C1202.0 963.4 1196.0 964.2 1192.0 963.4C1188.0 962.5 1182.4 961.9 1180.0 958.4C1177.6 954.8 1180.1 946.6 1177.4 942.0C1174.7 937.4 1166.6 938.2 1163.6 931.0C1160.6 923.8 1159.9 906.7 1159.5 899.0C1159.1 891.3 1149.0 886.0 1161.0 884.6C1173.0 883.3 1220.6 879.8 1231.3 891.0C1242.1 902.2 1227.3 940.9 1225.4 952.0C1223.5 963.1 1223.6 955.5 1220.0 957.4C1216.4 959.3 1206.7 962.4 1204.0 963.4C1201.3 964.4 1206.0 963.4 1204.0 963.4Z M1151.0 1022.4C1140.2 1021.7 1097.6 1019.8 1086.0 1018.4C1074.4 1017.0 1082.3 1016.1 1081.6 1014.0C1081.0 1011.9 1081.6 1006.8 1082.0 1005.9C1082.4 1004.9 1081.1 1008.2 1084.0 1008.2C1086.9 1008.2 1097.6 1007.9 1099.2 1006.0C1100.9 1004.1 1096.4 998.0 1094.0 996.5C1091.6 995.1 1086.7 997.6 1085.0 997.2C1083.3 996.8 1082.6 995.8 1083.6 994.0C1084.6 992.2 1085.9 988.6 1091.0 986.6C1096.1 984.7 1106.5 984.7 1114.0 982.4C1121.5 980.0 1132.5 973.6 1136.0 972.6C1139.5 971.6 1136.9 975.0 1135.0 976.4C1133.1 977.8 1126.6 978.9 1124.8 981.0C1123.0 983.1 1125.5 987.2 1124.3 989.0C1123.2 990.8 1116.5 991.2 1117.6 992.0C1118.7 992.8 1128.5 991.8 1131.0 993.7C1133.5 995.5 1131.0 1000.7 1132.6 1003.0C1134.3 1005.3 1128.6 1007.0 1141.0 1007.4C1153.4 1007.8 1191.7 1006.6 1207.0 1005.5C1222.3 1004.4 1228.4 1001.2 1233.0 1000.8C1237.6 1000.4 1234.1 1001.3 1234.4 1003.0C1234.6 1004.7 1235.4 1008.6 1234.4 1011.0C1233.3 1013.4 1241.9 1015.5 1228.0 1017.4C1214.1 1019.3 1163.8 1021.5 1151.0 1022.4C1138.2 1023.2 1161.8 1023.0 1151.0 1022.4Z" fill="#f3f4f3" /></g><g class="f"><path d="M1169.0 891.1C1168.7 890.0 1169.5 885.6 1167.0 884.6C1164.5 883.7 1165.7 886.8 1154.0 885.5C1142.3 884.2 1104.4 903.2 1096.5 877.0C1088.6 850.8 1102.4 763.6 1106.5 728.0C1110.6 692.4 1113.4 673.2 1121.0 663.7C1128.6 654.1 1137.8 666.1 1152.0 670.6C1166.2 675.2 1200.1 681.8 1206.2 691.0C1212.3 700.2 1190.4 714.2 1188.6 726.0C1186.8 737.8 1194.5 752.5 1195.5 762.0C1196.5 771.5 1198.8 761.5 1194.4 783.0C1190.0 804.5 1173.2 873.1 1169.0 891.1C1164.8 909.1 1169.3 892.2 1169.0 891.1Z M1322.0 886.2C1310.4 863.0 1266.2 777.0 1252.6 747.0C1239.1 717.0 1243.0 715.0 1240.6 706.0C1238.3 697.0 1238.4 695.6 1238.5 693.0C1238.6 690.4 1225.5 693.1 1241.0 690.6C1256.5 688.1 1316.1 674.8 1331.3 678.0C1346.6 681.2 1327.3 695.7 1332.6 710.0C1338.0 724.3 1353.4 738.8 1363.4 764.0C1373.3 789.2 1399.2 840.6 1392.3 861.0C1385.4 881.4 1333.7 882.0 1322.0 886.2C1310.3 890.4 1333.6 909.4 1322.0 886.2Z" fill="#f4b194" /><path d="M1432.0 972.3C1430.6 971.5 1425.8 972.4 1423.6 967.0C1421.5 961.6 1421.6 945.7 1419.2 940.0C1416.9 934.3 1412.3 940.0 1409.6 933.0C1406.9 926.0 1403.3 901.2 1403.0 897.9C1402.7 894.5 1404.7 906.8 1407.6 913.0C1410.5 919.2 1416.3 925.1 1420.4 935.0C1424.4 944.9 1430.1 966.1 1432.0 972.3C1433.9 978.6 1433.4 973.2 1432.0 972.3Z M1155.0 1013.4C1153.1 1013.3 1143.4 1013.8 1143.9 1013.0C1144.4 1012.2 1156.2 1010.6 1158.0 1008.5C1159.8 1006.3 1157.8 1002.0 1154.5 1000.0C1151.1 998.0 1142.7 996.3 1138.0 996.5C1133.3 996.7 1140.0 999.5 1126.0 1001.4C1112.0 1003.2 1072.5 1006.5 1054.0 1007.5C1035.5 1008.5 1021.9 1007.8 1015.0 1007.2C1008.1 1006.6 1012.4 1006.5 1012.6 1004.0C1012.9 1001.5 1014.9 995.1 1016.6 992.0C1018.3 988.9 1017.6 988.1 1023.0 985.6C1028.4 983.2 1040.2 981.2 1049.0 977.4C1057.8 973.5 1071.7 965.5 1076.0 962.5C1080.3 959.4 1073.2 964.1 1074.8 959.0C1076.4 953.9 1082.4 937.5 1085.6 932.0C1088.9 926.5 1092.8 929.7 1094.4 926.0C1095.9 922.3 1094.8 910.2 1095.0 909.9C1095.2 909.5 1093.2 919.8 1095.5 924.0C1097.7 928.2 1106.0 930.0 1108.4 935.0C1110.7 940.0 1107.5 949.6 1109.6 954.0C1111.7 958.4 1115.1 960.8 1121.0 961.4C1126.9 961.9 1138.8 961.8 1145.0 957.4C1151.2 953.0 1156.4 937.4 1158.3 935.0C1160.3 932.6 1155.8 939.8 1156.5 943.0C1157.2 946.2 1161.0 943.7 1162.4 954.0C1163.7 964.3 1164.4 995.8 1164.5 1005.0C1164.6 1014.2 1164.6 1008.0 1163.0 1009.3C1161.4 1010.7 1156.3 1012.7 1155.0 1013.4C1153.7 1014.1 1156.9 1013.4 1155.0 1013.4Z M1370.0 994.4C1368.0 993.5 1360.2 991.3 1358.0 989.3C1355.8 987.4 1358.3 983.9 1357.0 982.5C1355.7 981.2 1351.5 982.2 1350.0 981.3C1348.5 980.5 1350.6 978.2 1348.0 977.6C1345.4 977.1 1336.3 980.1 1334.7 978.0C1333.0 975.9 1338.2 967.7 1338.2 965.0C1338.2 962.3 1335.1 964.8 1334.8 962.0C1334.6 959.2 1335.1 951.4 1336.6 948.0C1338.1 944.6 1341.3 943.2 1344.0 941.6C1346.7 940.1 1350.2 938.6 1353.0 938.6C1355.8 938.7 1357.7 938.9 1361.0 941.8C1364.3 944.8 1369.5 954.6 1373.0 956.4C1376.5 958.2 1379.1 950.9 1382.0 952.7C1384.9 954.4 1389.0 962.1 1390.4 967.0C1391.8 971.9 1391.0 978.5 1390.3 982.0C1389.7 985.5 1388.2 986.3 1386.3 988.0C1384.5 989.7 1380.9 992.1 1379.0 992.4C1377.1 992.7 1376.5 989.4 1375.0 989.8C1373.5 990.1 1370.8 993.6 1370.0 994.4C1369.2 995.1 1372.0 995.2 1370.0 994.4Z M1286.0 1010.2C1285.6 1009.2 1283.3 1006.6 1283.5 1004.0C1283.7 1001.4 1283.4 997.4 1287.0 994.5C1290.6 991.7 1302.7 987.6 1305.0 986.9C1307.3 986.1 1300.7 988.6 1300.6 990.0C1300.5 991.4 1304.2 992.7 1304.5 995.0C1304.8 997.3 1305.4 1001.5 1302.3 1004.0C1299.3 1006.5 1288.7 1009.2 1286.0 1010.2C1283.3 1011.3 1286.4 1011.3 1286.0 1010.2Z" fill="#dfe2e1" /><path d="M1335.0 1022.4C1327.7 1022.0 1299.2 1021.1 1291.0 1020.4C1282.8 1019.6 1286.9 1019.7 1285.7 1018.0C1284.4 1016.3 1281.5 1011.8 1283.5 1010.0C1285.6 1008.2 1294.5 1009.8 1298.0 1007.5C1301.5 1005.2 1304.1 999.1 1304.4 996.0C1304.7 992.9 1297.7 991.4 1299.8 989.0C1301.9 986.6 1311.3 985.9 1317.0 981.4C1322.7 976.9 1330.4 964.6 1334.0 961.8C1337.6 959.1 1338.3 962.4 1338.5 965.0C1338.7 967.6 1333.2 975.4 1335.0 977.5C1336.8 979.6 1346.3 977.0 1349.0 977.7C1351.7 978.3 1349.7 980.7 1351.0 981.4C1352.3 982.0 1355.9 980.5 1357.0 981.7C1358.1 982.8 1356.5 986.7 1357.6 988.0C1358.8 989.3 1362.6 988.6 1364.0 989.7C1365.4 990.7 1362.4 994.7 1366.0 994.4C1369.6 994.1 1381.4 990.2 1385.5 988.0C1389.6 985.8 1389.5 984.2 1390.4 981.0C1391.2 977.8 1391.9 973.6 1390.5 969.0C1389.1 964.4 1384.9 955.6 1382.0 953.5C1379.1 951.4 1376.4 958.1 1373.0 956.4C1369.6 954.6 1364.8 946.0 1361.5 943.0C1358.1 940.0 1355.9 938.9 1353.0 938.6C1350.1 938.4 1346.2 940.2 1344.0 941.6C1341.8 943.1 1341.3 946.6 1340.0 947.4C1338.7 948.2 1336.9 948.0 1336.0 946.5C1335.1 944.9 1333.2 941.1 1334.6 938.0C1336.0 934.9 1343.5 930.2 1344.4 928.0C1345.2 925.8 1342.9 931.3 1339.7 925.0C1336.4 918.7 1316.1 900.2 1324.6 890.0C1333.2 879.8 1376.8 856.6 1391.0 863.6C1405.2 870.6 1404.9 919.4 1409.6 932.0C1414.3 944.6 1417.0 933.2 1419.3 939.0C1421.7 944.8 1421.5 961.3 1423.6 967.0C1425.8 972.7 1430.9 970.2 1432.3 973.0C1433.8 975.8 1434.4 980.8 1432.4 984.0C1430.3 987.2 1430.4 987.6 1420.0 992.4C1409.6 997.1 1384.2 1007.4 1370.0 1012.4C1355.8 1017.4 1340.8 1020.7 1335.0 1022.4C1329.2 1024.0 1342.3 1022.7 1335.0 1022.4Z M1134.0 961.4C1131.8 961.4 1124.8 962.4 1121.0 961.4C1117.2 960.4 1113.1 959.9 1111.0 955.5C1108.9 951.1 1110.9 940.2 1108.4 935.0C1105.8 929.8 1097.4 933.6 1095.6 924.0C1093.9 914.4 1086.0 883.7 1098.0 877.7C1110.0 871.7 1157.3 878.6 1167.3 888.0C1177.4 897.4 1161.9 922.6 1158.4 934.0C1154.8 945.4 1150.1 951.9 1146.0 956.5C1141.9 961.0 1136.0 960.6 1134.0 961.4C1132.0 962.2 1136.2 961.4 1134.0 961.4Z M1064.0 1021.4C1056.7 1020.9 1028.4 1019.6 1020.0 1018.4C1011.6 1017.1 1014.7 1015.7 1013.6 1014.0C1012.5 1012.3 999.8 1009.6 1013.5 1008.0C1027.3 1006.4 1077.3 1005.6 1096.0 1004.5C1114.7 1003.4 1120.0 1002.7 1126.0 1001.4C1132.0 1000.1 1128.2 997.2 1132.0 996.6C1135.8 996.0 1144.6 996.2 1149.0 997.6C1153.4 999.0 1157.0 1003.1 1158.4 1005.0C1159.8 1006.9 1158.9 1007.8 1157.5 1009.0C1156.1 1010.2 1165.6 1010.3 1150.0 1012.4C1134.4 1014.4 1078.3 1019.9 1064.0 1021.4C1049.7 1022.9 1071.3 1021.9 1064.0 1021.4Z" fill="#f3f4f3" /></g><g class="f"><path d="M1197.0 887.1C1195.1 869.9 1195.4 809.3 1185.4 784.0C1175.4 758.7 1147.8 748.1 1137.0 735.5C1126.2 722.8 1123.0 717.7 1120.6 708.0C1118.2 698.3 1119.7 689.6 1122.6 677.0C1125.5 664.4 1120.9 633.1 1138.0 632.6C1155.1 632.2 1207.3 668.1 1225.0 674.4C1242.7 680.7 1237.3 671.0 1244.0 670.5C1250.7 670.0 1262.2 664.2 1265.0 671.7C1267.8 679.1 1260.9 705.8 1260.5 715.0C1260.1 724.2 1260.1 719.5 1262.6 727.0C1265.1 734.5 1270.7 750.2 1275.6 760.0C1280.6 769.8 1292.6 779.8 1292.4 786.0C1292.2 792.2 1283.0 790.0 1274.5 797.0C1266.1 804.0 1247.1 821.5 1241.6 828.0C1236.1 834.5 1240.3 832.7 1241.6 836.0C1243.0 839.3 1245.7 844.0 1249.6 848.0C1253.5 852.0 1262.6 855.2 1265.2 860.0C1267.8 864.8 1269.0 873.4 1265.3 877.0C1261.7 880.6 1254.1 880.6 1243.0 881.5C1231.9 882.4 1206.7 881.7 1199.0 882.6C1191.3 883.6 1197.3 886.4 1197.0 887.1C1196.7 887.9 1198.9 904.3 1197.0 887.1Z" fill="#f4b194" /><path d="M1357.0 867.4C1355.2 867.0 1348.7 867.0 1346.0 865.3C1343.3 863.7 1343.5 858.9 1341.0 857.6C1338.5 856.3 1332.3 860.3 1331.0 857.5C1329.7 854.6 1331.5 842.3 1333.0 840.7C1334.5 839.0 1336.0 846.2 1340.0 847.4C1344.0 848.6 1352.3 846.3 1357.0 847.8C1361.7 849.2 1366.7 853.4 1368.3 856.0C1370.0 858.6 1368.9 861.6 1367.0 863.5C1365.1 865.4 1358.7 866.7 1357.0 867.4C1355.3 868.0 1358.8 867.7 1357.0 867.4Z M1284.0 1008.2C1283.5 1007.4 1284.7 1005.6 1281.0 1003.6C1277.3 1001.7 1268.3 996.7 1262.0 996.5C1255.7 996.3 1247.7 1001.7 1243.0 1002.5C1238.3 1003.3 1236.5 1002.4 1234.0 1001.4C1231.5 1000.4 1236.2 996.7 1228.0 996.5C1219.8 996.3 1192.5 1000.3 1185.0 1000.3C1177.5 1000.4 1186.2 998.5 1183.0 996.6C1179.8 994.8 1168.9 991.6 1166.0 989.3C1163.1 987.1 1162.8 985.5 1165.7 983.0C1168.5 980.5 1177.7 977.7 1183.0 974.2C1188.3 970.7 1195.9 964.4 1197.4 962.0C1198.8 959.6 1192.1 961.2 1191.8 960.0C1191.5 958.8 1194.9 958.0 1195.4 955.0C1195.9 952.0 1194.2 944.4 1194.7 942.0C1195.1 939.6 1196.1 940.0 1198.0 940.5C1199.9 941.0 1204.9 940.8 1206.3 945.0C1207.8 949.2 1205.3 962.2 1206.6 966.0C1208.0 969.8 1212.8 963.4 1214.3 968.0C1215.9 972.6 1213.6 989.9 1216.0 993.4C1218.4 996.9 1226.1 990.8 1228.5 989.0C1230.8 987.2 1228.5 984.0 1230.0 982.7C1231.5 981.3 1236.0 982.3 1237.4 981.0C1238.7 979.7 1234.9 975.8 1238.0 974.7C1241.1 973.5 1251.5 977.1 1256.0 974.4C1260.5 971.7 1262.6 960.2 1265.0 958.6C1267.4 957.1 1269.1 961.3 1270.4 965.0C1271.6 968.7 1270.7 977.2 1272.6 981.0C1274.6 984.8 1279.8 984.9 1282.0 987.5C1284.2 990.1 1284.5 995.0 1286.0 996.5C1287.5 998.1 1291.5 996.9 1291.1 997.0C1290.8 997.1 1286.2 998.8 1284.0 997.4C1281.8 996.0 1279.9 989.7 1278.0 988.6C1276.1 987.6 1271.9 988.8 1272.8 991.0C1273.7 993.2 1281.5 999.1 1283.4 1002.0C1285.3 1004.9 1283.9 1007.1 1284.0 1008.2C1284.1 1009.2 1284.5 1008.9 1284.0 1008.2Z M1128.0 1009.1C1128.1 1007.1 1127.8 1000.1 1128.6 997.0C1129.5 993.9 1130.6 992.7 1133.0 990.5C1135.4 988.3 1138.3 984.9 1143.0 983.6C1147.7 982.4 1159.7 982.6 1161.3 983.0C1162.9 983.4 1154.1 983.2 1152.6 986.0C1151.1 988.8 1153.5 996.4 1152.4 1000.0C1151.3 1003.6 1149.6 1006.3 1146.0 1007.4C1142.4 1008.5 1134.0 1006.2 1131.0 1006.5C1128.0 1006.8 1128.5 1008.7 1128.0 1009.1C1127.5 1009.6 1127.9 1011.1 1128.0 1009.1Z" fill="#dfe2e1" /><path d="M1292.0 996.4C1291.0 996.4 1287.7 997.9 1286.0 996.4C1284.3 994.9 1284.2 989.9 1282.0 987.5C1279.8 985.1 1274.4 985.3 1272.7 982.0C1270.9 978.7 1272.7 971.9 1271.4 968.0C1270.1 964.1 1267.4 957.7 1265.0 958.8C1262.6 959.8 1261.3 971.7 1257.0 974.3C1252.7 977.0 1242.3 973.3 1239.0 974.6C1235.7 975.9 1238.8 980.6 1237.3 982.0C1235.9 983.4 1231.9 981.8 1230.5 983.0C1229.1 984.2 1231.6 987.6 1229.0 989.3C1226.4 991.1 1217.4 996.7 1215.0 993.3C1212.6 990.0 1215.8 973.4 1214.4 969.0C1213.0 964.6 1208.0 970.8 1206.7 967.0C1205.3 963.2 1208.1 950.5 1206.4 946.0C1204.7 941.5 1197.9 941.7 1196.6 940.0C1195.4 938.3 1197.4 936.6 1199.0 935.8C1200.6 934.9 1205.8 936.5 1206.2 935.0C1206.7 933.5 1203.0 935.6 1201.6 927.0C1200.3 918.4 1186.9 891.4 1198.0 883.7C1209.1 875.9 1255.2 882.1 1268.0 880.2C1280.8 878.4 1272.8 874.0 1275.0 872.6C1277.2 871.3 1283.7 874.7 1281.4 872.0C1279.0 869.3 1266.8 862.1 1261.0 856.5C1255.2 850.8 1249.2 842.6 1246.6 838.0C1244.0 833.4 1240.4 836.0 1245.5 829.0C1250.7 822.0 1269.9 802.4 1277.5 796.0C1285.1 789.6 1286.9 789.7 1291.0 790.5C1295.1 791.3 1296.6 793.8 1302.4 801.0C1308.1 808.2 1321.1 828.3 1325.5 834.0C1330.0 839.7 1327.9 835.8 1329.0 835.4C1330.1 835.0 1327.8 829.7 1332.0 831.6C1336.2 833.6 1350.9 844.0 1354.2 847.0C1357.6 850.0 1354.5 849.4 1352.0 849.5C1349.5 849.6 1342.2 848.7 1339.0 847.4C1335.8 846.1 1334.2 839.9 1333.0 841.6C1331.8 843.4 1330.2 855.3 1331.5 858.0C1332.9 860.7 1338.3 856.2 1341.0 857.6C1343.7 859.0 1345.5 864.7 1348.0 866.4C1350.5 868.0 1353.0 867.8 1356.0 867.5C1359.0 867.2 1363.5 866.0 1366.0 864.4C1368.5 862.7 1368.9 857.5 1371.0 857.6C1373.1 857.7 1386.8 847.3 1378.5 865.0C1370.2 882.7 1335.8 942.1 1321.4 964.0C1307.0 985.9 1296.9 991.0 1292.0 996.4C1287.1 1001.8 1293.0 996.4 1292.0 996.4Z M1278.5 950.0C1279.1 949.2 1281.8 953.2 1282.5 945.0C1283.2 936.8 1284.1 910.7 1282.5 901.0C1280.9 891.3 1275.3 880.1 1273.0 886.8C1270.7 893.4 1267.9 930.5 1268.8 941.0C1269.7 951.5 1276.9 948.5 1278.5 950.0C1280.1 951.5 1277.8 950.8 1278.5 950.0Z M1183.0 1022.4C1175.0 1021.7 1143.7 1019.4 1135.0 1018.4C1126.3 1017.3 1131.7 1017.9 1130.7 1016.0C1129.6 1014.1 1126.1 1008.4 1128.7 1007.0C1131.2 1005.6 1142.0 1008.7 1146.0 1007.4C1150.0 1006.0 1151.4 1002.8 1152.4 999.0C1153.4 995.2 1151.1 987.3 1152.0 984.8C1152.9 982.4 1150.8 988.6 1158.0 984.4C1165.2 980.2 1188.4 963.2 1195.0 959.6C1201.6 956.1 1199.2 960.5 1197.3 963.0C1195.5 965.5 1189.1 971.0 1184.0 974.3C1178.9 977.7 1169.4 980.6 1166.5 983.0C1163.6 985.4 1163.6 986.7 1166.5 989.0C1169.4 991.3 1180.8 994.8 1184.0 996.7C1187.2 998.5 1178.7 1000.4 1186.0 1000.4C1193.3 1000.4 1220.0 996.3 1228.0 996.5C1236.0 996.7 1231.5 1000.4 1234.0 1001.4C1236.5 1002.4 1238.3 1003.3 1243.0 1002.5C1247.7 1001.7 1255.7 996.3 1262.0 996.5C1268.3 996.7 1277.5 1001.7 1281.0 1003.6C1284.5 1005.5 1284.6 1006.2 1283.2 1008.0C1281.9 1009.8 1289.7 1012.0 1273.0 1014.4C1256.3 1016.8 1198.0 1021.0 1183.0 1022.4C1168.0 1023.7 1191.0 1023.0 1183.0 1022.4Z" fill="#f3f4f3" /></g><g class="f"><path d="M1206.0 890.4C1196.4 889.6 1159.2 913.2 1148.7 886.0C1138.1 858.8 1141.6 763.9 1142.5 727.0C1143.4 690.1 1142.6 672.2 1154.0 664.8C1165.4 657.4 1197.2 677.7 1211.0 682.6C1224.8 687.5 1231.3 692.4 1237.0 694.4C1242.7 696.3 1240.5 696.3 1245.0 694.4C1249.5 692.4 1259.2 684.6 1264.0 682.6C1268.8 680.7 1272.6 677.3 1274.0 682.7C1275.4 688.0 1269.9 707.4 1272.6 715.0C1275.4 722.6 1284.2 722.3 1290.5 728.0C1296.8 733.7 1299.4 732.7 1310.4 749.0C1321.4 765.3 1354.9 807.3 1356.4 826.0C1357.9 844.7 1328.4 853.6 1319.5 861.0C1310.6 868.4 1307.1 869.5 1303.0 870.4C1298.9 871.3 1306.0 878.2 1295.0 866.5C1284.0 854.7 1247.6 809.2 1237.0 799.8C1226.4 790.4 1234.1 795.3 1231.6 810.0C1229.2 824.7 1226.6 874.6 1222.3 888.0C1218.1 901.4 1208.7 890.0 1206.0 890.4C1203.3 890.8 1215.6 891.1 1206.0 890.4Z" fill="#f4b194" /><path d="M1386.0 936.3C1385.3 936.1 1382.2 936.1 1381.5 935.0C1380.8 933.9 1380.6 931.7 1381.6 930.0C1382.6 928.3 1386.8 927.6 1387.4 925.0C1387.9 922.4 1386.7 915.4 1385.0 914.6C1383.3 913.9 1380.4 919.5 1377.0 920.4C1373.6 921.3 1362.3 923.5 1364.8 920.0C1367.3 916.5 1386.6 905.0 1392.0 899.5C1397.4 893.9 1394.2 888.3 1397.0 886.7C1399.8 885.0 1407.2 887.8 1409.0 889.7C1410.8 891.6 1407.3 896.1 1407.6 898.0C1408.0 899.9 1409.3 900.3 1411.0 901.4C1412.7 902.4 1416.2 904.7 1418.0 904.2C1419.8 903.8 1419.6 898.0 1422.0 898.6C1424.4 899.3 1431.8 906.3 1432.2 908.0C1432.5 909.7 1425.6 906.2 1424.0 908.5C1422.4 910.9 1424.2 918.2 1422.4 922.0C1420.5 925.8 1417.4 929.5 1413.0 931.4C1408.6 933.3 1400.2 933.8 1396.0 933.5C1391.8 933.2 1389.7 929.1 1388.0 929.6C1386.3 930.1 1386.3 935.2 1386.0 936.3C1385.7 937.5 1386.7 936.6 1386.0 936.3Z M1221.0 1011.1C1220.7 1010.4 1226.2 1007.6 1219.0 1006.8C1211.8 1006.0 1185.6 1006.8 1178.0 1006.4C1170.4 1005.9 1175.2 1006.6 1173.7 1004.0C1172.2 1001.4 1170.8 993.0 1169.0 990.5C1167.2 988.0 1164.0 990.5 1162.7 989.0C1161.3 987.5 1162.6 983.2 1161.0 981.6C1159.4 980.1 1154.8 978.5 1153.0 979.8C1151.2 981.1 1151.2 989.4 1150.0 989.5C1148.8 989.6 1150.9 981.9 1146.0 980.6C1141.1 979.4 1123.9 983.5 1120.8 982.0C1117.6 980.5 1124.1 974.5 1127.0 971.8C1129.9 969.1 1137.1 967.8 1138.4 966.0C1139.7 964.2 1134.7 963.7 1134.8 961.0C1134.9 958.3 1137.0 951.3 1139.0 949.5C1141.0 947.7 1145.1 950.6 1147.0 950.2C1148.9 949.8 1149.7 953.8 1150.4 947.0C1151.0 940.2 1150.5 912.2 1151.0 909.7C1151.5 907.2 1151.2 926.1 1153.6 932.0C1156.0 937.9 1163.4 940.5 1165.4 945.0C1167.4 949.5 1165.2 956.1 1165.8 959.0C1166.4 961.9 1166.8 961.1 1169.0 962.4C1171.2 963.6 1171.7 965.8 1179.0 966.5C1186.3 967.2 1206.5 966.5 1213.0 966.5C1219.5 966.5 1216.8 967.1 1218.0 966.4C1219.2 965.6 1219.6 954.5 1220.1 962.0C1220.6 969.5 1220.9 1002.9 1221.0 1011.1C1221.1 1019.3 1221.3 1011.8 1221.0 1011.1Z M1085.0 1008.4C1082.3 1008.1 1071.2 1009.5 1068.8 1007.0C1066.5 1004.5 1067.9 996.5 1071.0 993.7C1074.1 990.8 1084.4 988.9 1087.3 990.0C1090.3 991.1 1087.8 997.8 1088.6 1000.0C1089.5 1002.2 1093.1 1001.6 1092.5 1003.0C1091.9 1004.4 1086.2 1007.5 1085.0 1008.4C1083.8 1009.3 1087.7 1008.6 1085.0 1008.4Z" fill="#dfe2e1" /><path d="M1336.0 1031.4C1335.1 1030.8 1332.2 1030.7 1330.6 1028.0C1329.0 1025.3 1328.1 1018.2 1326.4 1015.0C1324.7 1011.8 1318.5 1015.0 1320.5 1009.0C1322.5 1003.0 1334.9 989.5 1338.4 979.0C1341.9 968.5 1342.5 955.2 1341.4 946.0C1340.2 936.8 1331.8 929.0 1331.5 924.0C1331.2 919.0 1344.2 924.3 1339.4 916.0C1334.6 907.7 1301.6 887.2 1302.8 874.0C1304.1 860.8 1337.8 843.5 1347.0 836.6C1356.2 829.7 1352.8 828.6 1358.0 832.5C1363.2 836.4 1373.4 852.2 1378.4 860.0C1383.4 867.8 1385.1 876.4 1388.0 879.5C1390.9 882.6 1392.6 877.2 1396.0 878.6C1399.4 880.0 1407.9 886.6 1408.2 888.0C1408.5 889.4 1400.4 885.1 1397.7 887.0C1395.0 888.9 1397.3 894.1 1392.0 899.5C1386.7 904.9 1368.5 916.0 1366.0 919.5C1363.5 923.0 1374.0 921.2 1377.0 920.4C1380.0 919.6 1382.3 915.4 1384.0 914.6C1385.7 913.8 1386.4 913.9 1387.0 915.7C1387.6 917.4 1388.3 922.4 1387.4 925.0C1386.5 927.6 1382.2 929.1 1381.6 931.0C1381.1 932.9 1383.1 936.7 1384.0 936.5C1384.9 936.3 1383.2 930.2 1387.0 929.7C1390.8 929.2 1402.2 933.5 1407.0 933.5C1411.8 933.5 1413.4 931.3 1416.0 929.4C1418.6 927.5 1421.4 925.8 1422.4 922.0C1423.4 918.2 1420.1 908.9 1422.0 906.8C1423.9 904.8 1430.9 907.8 1434.0 909.6C1437.1 911.5 1449.2 903.2 1440.4 918.0C1431.5 932.8 1396.9 979.9 1381.0 998.5C1365.1 1017.0 1352.5 1023.9 1345.0 1029.4C1337.5 1034.9 1337.5 1031.0 1336.0 1031.4C1334.5 1031.7 1336.9 1031.9 1336.0 1031.4Z M1214.0 967.2C1208.0 967.1 1185.9 967.6 1178.0 966.4C1170.1 965.2 1168.6 963.4 1166.5 960.0C1164.4 956.6 1167.5 950.7 1165.4 946.0C1163.2 941.3 1156.2 941.6 1153.6 932.0C1151.1 922.4 1138.9 895.3 1150.0 888.7C1161.1 882.0 1209.6 883.4 1220.3 892.0C1231.1 900.6 1214.6 927.8 1214.5 940.0C1214.4 952.2 1219.6 960.5 1219.5 965.0C1219.4 969.5 1214.9 966.8 1214.0 967.2C1213.1 967.6 1220.0 967.4 1214.0 967.2Z M1123.0 1024.4C1119.8 1024.2 1112.8 1025.1 1104.0 1023.4C1095.2 1021.7 1076.0 1017.4 1070.0 1014.3C1064.0 1011.3 1065.7 1005.8 1068.0 1004.8C1070.3 1003.9 1079.9 1008.8 1084.0 1008.5C1088.1 1008.2 1091.6 1004.2 1092.4 1003.0C1093.2 1001.8 1089.7 1003.2 1088.7 1001.0C1087.6 998.8 1088.1 991.1 1086.0 989.6C1083.9 988.2 1078.1 992.3 1076.0 992.4C1073.9 992.4 1072.2 991.5 1073.7 990.0C1075.2 988.5 1079.4 985.1 1085.0 983.6C1090.6 982.2 1098.3 985.1 1107.0 981.4C1115.7 977.7 1131.8 964.1 1137.0 961.5C1142.2 958.9 1139.9 964.3 1138.4 966.0C1136.9 967.7 1130.8 969.4 1128.0 971.5C1125.2 973.7 1122.6 977.0 1121.6 979.0C1120.6 981.0 1117.9 983.1 1122.0 983.4C1126.1 983.6 1141.3 979.6 1146.0 980.6C1150.7 981.6 1148.7 989.5 1150.0 989.4C1151.3 989.2 1152.0 980.9 1154.0 979.6C1156.0 978.3 1160.5 980.2 1162.0 981.7C1163.5 983.1 1161.8 987.1 1163.0 988.5C1164.2 989.9 1167.3 987.3 1169.3 990.0C1171.3 992.7 1166.5 1001.5 1175.0 1004.4C1183.5 1007.2 1213.3 1004.7 1220.3 1007.0C1227.3 1009.3 1233.2 1015.4 1217.0 1018.3C1200.8 1021.2 1138.7 1023.4 1123.0 1024.4C1107.3 1025.4 1126.2 1024.5 1123.0 1024.4Z" fill="#f3f4f3" /></g></g>
  <g id="shorts">
    <path d="M1334.0 714.2C1333.5 709.7 1345.5 691.0 1331.0 687.6C1316.5 684.2 1262.2 692.5 1247.0 693.6C1231.8 694.8 1241.5 693.5 1240.0 694.6C1238.5 695.7 1240.0 700.3 1238.0 700.1C1236.0 700.0 1245.4 698.6 1228.0 693.6C1210.6 688.6 1143.8 701.8 1133.7 670.0C1123.5 638.2 1159.6 530.2 1167.0 502.8C1174.4 475.4 1150.3 505.1 1178.0 505.5C1205.7 505.9 1307.1 495.1 1333.2 505.0C1359.3 514.9 1332.8 539.0 1334.5 565.0C1336.2 591.0 1342.2 640.2 1343.5 661.0C1344.8 681.8 1344.0 684.5 1342.3 690.0C1340.7 695.5 1334.9 690.0 1333.5 694.0C1332.1 698.0 1333.9 710.8 1334.0 714.2C1334.1 717.5 1334.5 718.6 1334.0 714.2Z" fill="#262726" />
    <path d="M1138.0 658.2C1142.8 634.5 1162.3 535.7 1167.0 515.9C1171.7 496.0 1168.2 529.0 1166.2 539.0C1164.1 549.0 1156.0 563.2 1154.7 576.0C1153.4 588.8 1159.9 607.3 1158.4 616.0C1156.9 624.7 1149.0 621.0 1145.6 628.0C1142.2 635.0 1139.3 653.1 1138.0 658.2C1136.7 663.2 1133.2 681.9 1138.0 658.2Z M1222.0 667.4C1220.8 667.0 1215.8 679.7 1214.5 665.0C1213.2 650.3 1212.7 582.5 1214.0 578.9C1215.3 575.2 1221.2 628.3 1222.5 643.0C1223.8 657.7 1222.1 663.3 1222.0 667.4C1221.9 671.4 1223.2 667.8 1222.0 667.4Z" fill="#1f1f1f" opacity="0.55"/>
  </g>
  <g id="torso-shirt">
    <path d="M1165.0 447.2C1162.9 424.5 1155.3 334.0 1152.4 311.0C1149.5 288.0 1149.3 312.5 1147.6 309.0C1146.0 305.5 1143.5 295.7 1142.5 290.0C1141.5 284.3 1141.0 279.4 1141.6 275.0C1142.2 270.6 1136.6 270.9 1146.0 263.5C1155.4 256.2 1188.7 234.4 1198.0 230.8C1207.3 227.2 1200.0 239.1 1201.6 242.0C1203.3 244.9 1203.3 247.3 1208.0 248.4C1212.7 249.4 1222.9 250.4 1230.0 248.4C1237.1 246.3 1244.6 241.1 1250.5 236.0C1256.3 230.9 1254.9 218.4 1265.0 217.8C1275.1 217.3 1299.3 228.1 1311.0 232.6C1322.7 237.1 1331.1 242.6 1335.4 245.0C1339.8 247.4 1339.1 247.4 1337.0 247.2C1334.9 246.9 1327.7 243.8 1323.0 243.5C1318.3 243.2 1315.2 242.9 1309.0 245.6C1302.8 248.4 1291.4 255.1 1285.5 260.0C1279.6 264.9 1277.3 268.8 1273.6 275.0C1270.0 281.2 1265.3 289.7 1263.6 297.0C1261.9 304.3 1266.7 302.1 1263.4 319.0C1260.1 335.9 1260.4 377.1 1244.0 398.5C1227.6 419.8 1178.2 439.1 1165.0 447.2C1151.8 455.3 1167.1 469.9 1165.0 447.2Z M1326.0 504.4C1301.3 504.4 1204.3 504.8 1178.0 504.5C1151.7 504.2 1169.7 504.4 1168.0 502.5C1166.3 500.6 1154.2 498.2 1167.5 493.0C1180.8 487.8 1228.2 477.7 1248.0 471.4C1267.8 465.0 1277.2 461.4 1286.5 455.0C1295.7 448.6 1294.3 452.4 1303.4 433.0C1312.5 413.6 1334.5 351.1 1341.0 338.8C1347.5 326.4 1343.6 334.8 1342.5 359.0C1341.4 383.2 1336.2 460.0 1334.5 484.0C1332.8 508.0 1333.8 499.6 1332.3 503.0C1330.9 506.4 1327.1 504.1 1326.0 504.4C1324.9 504.6 1350.7 504.4 1326.0 504.4Z" fill="#d9d9d9" />
  </g>
  <g id="arms">
    <path d="M1019.0 517.4C1018.2 517.4 1015.7 518.5 1014.0 517.4C1012.3 516.3 1011.0 511.3 1009.0 510.6C1007.0 510.0 1006.7 513.2 1002.0 513.5C997.3 513.8 986.1 515.6 981.0 512.3C975.9 509.1 972.9 499.6 971.6 494.0C970.4 488.4 971.4 483.7 973.6 479.0C975.9 474.3 980.6 469.0 985.0 465.6C989.4 462.2 995.8 460.1 1000.0 458.6C1004.2 457.1 1004.5 456.2 1010.0 456.8C1015.5 457.4 1016.0 472.3 1033.0 462.4C1050.0 452.5 1093.8 425.9 1112.0 397.5C1130.2 369.0 1135.8 306.2 1142.0 291.7C1148.2 277.1 1147.3 309.2 1149.0 310.2C1150.7 311.3 1149.7 277.4 1152.3 298.0C1154.9 318.6 1167.0 406.8 1164.5 434.0C1161.9 461.2 1135.1 460.0 1137.0 461.2C1138.9 462.4 1158.2 451.8 1176.0 441.4C1193.8 430.9 1229.4 418.9 1244.0 398.5C1258.6 378.1 1259.6 338.6 1263.4 319.0C1267.2 299.4 1266.1 286.3 1266.9 281.0C1267.6 275.7 1265.5 290.1 1268.0 287.2C1270.5 284.3 1276.5 269.8 1282.0 263.5C1287.5 257.3 1291.3 251.9 1301.0 249.6C1310.7 247.4 1332.6 247.4 1340.3 250.0C1348.1 252.6 1345.5 257.8 1347.4 265.0C1349.2 272.2 1352.2 281.0 1351.5 293.0C1350.8 305.0 1345.4 329.2 1343.4 337.0C1341.4 344.8 1346.3 324.0 1339.6 340.0C1333.0 356.0 1311.6 414.3 1303.4 433.0C1295.2 451.7 1299.7 445.6 1290.5 452.0C1281.2 458.4 1272.2 463.8 1248.0 471.4C1223.8 479.0 1165.3 491.8 1145.0 497.6C1124.7 503.5 1129.3 507.1 1126.0 506.4C1122.7 505.6 1126.4 496.0 1125.4 493.0C1124.4 490.0 1121.9 489.2 1120.0 488.6C1118.1 488.1 1116.1 488.1 1114.0 489.6C1111.9 491.2 1107.8 494.4 1107.5 498.0C1107.2 501.6 1112.5 508.3 1112.4 511.0C1112.3 513.7 1109.2 514.2 1107.0 514.5C1104.8 514.8 1100.8 512.5 1099.0 512.6C1097.2 512.8 1100.7 515.8 1096.0 515.4C1091.3 514.9 1075.3 511.7 1070.5 510.0C1065.8 508.3 1067.8 509.9 1067.5 505.0C1067.2 500.1 1077.3 484.9 1069.0 480.6C1060.7 476.4 1027.4 478.6 1018.0 479.6C1008.6 480.7 1013.4 484.1 1012.6 487.0C1011.9 489.9 1009.1 495.0 1013.5 497.0C1018.0 499.0 1038.3 495.6 1039.2 499.0C1040.1 502.4 1022.4 514.3 1019.0 517.4C1015.6 520.4 1019.8 517.4 1019.0 517.4Z" fill="#f7b18c" />
  </g>
  <g id="head">
    <path d="M1218.0 177.4C1215.7 176.4 1209.7 172.3 1204.0 171.6C1198.3 171.0 1189.9 173.6 1184.0 173.5C1178.1 173.4 1170.5 176.7 1168.7 171.0C1166.8 165.3 1169.7 144.8 1172.6 139.0C1175.6 133.2 1184.5 137.1 1186.4 136.0C1188.3 134.9 1186.1 133.3 1184.0 132.6C1181.9 132.0 1175.2 133.9 1173.7 132.0C1172.1 130.1 1173.6 124.6 1174.6 121.0C1175.7 117.4 1170.0 111.5 1180.0 110.6C1190.0 109.8 1225.1 107.8 1234.4 116.0C1243.6 124.2 1236.3 150.9 1235.4 160.0C1234.5 169.1 1231.9 167.6 1229.0 170.5C1226.1 173.4 1219.8 176.2 1218.0 177.4C1216.2 178.5 1220.3 178.3 1218.0 177.4Z M1223.0 250.4C1221.2 250.4 1215.6 251.8 1212.0 250.4C1208.4 249.0 1204.0 245.4 1201.6 242.0C1199.2 238.6 1198.3 234.3 1197.8 230.0C1197.3 225.7 1195.3 219.1 1198.7 216.0C1202.0 212.9 1211.4 214.5 1218.0 211.4C1224.6 208.3 1233.8 201.7 1238.0 197.5C1242.2 193.2 1241.9 193.2 1243.4 186.0C1244.8 178.8 1245.5 160.2 1246.6 154.0C1247.7 147.8 1247.9 149.8 1250.0 148.6C1252.1 147.4 1256.6 145.9 1259.0 146.6C1261.4 147.4 1263.6 150.3 1264.5 153.0C1265.4 155.7 1265.5 159.3 1264.4 163.0C1263.2 166.7 1257.8 165.0 1257.6 175.0C1257.5 185.0 1265.8 211.9 1263.4 223.0C1260.9 234.1 1249.7 236.8 1243.0 241.4C1236.3 245.9 1226.3 248.9 1223.0 250.4C1219.7 251.9 1224.8 250.4 1223.0 250.4Z M1342.0 254.3C1334.0 254.3 1299.4 255.5 1293.9 254.0C1288.4 252.5 1304.1 247.4 1309.0 245.6C1313.9 243.9 1318.8 243.5 1323.0 243.5C1327.2 243.5 1330.8 243.8 1334.0 245.6C1337.2 247.4 1340.7 252.9 1342.0 254.3C1343.3 255.8 1350.0 254.4 1342.0 254.3Z" fill="#f5ac88" />
  </g>
  <g id="beard">
    <path d="M1197.0 230.2C1196.8 228.1 1198.8 220.7 1196.0 217.5C1193.2 214.4 1184.6 215.0 1180.0 211.4C1175.4 207.8 1170.6 203.1 1168.6 196.0C1166.6 188.9 1165.3 172.8 1167.9 169.0C1170.4 165.2 1178.0 173.1 1184.0 173.5C1190.0 173.9 1198.3 171.0 1204.0 171.6C1209.7 172.3 1213.4 178.0 1218.0 177.4C1222.6 176.8 1228.4 172.3 1231.4 168.0C1234.4 163.7 1233.4 154.4 1236.0 151.7C1238.6 148.9 1245.8 145.9 1247.0 151.7C1248.2 157.4 1244.8 178.4 1243.4 186.0C1241.9 193.6 1242.6 192.8 1238.4 197.0C1234.2 201.2 1224.4 208.3 1218.0 211.4C1211.6 214.5 1203.5 212.5 1200.0 215.6C1196.5 218.8 1197.5 227.7 1197.0 230.2C1196.5 232.6 1197.2 232.3 1197.0 230.2Z M998.0 641.2C978.1 641.0 878.7 640.4 878.8 640.0C879.0 639.6 979.1 638.5 999.0 638.7C1018.9 638.9 998.2 640.8 998.0 641.2C997.8 641.6 1017.9 641.4 998.0 641.2Z M564.0 843.3C570.8 840.2 579.7 828.2 605.0 824.6C630.3 821.0 697.2 821.8 716.0 821.8C734.8 821.8 715.3 824.0 718.0 824.5C720.7 825.1 750.5 824.9 732.1 825.0C713.8 825.1 636.0 822.3 608.0 825.3C580.0 828.4 571.3 840.3 564.0 843.3C556.7 846.3 557.2 846.5 564.0 843.3Z" fill="#b16a42" />
  </g>
  <g id="hair">
    <path d="M1268.0 159.4C1267.4 159.3 1265.4 160.6 1264.7 159.0C1263.9 157.4 1264.5 152.1 1263.4 150.0C1262.3 147.9 1260.4 146.6 1258.0 146.5C1255.6 146.4 1251.0 147.4 1249.0 149.5C1247.0 151.7 1248.2 157.8 1246.0 159.3C1243.8 160.9 1237.8 166.5 1235.7 159.0C1233.5 151.5 1242.1 122.7 1233.0 114.6C1223.9 106.5 1190.7 109.6 1181.0 110.5C1171.3 111.4 1177.4 121.2 1175.0 120.1C1172.6 119.0 1167.9 108.5 1166.5 104.0C1165.1 99.5 1165.4 96.7 1166.8 93.0C1168.1 89.3 1171.4 84.7 1174.7 82.0C1177.9 79.3 1182.6 77.2 1186.0 76.6C1189.4 76.0 1193.0 79.2 1195.0 78.4C1197.0 77.6 1188.7 70.6 1198.0 71.8C1207.3 73.0 1240.2 81.4 1251.0 85.6C1261.8 89.9 1259.3 94.7 1263.0 97.4C1266.7 100.1 1271.1 96.4 1273.0 101.8C1274.9 107.3 1275.3 120.4 1274.5 130.0C1273.7 139.6 1269.1 154.5 1268.0 159.4C1266.9 164.3 1268.6 159.4 1268.0 159.4Z" fill="#642506" />
    <path d="M1244.0 128.1C1242.4 128.1 1236.2 130.4 1234.7 128.0C1233.1 125.6 1231.7 120.4 1234.8 114.0C1237.8 107.6 1248.8 92.3 1253.0 89.6C1257.2 87.0 1259.7 96.1 1260.2 98.0C1260.6 99.9 1256.4 99.5 1255.8 101.0C1255.2 102.5 1255.1 106.4 1256.6 107.0C1258.2 107.6 1263.6 104.0 1265.0 104.6C1266.4 105.3 1265.7 109.2 1265.2 111.0C1264.7 112.8 1263.9 115.2 1262.0 115.2C1260.1 115.3 1256.7 111.6 1254.0 111.5C1251.3 111.4 1248.1 112.4 1246.0 114.5C1243.9 116.6 1242.0 121.7 1241.6 124.0C1241.3 126.3 1243.6 127.4 1244.0 128.1C1244.4 128.8 1245.6 128.1 1244.0 128.1Z" fill="#521e04" opacity="0.55"/>
  </g>
  <g id="face">
    <path d="M1184 137 q 11 -5 22 -2" stroke="#4a2f1d" stroke-width="4.5" fill="none" stroke-linecap="round"/>
    <ellipse cx="1198" cy="150" rx="5.2" ry="7" fill="#22150d"/>
    <path d="M1176 150 q -5 7 3 11" stroke="#e0936c" stroke-width="3.5" fill="none" stroke-linecap="round"/>
    <path d="M1189 177 q 11 7 22 1" stroke="#ffffff" stroke-width="4" fill="none" stroke-linecap="round"/>
  </g>
</svg>
